<?xml version="1.0" standalone="no"?>
<!DOCTYPE svg PUBLIC "-//W3C//DTD SVG 20010904//EN"
 "http://www.w3.org/TR/2001/REC-SVG-20010904/DTD/svg10.dtd">
<svg version="1.0" xmlns="http://www.w3.org/2000/svg"
 width="300.000000pt" height="389.000000pt" viewBox="0 0 300.000000 389.000000"
 preserveAspectRatio="xMidYMid meet">
<metadata>
Created by potrace 1.10, written by Peter Selinger 2001-2011
</metadata>
<g transform="translate(0.000000,389.000000) scale(0.100000,-0.100000)"
fill="#000000" stroke="none">
<path d="M1325 3879 c-190 -33 -288 -64 -430 -136 -60 -30 -119 -63 -130 -72
-11 -9 -39 -29 -63 -44 -69 -44 -229 -215 -294 -312 -109 -165 -182 -350 -194
-491 -7 -91 0 -115 43 -133 28 -11 28 -12 29 -104 0 -60 6 -110 18 -144 10
-29 15 -57 11 -63 -4 -6 -31 -25 -61 -42 -60 -33 -104 -83 -104 -116 0 -18 -4
-20 -35 -15 -78 13 -120 -61 -112 -199 6 -102 33 -335 47 -402 12 -58 56 -152
117 -253 39 -64 47 -72 68 -67 12 3 53 -4 91 -16 116 -35 230 -6 261 68 14 33
14 45 -1 119 -18 92 -20 113 -8 113 4 0 32 -24 62 -53 47 -46 70 -59 158 -90
135 -48 221 -62 301 -47 158 28 295 143 336 280 4 14 13 39 21 55 7 17 20 48
27 69 l13 39 29 -79 c40 -113 71 -172 121 -230 106 -126 240 -165 441 -130
117 21 187 59 271 149 19 20 40 37 45 37 6 0 8 -38 4 -106 -9 -136 5 -163 101
-200 39 -16 49 -16 147 1 58 10 117 26 133 35 30 19 120 175 146 255 9 28 20
91 26 140 5 50 16 135 25 190 16 109 20 252 6 273 -4 7 -34 24 -67 37 -41 16
-66 33 -81 57 -44 66 -49 71 -79 72 -22 1 -30 6 -32 24 -2 12 -10 22 -18 22
-10 0 -13 7 -9 23 15 65 25 161 25 235 0 63 3 82 14 82 32 0 38 26 26 106 -39
258 -159 494 -345 679 -214 214 -455 336 -748 380 -108 16 -271 18 -352 4z
m393 -175 c455 -81 811 -437 897 -894 23 -125 22 -120 44 -120 12 0 21 -9 25
-26 7 -25 -11 -224 -20 -234 -3 -2 -24 -4 -47 -5 -41 0 -43 -2 -72 -57 -31
-60 -47 -68 -80 -44 -17 12 -18 18 -7 66 7 28 12 75 12 103 0 59 -28 175 -55
227 -23 46 -153 174 -234 230 -63 44 -76 59 -171 212 -66 105 -141 175 -246
230 -111 58 -179 78 -264 78 -85 0 -154 -21 -260 -78 -109 -59 -173 -120 -270
-257 -79 -113 -88 -122 -218 -222 -141 -109 -223 -257 -225 -410 -2 -68 1 -86
19 -110 20 -26 20 -30 6 -61 -16 -32 -42 -44 -42 -18 0 22 -102 116 -126 116
-37 0 -47 25 -52 136 -4 83 -2 108 10 122 9 9 18 48 22 87 18 195 139 443 295
602 283 288 648 401 1059 327z m-140 -264 c23 -10 42 -25 42 -31 0 -7 -17 -33
-38 -58 -21 -25 -45 -58 -55 -73 -13 -20 -26 -28 -47 -28 -29 0 -41 -15 -19
-22 7 -2 5 -23 -7 -63 -15 -48 -19 -94 -19 -235 0 -96 4 -216 9 -267 17 -176
-45 -303 -214 -433 -25 -19 -69 -59 -98 -88 -50 -51 -54 -54 -90 -47 -49 9
-84 44 -106 106 -23 64 -52 84 -108 75 -58 -9 -68 -21 -68 -77 0 -53 -4 -57
-38 -33 -13 9 -25 14 -28 11 -10 -9 8 -35 34 -48 15 -7 30 -15 33 -17 4 -1 9
12 13 30 11 58 42 98 76 98 27 0 32 -6 63 -73 28 -59 41 -76 70 -90 43 -21 67
-21 112 -3 l34 15 20 -55 c54 -143 166 -314 207 -314 7 0 14 -6 17 -12 4 -10
7 -10 18 -1 10 11 9 17 -8 35 -49 53 -159 228 -185 293 -37 95 -36 114 9 145
80 54 210 194 243 260 18 36 41 78 52 93 l20 28 -28 132 c-63 296 -17 556 115
644 47 32 130 32 189 0 83 -44 134 -99 196 -211 58 -103 87 -135 152 -169 17
-9 59 -43 92 -76 128 -126 203 -378 142 -478 -11 -18 -26 -33 -34 -33 -8 0
-18 -4 -21 -10 -4 -6 6 -7 24 -4 73 15 131 -81 139 -227 9 -178 -50 -258 -262
-359 -140 -66 -166 -92 -166 -165 l1 -40 18 35 c29 53 75 89 170 130 47 21
106 50 131 64 25 14 49 26 53 26 13 0 -4 -72 -29 -120 -65 -130 -193 -228
-323 -249 -71 -11 -120 1 -100 26 23 27 -7 40 -104 45 -151 9 -219 51 -284
178 -28 54 -28 58 -30 245 -2 206 -19 306 -54 328 -11 7 -19 21 -19 32 -1 11
-10 -5 -22 -35 -19 -49 -22 -77 -24 -261 -2 -227 -13 -285 -77 -394 -114 -195
-384 -241 -601 -103 -132 84 -196 175 -196 277 l0 61 33 -7 c17 -3 40 -10 50
-15 10 -5 42 -16 70 -25 71 -21 157 -109 188 -193 24 -67 43 -80 33 -22 -19
108 -78 171 -209 222 -157 61 -160 62 -195 134 -44 89 -51 177 -21 273 37 121
68 152 123 122 38 -20 28 -2 -14 27 -24 16 -46 33 -50 39 -4 5 -8 49 -8 96 0
180 74 304 263 442 84 61 137 120 200 221 67 108 148 176 229 191 54 10 133
-19 155 -56 18 -31 33 -38 33 -16 0 8 -13 27 -30 43 -45 45 -36 94 23 119 44
19 85 18 135 -5z m523 -1783 c-10 -9 -11 -8 -5 6 3 10 9 15 12 12 3 -3 0 -11
-7 -18z"/>
<path d="M1230 3215 c-7 -8 -9 -23 -4 -37 4 -13 8 -30 9 -38 1 -8 9 -29 18
-46 9 -18 20 -51 23 -75 6 -33 9 -39 14 -24 16 42 -11 162 -40 180 -15 9 -12
32 6 39 9 3 25 -4 40 -21 16 -17 24 -21 24 -11 0 38 -65 63 -90 33z"/>
<path d="M1651 3211 c-11 -7 -12 -15 -5 -32 8 -18 5 -26 -17 -49 -32 -31 -47
-80 -55 -170 -4 -48 -3 -61 5 -50 6 8 11 29 11 46 0 88 63 175 95 131 11 -15
13 -16 19 -2 8 23 35 18 65 -12 14 -16 37 -37 49 -47 22 -19 22 -19 -4 40 -17
39 -44 75 -78 106 -53 50 -62 53 -85 39z"/>
<path d="M1665 3007 c-22 -111 41 -263 134 -321 37 -24 109 -51 116 -44 2 2
-2 16 -9 30 -19 36 -2 58 51 65 32 4 50 0 87 -22 26 -15 51 -36 57 -48 17 -30
4 -105 -26 -160 -15 -26 -25 -51 -21 -54 10 -11 58 40 77 82 49 106 -3 210
-129 258 -63 25 -85 21 -138 -23 -27 -22 -52 -40 -55 -40 -14 0 -79 81 -94
117 -9 21 -22 74 -29 118 -12 77 -13 78 -21 42z"/>
<path d="M1250 2765 c-27 -55 -59 -99 -84 -121 -42 -36 -42 -43 2 -20 40 21
91 89 113 153 30 88 18 83 -31 -12z"/>
<path d="M885 2715 c-22 -8 -45 -22 -52 -32 -21 -28 -15 -85 12 -125 26 -38
122 -114 132 -104 3 3 -18 26 -46 52 -88 79 -105 140 -49 174 18 11 45 22 60
25 15 4 30 11 33 16 9 14 -44 10 -90 -6z"/>
<path d="M1537 2693 c-4 -7 -1 -41 7 -76 12 -51 13 -71 4 -95 -10 -26 -9 -34
4 -49 8 -10 28 -40 43 -66 21 -36 30 -45 40 -37 9 8 23 6 48 -6 33 -16 36 -21
42 -73 8 -84 41 -141 96 -170 55 -30 92 -24 114 19 22 42 19 51 -13 33 -38
-22 -95 -11 -121 23 -33 42 -37 90 -12 140 l21 44 -35 0 c-50 0 -96 22 -140
66 -47 49 -64 89 -79 184 -7 41 -15 69 -19 63z"/>
<path d="M848 2293 c7 -3 16 -2 19 1 4 3 -2 6 -13 5 -11 0 -14 -3 -6 -6z"/>
<path d="M2048 2269 c-13 -13 -36 -62 -52 -109 -16 -47 -41 -98 -55 -114 -37
-40 -118 -99 -181 -131 -30 -16 -49 -30 -42 -33 21 -7 103 19 109 35 3 7 10
13 17 13 6 0 48 36 93 79 74 72 84 86 104 150 19 59 27 71 45 71 28 0 65 -30
125 -102 51 -62 59 -58 38 17 -21 73 -76 128 -142 140 -30 6 -40 3 -59 -16z"/>
<path d="M738 1398 c-3 -21 -16 -31 -50 -42 -15 -4 -18 -17 -18 -78 1 -330
285 -666 634 -748 48 -12 93 -23 101 -27 12 -4 15 -31 15 -137 0 -72 -4 -137
-9 -145 -5 -8 -47 -25 -93 -38 -45 -13 -114 -43 -153 -66 -38 -23 -75 -44 -80
-47 -23 -11 -75 -54 -75 -62 0 -4 219 -8 487 -8 l486 0 -19 21 c-19 21 -95 73
-163 111 -39 22 -117 52 -177 67 -51 13 -54 25 -54 187 0 99 2 113 18 118 9 2
58 14 107 26 195 46 410 204 513 377 105 175 149 397 93 457 -31 33 -41 33
-74 -2 -21 -22 -29 -44 -38 -107 -13 -96 -37 -169 -78 -236 -17 -27 -31 -54
-31 -59 0 -5 -39 -50 -87 -98 -145 -147 -294 -212 -488 -212 -234 0 -420 93
-570 285 -51 66 -125 237 -125 292 0 12 -5 34 -12 50 -6 15 -10 39 -9 51 5 51
-44 118 -51 70z"/>
</g>
</svg>
