<?xml version="1.0" standalone="no"?>
<!DOCTYPE svg PUBLIC "-//W3C//DTD SVG 20010904//EN"
 "http://www.w3.org/TR/2001/REC-SVG-20010904/DTD/svg10.dtd">
<svg version="1.0" xmlns="http://www.w3.org/2000/svg"
 width="1500.000000pt" height="1500.000000pt" viewBox="0 0 1500.000000 1500.000000"
 preserveAspectRatio="xMidYMid meet">
<metadata>
Created by potrace 1.14, written by Peter Selinger 2001-2017
</metadata>
<g transform="translate(0.000000,1500.000000) scale(0.100000,-0.100000)"
fill="#000000" stroke="none">
<path d="M7350 12904 c0 -7 -12 -12 -27 -12 -63 -2 -119 -9 -130 -15 -6 -4
-14 -3 -17 2 -3 5 -22 3 -43 -4 -25 -9 -42 -10 -50 -4 -7 6 -13 6 -17 0 -3 -5
-15 -7 -26 -4 -11 3 -20 1 -20 -4 0 -6 -12 -9 -27 -8 -16 1 -38 -2 -50 -6 -13
-5 -25 -4 -29 2 -4 6 -11 6 -20 -2 -7 -6 -20 -9 -29 -6 -8 4 -17 2 -20 -3 -4
-6 -17 -10 -31 -10 -18 0 -23 -4 -18 -12 6 -10 5 -10 -7 -1 -10 8 -19 9 -25 3
-5 -5 -24 -12 -43 -15 -19 -3 -37 -8 -40 -10 -8 -4 -89 -18 -113 -19 -10 0
-18 -4 -18 -9 0 -4 -4 -6 -8 -3 -5 3 -23 -4 -41 -15 -19 -11 -30 -14 -26 -7 4
7 1 6 -7 -2 -7 -8 -26 -16 -43 -18 -52 -5 -55 -5 -55 -14 0 -4 -11 -8 -25 -8
-14 0 -25 -4 -25 -9 0 -6 -9 -8 -20 -6 -11 2 -20 -1 -20 -6 0 -6 -4 -7 -10 -4
-5 3 -10 1 -10 -4 0 -6 -9 -11 -20 -11 -11 0 -20 -4 -20 -10 0 -5 -7 -7 -15
-4 -8 4 -17 -1 -21 -10 -3 -9 -10 -14 -14 -11 -4 3 -25 -2 -46 -11 -22 -9 -50
-21 -64 -27 -14 -6 -31 -9 -39 -8 -7 1 -10 -2 -7 -8 3 -5 -7 -12 -24 -16 -16
-4 -34 -14 -40 -23 -5 -9 -10 -13 -10 -9 0 5 -13 -1 -29 -12 -15 -11 -31 -18
-35 -14 -3 3 -6 1 -6 -6 0 -7 -4 -10 -9 -7 -5 3 -14 -1 -21 -9 -7 -8 -17 -15
-22 -15 -15 0 -96 -39 -103 -50 -4 -6 -10 -8 -15 -5 -5 3 -15 -4 -23 -15 -7
-11 -17 -17 -20 -13 -4 3 -7 1 -7 -6 0 -7 -4 -9 -10 -6 -5 3 -10 1 -10 -4 0
-6 -7 -11 -15 -11 -8 0 -15 -5 -15 -12 0 -6 -3 -9 -6 -5 -3 3 -16 -4 -28 -17
-27 -29 -86 -70 -86 -60 0 4 -7 -1 -15 -12 -8 -10 -15 -15 -15 -11 0 5 -7 2
-15 -5 -32 -29 -45 -39 -45 -33 0 2 -9 -3 -19 -12 -11 -9 -18 -20 -15 -25 3
-4 -3 -5 -12 -1 -13 5 -15 3 -9 -7 6 -10 4 -12 -11 -6 -10 4 -15 4 -11 0 4 -4
-2 -14 -13 -21 -11 -8 -18 -19 -15 -24 4 -5 -3 -9 -15 -9 -12 0 -19 -4 -16 -9
6 -9 -22 -26 -36 -23 -4 1 -5 -5 -1 -14 3 -8 2 -14 -3 -13 -20 3 -35 -2 -29
-10 3 -5 -4 -12 -15 -16 -11 -3 -20 -11 -20 -17 0 -6 -3 -9 -6 -6 -7 8 -50
-34 -46 -45 1 -5 -2 -6 -8 -2 -5 3 -10 1 -10 -5 0 -6 -4 -8 -10 -5 -5 3 -10 2
-10 -4 0 -5 -20 -30 -45 -55 -25 -25 -43 -46 -40 -46 3 0 1 -9 -5 -20 -6 -11
-17 -20 -25 -20 -8 0 -15 -7 -15 -15 0 -8 -4 -15 -8 -15 -15 0 -92 -83 -92
-99 0 -8 -3 -12 -6 -8 -8 8 -34 -18 -34 -35 0 -7 -9 -19 -20 -26 -12 -7 -18
-17 -15 -22 3 -6 2 -10 -4 -10 -5 0 -18 -13 -27 -29 -10 -17 -21 -28 -26 -25
-5 3 -8 2 -7 -3 3 -20 -2 -34 -11 -28 -5 3 -10 -1 -10 -9 0 -9 -4 -16 -10 -16
-5 0 -10 -7 -10 -15 0 -9 -7 -18 -15 -21 -8 -4 -13 -10 -10 -14 3 -5 -4 -15
-16 -23 -15 -11 -17 -16 -7 -20 8 -4 7 -6 -5 -6 -10 -1 -15 -5 -12 -11 3 -5 1
-10 -5 -10 -6 0 -8 -4 -5 -10 3 -5 1 -10 -5 -10 -6 0 -8 -5 -5 -10 3 -6 -1
-13 -9 -16 -9 -3 -14 -10 -11 -14 3 -5 -1 -15 -9 -23 -8 -8 -12 -17 -9 -21 4
-3 1 -6 -6 -6 -7 0 -10 -4 -7 -9 3 -5 -1 -12 -10 -15 -8 -3 -13 -10 -9 -15 3
-5 -5 -17 -17 -25 -12 -9 -19 -16 -14 -16 5 0 3 -7 -4 -15 -7 -8 -9 -15 -6
-15 4 0 -2 -10 -14 -22 -11 -12 -20 -28 -20 -35 0 -7 -5 -13 -11 -13 -5 0 -8
-4 -4 -9 3 -5 -1 -15 -8 -23 -15 -16 -39 -66 -44 -93 -2 -11 -11 -26 -20 -32
-13 -10 -14 -13 -2 -13 11 0 12 -2 1 -9 -8 -5 -15 -20 -15 -35 -1 -14 -5 -26
-9 -26 -5 0 -23 -40 -33 -72 -1 -5 -4 -10 -5 -13 -1 -3 -3 -8 -4 -12 -7 -29
-19 -53 -26 -53 -5 0 -7 -9 -5 -20 2 -11 -1 -22 -6 -25 -5 -4 -7 -11 -4 -16 4
-5 -1 -12 -10 -15 -11 -5 -13 -10 -5 -19 8 -9 7 -14 -3 -18 -9 -3 -13 -16 -12
-31 2 -14 -1 -26 -6 -26 -5 0 -8 -3 -7 -7 3 -12 -13 -77 -22 -88 -4 -5 -8 -17
-8 -25 -1 -8 -4 -28 -8 -45 -3 -16 -6 -40 -6 -52 0 -13 -4 -23 -8 -23 -5 0 -6
-9 -3 -20 3 -11 -1 -28 -8 -37 -12 -15 -12 -16 1 -8 12 7 13 6 4 -6 -6 -8 -10
-24 -9 -36 1 -13 -1 -23 -5 -23 -3 0 -6 -15 -7 -32 -2 -74 -9 -134 -16 -145
-4 -6 -1 -14 5 -16 10 -4 10 -8 -1 -15 -8 -6 -9 -12 -3 -16 6 -3 9 -17 7 -31
-1 -14 2 -25 6 -25 5 0 9 -12 9 -26 0 -14 4 -23 10 -19 6 3 10 1 10 -5 0 -17
47 -60 65 -60 10 0 13 -5 9 -12 -5 -8 -2 -9 9 -5 10 3 17 2 17 -4 0 -6 4 -8 9
-4 5 3 13 1 16 -5 5 -8 11 -7 21 1 11 9 14 9 14 -1 0 -8 13 -11 38 -8 37 3 39
2 37 -27 0 -17 -5 -36 -9 -44 -6 -10 -5 -12 2 -7 17 10 15 -6 -5 -33 -12 -18
-13 -22 -2 -16 8 5 6 0 -4 -12 -13 -15 -15 -22 -6 -25 9 -3 9 -10 -1 -28 -9
-18 -10 -25 -1 -28 6 -2 8 -9 5 -14 -10 -16 -10 -77 -1 -71 5 3 5 -3 -1 -13
-5 -11 -8 -29 -6 -41 2 -13 -1 -23 -7 -23 -6 0 -7 -5 -2 -12 4 -7 9 -30 10
-51 2 -27 -1 -36 -10 -31 -7 4 -4 -2 6 -13 10 -11 15 -27 11 -37 -3 -9 -2 -16
4 -16 5 0 8 -11 7 -25 -2 -14 2 -25 8 -25 8 0 7 -3 -2 -9 -10 -6 -10 -10 -1
-16 9 -6 9 -10 -1 -16 -11 -7 -9 -9 6 -9 18 -1 19 -1 3 -11 -20 -11 -24 -29
-7 -29 5 0 7 6 3 13 -5 9 -4 9 6 0 12 -11 23 -116 11 -109 -10 6 -31 -21 -23
-30 4 -4 1 -4 -6 0 -14 8 -45 -18 -34 -28 3 -4 -1 -4 -11 0 -10 3 -17 1 -17
-5 0 -6 -7 -11 -15 -11 -8 0 -15 -5 -15 -11 0 -5 -4 -8 -9 -4 -6 3 -14 -3 -20
-12 -6 -10 -11 -14 -11 -9 0 5 -6 4 -12 -2 -24 -19 -90 -53 -95 -48 -5 5 -74
-60 -73 -69 0 -3 -11 -16 -25 -30 -15 -13 -27 -27 -28 -32 -1 -4 -5 -7 -8 -6
-4 1 -4 -7 -1 -19 3 -14 1 -19 -7 -14 -6 4 -17 1 -24 -6 -16 -16 -29 -61 -15
-52 5 3 8 0 7 -7 -1 -8 1 -27 6 -42 5 -19 3 -32 -5 -40 -10 -9 -11 -9 -6 1 4
6 2 12 -5 12 -6 0 -20 9 -29 20 -11 13 -21 17 -24 11 -5 -7 -15 -7 -33 0 -15
6 -29 6 -32 1 -3 -5 -14 -8 -23 -6 -10 1 -18 -2 -18 -7 0 -6 -5 -7 -10 -4 -6
4 -17 1 -25 -5 -8 -6 -19 -9 -25 -5 -5 3 -10 -1 -10 -9 0 -9 -4 -16 -10 -16
-14 0 -70 -57 -63 -64 4 -3 1 -6 -6 -6 -7 0 -9 -5 -6 -10 3 -6 -1 -13 -10 -16
-9 -4 -14 -12 -11 -19 3 -8 -1 -16 -9 -19 -8 -3 -11 -13 -8 -27 4 -13 2 -20
-4 -16 -6 4 -9 -6 -8 -23 1 -17 -2 -30 -7 -30 -5 0 -7 -4 -4 -8 2 -4 1 -14 -4
-22 -5 -8 -5 -22 1 -32 5 -10 6 -18 2 -18 -4 0 -8 -13 -9 -30 -1 -16 3 -27 8
-23 6 3 6 -3 0 -14 -7 -12 -7 -24 0 -37 7 -12 7 -17 0 -13 -11 7 -10 -43 2
-61 4 -7 3 -12 -3 -12 -6 0 -8 -6 -6 -12 10 -29 12 -88 2 -88 -6 0 -2 -10 9
-22 10 -12 14 -18 7 -15 -8 5 -11 -6 -8 -40 2 -27 5 -50 6 -53 1 -3 1 -8 0
-12 0 -5 5 -8 12 -8 8 0 7 -4 -3 -10 -13 -9 -13 -12 0 -23 16 -13 24 -51 9
-41 -5 3 -9 0 -9 -5 0 -6 7 -11 16 -11 14 0 15 -2 3 -17 -10 -11 -10 -14 -1
-9 16 10 16 -9 -1 -26 -34 -33 -82 -64 -111 -71 -17 -4 -40 -9 -51 -12 -11 -3
-35 2 -54 11 -18 9 -39 17 -46 18 -6 1 -24 14 -39 29 -15 15 -31 27 -37 27 -6
0 -7 4 -4 10 4 6 -1 7 -11 3 -12 -4 -15 -3 -10 5 5 8 -1 12 -18 12 -14 0 -26
6 -26 13 0 8 -4 7 -10 -3 -7 -11 -10 -11 -10 -2 0 7 -5 10 -11 7 -6 -4 -8 -13
-5 -20 2 -7 -2 -16 -10 -19 -9 -3 -12 -10 -9 -16 3 -5 2 -10 -2 -10 -5 0 -8
-12 -8 -27 1 -16 -6 -37 -14 -47 -9 -11 -10 -16 -4 -12 9 5 11 2 7 -8 -3 -9
-11 -16 -18 -16 -6 0 0 -10 14 -23 14 -12 26 -28 28 -36 2 -7 11 -21 20 -30
10 -9 13 -14 7 -11 -6 3 -2 -3 8 -12 11 -10 16 -18 11 -18 -4 0 2 -8 15 -17
13 -10 32 -26 42 -35 11 -10 22 -18 27 -19 4 -1 6 -5 5 -10 -2 -4 3 -6 11 -3
7 3 20 -1 27 -9 8 -8 22 -13 32 -11 9 1 17 -2 17 -6 0 -5 12 -7 27 -4 15 3 30
0 34 -8 7 -11 9 -11 9 0 0 7 4 11 9 7 5 -3 13 -1 16 5 5 8 11 7 21 -1 11 -9
14 -9 14 0 0 7 4 10 9 6 5 -3 12 -1 16 5 4 6 10 8 15 5 4 -3 11 2 14 11 4 9 9
14 13 11 10 -11 44 13 36 26 -4 7 2 5 12 -3 11 -9 16 -10 11 -2 -4 8 -1 12 10
12 12 0 15 -6 12 -25 -3 -14 -2 -25 3 -25 4 0 4 -13 -1 -30 -5 -17 -5 -30 0
-30 5 0 7 -7 4 -15 -4 -8 -1 -15 6 -15 10 0 10 -3 0 -15 -10 -12 -10 -15 1
-15 11 0 11 -2 -1 -10 -8 -5 -10 -10 -3 -10 6 0 10 -8 8 -17 -1 -10 2 -24 8
-30 6 -9 5 -18 -3 -28 -10 -12 -9 -16 5 -21 13 -5 14 -9 3 -15 -9 -6 -9 -9 -1
-9 6 0 10 -9 8 -20 -2 -11 2 -20 8 -20 7 0 6 -4 -3 -10 -9 -6 -10 -10 -3 -10
6 0 10 -9 8 -20 -2 -11 1 -20 7 -20 6 0 8 -9 5 -20 -3 -11 -1 -20 4 -20 4 0 6
-7 3 -15 -4 -8 -1 -15 7 -15 7 0 9 -3 6 -7 -4 -3 -1 -13 6 -21 9 -13 9 -14 0
-8 -19 11 -16 -4 5 -27 12 -15 13 -19 2 -13 -8 4 -7 1 4 -8 10 -8 15 -19 11
-25 -3 -6 -2 -11 4 -11 6 0 8 -7 5 -15 -4 -9 0 -15 7 -15 11 0 11 -3 -1 -10
-8 -5 -10 -10 -4 -10 6 0 19 -18 29 -40 10 -22 22 -40 27 -40 5 0 6 -4 3 -10
-3 -5 -1 -10 5 -10 7 0 10 -6 7 -12 -2 -7 3 -19 12 -26 13 -11 13 -12 1 -6 -8
4 -5 -3 8 -15 20 -20 26 -34 23 -53 0 -5 4 -8 10 -8 5 0 7 -4 4 -10 -3 -6 -3
-10 2 -10 8 0 39 -62 34 -69 -1 -2 1 -7 6 -10 18 -13 48 -54 33 -46 -13 8 -13
6 -1 -8 7 -9 18 -14 24 -10 5 3 7 1 3 -5 -3 -6 -2 -13 3 -17 6 -3 8 -12 4 -21
-3 -9 0 -14 8 -12 8 2 13 -3 11 -9 -1 -7 3 -13 9 -13 5 0 7 -4 4 -10 -3 -5 1
-10 10 -10 9 0 14 -4 11 -8 -3 -5 4 -19 15 -30 11 -12 17 -22 13 -22 -3 0 -1
-6 5 -13 6 -8 7 -18 3 -22 -4 -5 -2 -5 5 -2 6 4 19 -1 28 -10 18 -17 79 -28
69 -12 -3 5 6 10 20 11 74 5 86 4 86 -3 0 -5 7 -6 15 -3 8 4 15 1 15 -6 0 -7
7 -10 15 -6 8 3 15 0 15 -6 0 -6 3 -9 6 -5 4 3 21 -1 38 -10 17 -10 33 -17 36
-18 3 0 11 -4 19 -9 11 -7 12 -6 6 5 -8 12 -6 12 8 1 9 -8 21 -11 27 -7 5 3
10 2 10 -4 0 -5 11 -8 25 -7 14 2 30 -3 37 -11 9 -11 13 -11 20 -1 6 11 10 10
17 -1 6 -9 10 -10 16 -2 5 9 11 9 23 -1 13 -11 14 -11 8 0 -7 12 15 11 62 -4
6 -2 12 2 12 9 0 8 4 6 10 -3 6 -10 10 -11 10 -3 0 8 11 11 30 9 16 -2 32 -1
35 2 5 5 32 10 83 14 6 1 12 6 12 11 0 5 7 7 15 3 8 -3 15 -1 15 5 0 6 4 8 9
5 5 -3 14 1 21 9 7 8 19 15 26 15 8 0 14 5 14 11 0 5 5 7 10 4 6 -3 13 1 16 9
3 9 10 13 15 10 5 -3 12 2 15 10 3 9 10 13 15 10 5 -3 9 -1 9 5 0 5 6 16 14
24 22 21 56 89 50 99 -3 4 -1 8 5 8 5 0 10 8 11 18 5 105 4 162 -4 162 -4 0
-3 7 4 16 8 8 9 14 4 12 -8 -3 -16 6 -13 15 5 16 4 45 -3 41 -4 -3 -8 12 -8
33 0 22 -6 45 -12 52 -11 11 -10 12 2 6 12 -7 13 -6 3 6 -6 8 -13 29 -16 47
-3 18 -11 40 -19 49 -9 12 -9 15 0 9 16 -10 15 5 -3 30 -8 12 -12 24 -9 27 3
3 1 14 -5 25 -8 15 -7 23 2 30 9 8 21 4 45 -14 18 -14 30 -30 27 -35 -4 -5 0
-9 7 -9 8 0 20 -9 28 -20 8 -11 20 -20 27 -20 7 0 12 -3 12 -7 -3 -20 2 -33
14 -33 6 0 27 -23 45 -50 17 -28 37 -50 42 -50 6 0 10 -6 10 -14 0 -8 8 -17
19 -21 10 -3 35 -21 54 -40 20 -19 40 -35 46 -35 5 0 13 -9 16 -20 4 -11 10
-18 15 -15 15 9 17 -66 1 -87 -10 -16 -11 -19 -1 -13 9 6 11 4 5 -4 -4 -7 -21
-21 -38 -31 -29 -18 -30 -18 -58 2 -16 12 -26 25 -23 30 3 4 0 8 -5 8 -6 0
-11 10 -11 23 0 18 -2 19 -10 7 -8 -12 -10 -12 -10 -1 0 8 -3 12 -6 8 -4 -3 3
-18 14 -32 21 -26 20 -55 -2 -55 -6 0 -4 -5 4 -10 13 -8 13 -10 -1 -10 -11 0
-15 -9 -14 -30 1 -17 -2 -27 -8 -23 -6 4 -8 -2 -5 -15 3 -12 1 -23 -5 -25 -6
-2 -7 -9 -2 -17 11 -17 13 -90 3 -90 -5 0 -4 -9 2 -19 7 -14 6 -21 -3 -24 -6
-3 -7 -6 -2 -6 6 -1 10 -26 9 -56 0 -30 4 -55 9 -55 5 0 4 -6 -2 -13 -6 -8 -8
-17 -5 -20 4 -3 9 -26 11 -49 3 -24 9 -51 14 -60 7 -13 6 -18 -3 -18 -8 0 -5
-5 5 -11 12 -7 16 -17 12 -30 -4 -12 -2 -19 6 -19 7 0 9 -3 6 -7 -4 -3 -1 -13
6 -21 8 -11 8 -13 0 -9 -7 5 -9 0 -6 -13 3 -11 10 -17 15 -14 6 4 5 -3 -1 -15
-8 -14 -8 -21 -1 -21 5 0 10 -11 10 -25 0 -14 5 -25 11 -25 8 0 8 -5 -1 -15
-9 -11 -9 -15 -1 -15 7 0 10 -4 7 -9 -3 -5 1 -14 9 -21 8 -7 15 -21 15 -30 0
-10 5 -20 10 -22 6 -2 12 -13 13 -26 0 -12 5 -22 9 -22 4 0 8 -7 8 -16 0 -8 4
-13 9 -10 5 4 7 -3 4 -14 -3 -11 -1 -20 4 -20 5 0 10 -7 11 -15 1 -8 3 -22 4
-30 1 -8 8 -17 16 -20 8 -3 12 -12 9 -19 -3 -8 1 -17 8 -20 8 -3 12 -12 9 -21
-3 -8 -1 -15 4 -15 9 0 26 -36 24 -50 0 -3 6 -9 14 -13 8 -5 12 -12 9 -18 -4
-5 -1 -9 4 -9 6 0 11 -7 11 -15 0 -8 6 -15 14 -15 8 0 17 -14 21 -30 4 -17 11
-30 16 -30 6 0 7 -5 4 -10 -3 -6 1 -13 9 -16 9 -3 16 -13 16 -21 0 -8 5 -11
10 -8 6 3 10 -2 10 -12 1 -22 24 -55 33 -46 4 3 7 0 7 -8 0 -8 9 -21 19 -29
11 -7 18 -17 15 -22 -3 -4 2 -11 10 -14 9 -3 16 -12 16 -20 0 -8 7 -14 16 -14
8 0 13 -4 9 -9 -3 -5 4 -12 15 -16 11 -4 18 -10 15 -14 -6 -10 46 -65 75 -81
13 -7 19 -17 16 -26 -3 -8 -1 -12 4 -9 5 3 18 -3 30 -15 11 -11 20 -17 20 -12
1 4 7 -4 15 -18 8 -14 14 -21 15 -16 0 5 10 -2 23 -16 12 -14 32 -31 45 -37
12 -7 20 -17 16 -23 -4 -7 -3 -8 5 -4 6 4 14 0 17 -8 3 -9 9 -14 14 -11 4 2
17 -7 29 -21 12 -14 26 -22 31 -19 6 3 10 -1 10 -9 0 -9 7 -16 16 -16 9 0 12
-5 8 -12 -4 -6 -3 -8 4 -4 6 3 17 -1 26 -9 8 -9 19 -17 23 -18 4 -1 7 -6 5
-11 -2 -5 4 -6 13 -2 9 3 18 -1 21 -9 4 -8 10 -13 14 -10 5 3 15 -2 23 -10 9
-8 21 -15 27 -15 6 0 9 -4 6 -8 -2 -4 5 -9 16 -9 12 -1 25 -8 29 -15 5 -7 9
-9 9 -4 0 5 7 3 15 -4 8 -7 15 -9 15 -5 0 5 8 -1 18 -11 9 -10 24 -20 32 -22
8 -2 18 -9 22 -15 4 -7 8 -8 8 -3 0 5 7 3 15 -4 8 -6 19 -9 25 -5 5 3 10 1 10
-4 0 -6 7 -11 15 -11 9 0 18 -7 21 -15 4 -8 10 -12 15 -9 5 3 26 -4 45 -15 19
-12 32 -15 28 -9 -4 7 5 2 21 -12 16 -14 25 -19 21 -12 -4 6 -2 12 3 12 6 0
11 -4 11 -9 0 -5 10 -9 23 -9 23 0 41 -4 69 -16 9 -4 22 -5 28 -1 5 3 13 -1
16 -10 6 -13 8 -14 15 -3 6 9 9 9 9 1 0 -6 9 -10 20 -8 11 2 20 0 20 -4 0 -4
10 -7 23 -6 12 1 27 -2 33 -6 6 -5 24 -10 40 -12 17 -2 36 -7 43 -12 9 -5 12
-4 8 2 -3 5 0 10 8 10 8 0 12 -4 10 -8 -3 -4 9 -12 25 -18 17 -5 30 -8 30 -5
0 3 9 0 20 -6 14 -7 20 -7 20 0 0 5 5 10 11 10 5 0 7 -4 4 -10 -3 -5 0 -10 8
-10 7 0 14 -7 14 -15 0 -8 -5 -15 -10 -15 -6 0 -6 -5 0 -12 11 -15 11 -87 0
-105 -4 -6 -3 -14 1 -17 5 -3 9 -19 10 -36 0 -19 -3 -28 -10 -24 -7 5 -8 2 -2
-7 13 -21 12 -179 0 -171 -6 3 -5 -2 3 -12 13 -15 13 -19 0 -27 -8 -5 -9 -9
-3 -9 11 0 12 -69 1 -87 -4 -6 -3 -14 3 -18 7 -4 6 -13 -1 -28 -9 -16 -9 -22
0 -25 6 -2 8 -9 4 -15 -8 -12 -12 -29 -15 -59 -1 -10 -6 -18 -11 -18 -4 0 -5
-5 -2 -10 3 -6 -1 -13 -9 -16 -9 -3 -16 -13 -16 -22 0 -8 -3 -12 -7 -9 -3 4
-12 2 -19 -3 -6 -6 -32 -12 -57 -13 -25 -1 -43 -5 -40 -9 2 -5 -6 -8 -19 -9
-13 0 -32 -3 -43 -5 -11 -2 -28 -5 -37 -6 -10 -1 -18 -6 -18 -11 0 -5 -7 -6
-16 -3 -10 4 -13 2 -8 -6 5 -8 2 -9 -9 -5 -10 3 -17 2 -17 -4 0 -6 -4 -8 -9
-4 -5 3 -12 1 -16 -5 -4 -6 -10 -8 -15 -5 -5 3 -11 1 -15 -5 -4 -6 -11 -8 -16
-5 -5 4 -9 1 -9 -5 0 -6 -4 -9 -8 -6 -5 3 -21 -1 -36 -9 -14 -8 -24 -10 -21
-5 3 6 -1 7 -9 4 -9 -3 -14 -10 -11 -15 3 -4 -10 -11 -30 -15 -20 -3 -32 -10
-28 -17 3 -5 1 -7 -4 -4 -12 8 -56 -12 -63 -28 -3 -5 -8 -9 -12 -7 -5 1 -8 -3
-8 -9 0 -5 -4 -7 -10 -4 -5 3 -10 2 -10 -3 0 -9 -37 -25 -52 -23 -4 0 -10 -8
-13 -19 -4 -11 -12 -17 -20 -13 -8 3 -17 -2 -21 -10 -3 -9 -12 -13 -19 -11 -7
3 -20 -5 -29 -18 -9 -12 -16 -18 -16 -13 0 6 -4 5 -8 -2 -4 -6 -14 -13 -22
-15 -8 -2 -20 -10 -27 -18 -11 -13 -12 -13 -13 0 0 12 -3 11 -11 -2 -5 -10
-17 -18 -24 -18 -8 0 -15 -4 -15 -10 0 -5 -7 -10 -15 -10 -8 0 -15 -6 -15 -13
0 -7 -10 -19 -21 -27 -32 -22 -91 -80 -82 -80 5 0 -1 -7 -11 -15 -16 -12 -17
-15 -4 -15 9 0 19 -6 21 -12 4 -10 6 -10 6 -1 1 9 8 10 25 3 17 -6 26 -5 30 3
5 9 7 9 12 0 4 -8 13 -9 30 -3 16 7 24 6 24 -1 0 -8 4 -8 13 -1 6 5 21 6 32 2
11 -4 28 -3 38 2 11 6 17 5 17 -2 0 -6 5 -8 13 -3 15 9 33 10 74 2 18 -4 34
-4 37 -1 9 8 75 8 69 0 -6 -11 5 -10 28 2 13 8 19 7 19 0 0 -6 5 -8 12 -3 17
10 52 10 59 -1 4 -4 16 -3 28 3 15 8 21 9 21 1 0 -6 5 -8 13 -3 18 11 36 12
42 2 3 -4 16 -4 30 1 17 7 25 6 25 -1 0 -8 5 -7 15 1 10 8 15 9 15 1 0 -7 8
-8 25 -1 17 7 25 6 25 -1 0 -8 4 -8 13 -1 8 7 18 7 27 2 8 -5 19 -6 25 -2 16
10 34 11 40 1 3 -4 16 -4 30 1 14 5 25 6 25 1 0 -9 31 -8 48 3 6 4 12 3 12 -3
0 -7 8 -7 23 -2 13 5 30 5 37 1 8 -5 19 -6 25 -2 17 11 35 11 35 1 0 -6 4 -8
9 -4 16 9 71 13 71 4 0 -11 23 -7 32 6 5 6 8 5 8 -4 0 -11 3 -11 15 -1 11 9
15 9 15 1 0 -7 5 -9 12 -5 16 10 107 11 101 2 -6 -11 5 -10 28 2 13 8 19 7 19
0 0 -6 5 -8 12 -3 17 10 52 10 59 -1 4 -4 15 -3 25 2 13 7 26 7 37 1 9 -6 17
-6 17 -2 0 5 9 9 20 9 11 0 20 -4 20 -9 0 -5 7 -4 15 3 11 9 15 9 15 1 0 -7 5
-9 12 -5 14 9 78 11 78 2 0 -8 27 -4 36 5 4 3 15 2 25 -4 13 -6 19 -6 19 0 0
7 9 7 24 1 17 -6 26 -5 30 3 3 9 5 9 5 -1 1 -10 6 -10 21 -2 11 6 20 7 20 2 0
-5 16 -8 35 -8 19 1 35 4 35 7 0 3 7 6 15 6 8 0 15 -3 15 -7 0 -8 44 -5 59 5
6 3 11 3 11 -2 0 -4 16 -8 35 -9 18 0 32 3 29 8 -8 12 19 5 28 -7 5 -6 8 -4 8
5 0 12 2 13 9 1 6 -10 14 -11 26 -3 11 5 30 6 45 2 15 -4 33 -4 41 0 7 5 18 6
24 2 15 -9 57 -9 77 0 10 5 20 4 24 -3 4 -8 9 -7 15 2 5 8 9 9 9 3 0 -11 28
-12 46 -1 6 3 14 4 18 0 12 -12 96 -9 96 5 0 6 -25 37 -55 67 -30 30 -55 51
-55 48 0 -3 -9 4 -20 17 -11 13 -20 20 -20 16 0 -4 -11 5 -25 19 -14 14 -30
25 -35 25 -6 0 -12 0 -15 0 -2 0 -17 12 -31 25 -15 14 -29 23 -32 21 -2 -3
-15 7 -28 21 -12 13 -28 22 -33 18 -6 -3 -11 -1 -11 5 0 6 -4 8 -10 5 -5 -3
-10 2 -10 11 0 10 -3 15 -6 11 -4 -3 -21 4 -38 17 -33 24 -66 40 -78 38 -5 -1
-8 2 -8 8 0 5 -7 10 -15 10 -8 0 -15 5 -15 10 0 6 -9 10 -20 10 -11 0 -20 5
-20 11 0 5 -4 7 -10 4 -5 -3 -10 -1 -10 5 0 6 -4 8 -10 5 -5 -3 -10 -2 -10 3
0 4 -22 15 -50 22 -27 7 -50 17 -50 21 0 4 -9 6 -20 4 -11 -2 -22 1 -25 6 -4
5 -11 7 -16 4 -5 -4 -9 -1 -9 6 0 7 -3 9 -7 6 -3 -4 -12 -2 -20 4 -7 6 -22 9
-33 6 -11 -3 -18 -1 -14 4 4 8 -17 12 -42 8 -4 0 -11 5 -15 13 -7 10 -9 10 -9
-2 0 -12 -2 -12 -9 -2 -4 7 -23 15 -42 17 -19 2 -36 4 -39 5 -3 1 -8 2 -12 1
-5 0 -8 4 -8 10 0 5 -4 7 -10 4 -5 -3 -10 -1 -10 4 0 6 -6 11 -14 11 -9 0 -13
9 -11 25 1 14 -1 25 -4 25 -3 0 -6 82 -6 183 0 100 -3 197 -6 215 -4 17 -4 32
1 32 7 0 2 81 -5 89 -3 2 0 13 6 24 6 10 7 17 1 14 -5 -4 -8 20 -7 61 2 42 7
66 14 64 6 -1 11 2 11 7 0 5 16 8 35 6 19 -2 35 0 35 5 0 4 14 6 30 5 17 -1
30 1 30 5 0 6 16 10 53 11 9 0 17 4 17 10 0 5 5 9 11 9 5 0 8 -4 5 -9 -4 -5 5
-4 19 2 14 7 25 15 25 19 0 3 9 4 20 1 11 -3 26 -1 33 4 10 8 41 13 99 16 9 1
14 6 11 11 -4 5 1 7 10 3 10 -4 17 -1 17 6 0 9 3 8 9 -1 6 -11 10 -10 15 3 3
9 12 15 20 12 7 -3 19 0 25 6 6 6 11 8 11 3 0 -4 10 0 22 8 12 9 30 16 39 16
9 0 22 7 29 15 7 9 15 13 18 11 2 -3 11 2 19 10 8 8 19 12 24 9 5 -4 9 1 9 9
0 10 6 13 15 10 8 -4 15 -1 15 6 0 6 4 9 8 6 5 -3 18 4 30 14 12 11 28 20 36
20 8 0 22 7 30 16 9 8 16 12 16 7 0 -4 4 -3 8 4 4 6 16 13 27 15 11 1 29 11
40 21 10 10 25 15 31 13 7 -3 15 2 18 10 3 8 10 13 14 12 9 -3 63 36 103 75
11 9 19 14 19 10 0 -3 8 4 19 15 10 12 24 22 30 22 7 0 9 5 6 10 -3 6 1 10 9
10 9 0 16 4 16 9 0 5 9 13 20 16 11 3 20 10 20 15 0 5 12 22 27 37 14 15 23
21 19 13 -4 -8 0 -6 8 4 9 11 16 24 16 29 0 4 4 6 9 2 6 -3 15 4 21 15 6 11
15 18 21 15 8 -6 13 8 7 20 -3 5 32 32 45 34 13 2 44 36 40 44 -2 4 -1 7 4 7
4 0 21 11 37 25 16 14 26 25 22 25 -4 0 -1 6 6 14 7 8 16 12 20 9 4 -2 5 3 2
11 -3 9 -2 16 2 16 5 0 15 14 22 30 8 18 18 27 25 23 7 -3 9 -3 5 2 -8 8 28
74 46 87 6 4 11 13 11 20 1 7 7 12 14 10 7 -1 10 2 7 7 -4 5 0 13 8 18 14 8
16 12 16 34 0 5 4 7 10 4 6 -3 7 1 4 9 -3 9 -1 16 5 16 6 0 11 7 11 15 0 8 5
15 11 15 5 0 8 4 5 8 -3 5 4 19 15 30 11 12 17 22 13 22 -3 0 -2 6 4 13 6 6
10 14 10 17 -2 15 15 50 22 45 4 -3 7 6 5 20 -1 14 2 25 7 25 5 0 6 4 3 10 -3
6 -1 10 5 10 7 0 10 6 7 13 -2 6 2 17 10 22 8 6 15 20 16 33 0 12 5 22 9 22 4
0 5 9 3 20 -2 11 0 20 6 20 5 0 9 6 9 13 0 6 7 25 15 40 8 15 10 25 5 22 -6
-3 -7 1 -4 9 3 9 10 16 15 16 4 0 6 6 3 14 -3 8 0 17 6 21 8 5 7 11 -2 23 -10
12 -10 14 0 8 8 -5 12 -1 12 13 0 11 5 23 11 27 8 4 7 9 -2 15 -11 7 -11 9 -1
9 7 0 11 4 7 9 -3 5 -1 12 4 15 5 4 8 14 7 24 -2 9 2 21 8 25 8 6 7 10 -1 14
-9 3 -10 10 -4 21 5 9 11 32 14 50 3 18 10 39 17 47 6 7 7 16 2 19 -10 6 -8
108 3 126 5 9 4 11 -3 6 -7 -4 -12 -3 -12 3 0 5 5 13 10 16 8 5 7 11 0 20 -7
8 -9 19 -5 25 3 5 2 10 -2 10 -5 0 -10 11 -11 26 -1 17 2 23 11 19 6 -4 5 -1
-4 7 -9 7 -15 21 -13 31 1 9 -2 17 -7 17 -5 0 -9 9 -9 20 0 11 -5 20 -11 20
-5 0 -7 5 -4 10 3 6 -1 13 -9 16 -9 3 -16 13 -16 22 0 8 -3 13 -6 9 -10 -10
-56 43 -50 58 3 8 1 17 -4 20 -5 3 -7 15 -4 28 2 12 7 37 10 54 4 20 11 30 17
26 6 -4 8 0 4 11 -4 9 -3 15 2 12 4 -3 16 3 26 14 10 11 24 20 30 20 7 0 16 7
19 16 3 8 10 13 14 10 5 -3 14 6 21 20 6 14 15 23 20 20 5 -3 14 8 20 25 6 17
15 28 21 24 5 -3 10 1 10 9 0 9 7 16 16 16 9 0 14 6 11 13 -4 11 20 42 33 42
3 0 4 3 3 8 -2 4 4 7 12 7 8 0 15 7 15 15 0 17 9 19 28 6 15 -9 15 -17 1 -42
-5 -10 -4 -20 3 -27 9 -9 9 -12 -1 -12 -10 0 -11 -3 -2 -14 9 -11 9 -15 -1
-18 -10 -4 -11 -8 -1 -20 7 -8 9 -18 5 -22 -10 -11 -9 -30 3 -38 6 -5 5 -8 -3
-8 -10 0 -10 -5 -1 -21 6 -12 7 -19 2 -16 -5 3 -10 -17 -11 -45 -1 -29 -7 -55
-14 -59 -6 -4 -12 -27 -13 -51 -1 -24 -3 -47 -5 -53 -1 -5 -1 -13 0 -17 4 -12
7 -44 9 -79 0 -17 5 -28 11 -24 5 3 7 0 4 -8 -3 -8 2 -21 10 -30 8 -8 12 -17
9 -21 -3 -3 2 -8 11 -12 9 -3 13 -10 10 -15 -3 -5 2 -12 12 -16 20 -8 74 -62
74 -75 0 -5 5 -6 10 -3 6 3 17 -1 26 -9 8 -9 22 -16 30 -16 8 0 14 -5 14 -12
0 -6 3 -9 6 -5 4 3 19 0 35 -8 15 -8 39 -15 53 -15 13 0 26 -5 28 -11 5 -14
116 -18 122 -4 3 6 5 5 5 -1 1 -7 15 -9 39 -6 20 2 47 5 60 5 12 1 22 4 22 8
0 3 11 4 25 1 17 -3 25 0 25 9 0 11 2 11 10 -1 7 -11 10 -11 10 -2 0 7 5 10
10 7 6 -3 10 -2 10 2 0 5 19 10 43 11 64 3 77 6 77 13 0 4 12 7 28 7 15 0 41
3 57 7 17 3 38 7 48 8 9 1 17 5 17 9 0 4 5 8 11 8 5 0 7 -6 3 -12 -4 -7 1 -6
12 3 10 9 27 15 36 14 10 -2 16 2 15 8 -1 7 4 11 11 9 6 -1 12 3 12 9 0 5 5 7
10 4 6 -3 10 -1 10 5 0 6 5 8 10 5 6 -3 10 2 10 11 0 10 3 15 6 11 8 -8 33 16
27 26 -2 4 1 7 7 7 6 0 9 4 6 9 -3 5 1 14 9 21 8 7 12 16 9 21 -3 5 2 9 10 9
9 0 15 3 15 8 -3 20 2 32 13 26 6 -4 8 -3 4 4 -3 6 0 17 8 25 8 8 12 17 9 21
-3 3 1 14 10 24 10 10 14 22 10 25 -3 4 0 7 8 7 8 0 20 15 28 33 8 17 23 42
34 55 11 12 17 22 13 22 -4 0 -1 10 6 23 7 12 11 25 10 30 -1 4 2 7 7 7 5 0
12 11 15 25 4 16 11 23 18 19 6 -4 8 -3 4 4 -3 6 -2 13 3 17 6 3 8 12 4 20 -3
8 0 15 7 15 7 0 10 7 6 15 -3 8 -2 15 3 15 4 0 8 7 9 15 1 8 3 22 4 30 1 8 5
15 10 15 5 0 7 4 3 9 -3 5 -1 12 4 15 4 3 11 19 15 36 4 21 10 29 18 24 10 -5
10 -4 1 6 -10 11 -9 16 5 26 12 10 13 13 3 14 -9 0 -10 4 -4 13 6 6 11 19 12
27 3 45 7 66 15 79 7 10 5 12 -3 6 -10 -6 -11 -3 -2 13 6 11 8 28 4 38 -4 10
-2 15 4 11 5 -3 10 0 10 8 0 8 -5 15 -11 15 -6 0 -3 5 7 11 10 6 14 15 10 22
-10 16 -13 37 -4 37 6 0 12 53 11 100 -1 48 1 63 6 72 4 7 9 6 14 -1 4 -7 17
-13 28 -14 12 -1 22 -6 22 -12 0 -5 5 -3 10 5 6 10 10 11 10 3 0 -7 11 -13 24
-13 14 0 27 -4 31 -10 3 -5 12 -7 20 -3 8 3 15 0 15 -7 0 -6 5 -8 10 -5 6 3
10 1 10 -4 0 -6 14 -11 31 -11 17 0 28 -4 24 -10 -3 -5 3 -10 14 -10 11 0 23
-4 26 -10 3 -5 15 -10 25 -10 10 0 20 -6 23 -12 3 -8 8 -6 13 7 4 11 18 30 30
41 13 12 20 25 17 28 -4 3 -1 6 6 6 7 0 9 5 6 10 -3 6 -1 10 5 10 6 0 9 4 5 9
-3 6 3 15 14 20 10 6 22 22 25 36 4 14 11 25 17 25 6 0 8 4 5 9 -3 5 1 12 9
15 13 5 30 34 34 59 0 4 10 16 21 27 12 12 18 25 15 30 -4 6 1 10 10 10 9 0
14 4 10 9 -3 5 1 16 9 24 8 8 13 17 10 20 -3 2 2 7 10 10 10 4 14 0 11 -14 -2
-10 0 -19 4 -19 4 0 7 -12 7 -27 -1 -16 2 -36 7 -45 4 -10 4 -18 -1 -18 -5 0
-9 -7 -9 -15 0 -8 5 -15 11 -15 6 0 4 -5 -4 -10 -8 -5 -10 -10 -4 -10 5 0 9
-13 8 -30 -1 -16 1 -30 5 -30 4 0 7 -21 6 -46 0 -30 5 -48 13 -52 11 -4 11 -6
0 -13 -7 -5 -8 -9 -2 -9 11 0 13 -7 16 -65 1 -19 6 -35 12 -35 6 0 4 -5 -4
-10 -8 -5 -10 -10 -3 -10 6 0 10 -8 8 -17 -1 -10 2 -24 8 -30 6 -9 6 -13 -2
-13 -7 0 -8 -8 -3 -22 5 -13 7 -33 6 -45 0 -13 4 -23 10 -23 6 0 4 -5 -4 -10
-8 -5 -10 -10 -4 -10 7 0 11 -14 9 -32 -1 -18 2 -41 7 -50 6 -12 5 -18 -2 -18
-8 0 -8 -6 0 -20 6 -11 8 -25 5 -30 -3 -5 -1 -11 5 -15 5 -3 10 -11 10 -16 0
-6 -4 -8 -8 -5 -5 3 -9 -1 -9 -9 0 -8 4 -15 8 -15 5 0 6 -13 4 -30 -2 -16 0
-32 5 -35 4 -3 7 -13 5 -23 -1 -9 3 -23 9 -31 8 -11 8 -13 -1 -7 -7 4 -13 3
-13 -1 0 -5 6 -15 13 -22 10 -11 9 -12 -2 -6 -9 5 -7 -1 4 -19 13 -19 14 -26
4 -26 -10 0 -10 -3 -1 -12 14 -14 16 -32 2 -23 -6 3 -7 -1 -4 -9 3 -9 11 -16
16 -16 6 0 6 -6 -1 -14 -8 -10 -9 -16 -1 -21 6 -3 8 -11 5 -16 -4 -5 -1 -9 5
-9 8 0 8 -6 0 -20 -8 -15 -8 -20 1 -20 7 0 9 -3 6 -6 -4 -4 3 -15 15 -25 14
-13 17 -19 7 -20 -8 0 -4 -5 9 -11 12 -6 22 -19 22 -29 0 -9 6 -16 13 -15 23
3 38 18 33 31 -2 7 2 16 9 19 8 3 12 12 9 21 -3 8 -1 15 4 15 6 0 11 8 10 18
0 9 3 28 7 42 4 14 7 31 7 38 1 6 6 12 12 12 6 0 4 5 -4 10 -11 7 -11 10 -2
10 7 0 11 4 7 9 -3 5 -1 12 5 16 6 4 7 11 4 17 -4 6 0 14 7 19 12 7 12 9 0 9
-11 0 -10 4 5 16 10 8 13 13 7 9 -9 -4 -11 -1 -7 9 3 9 11 13 17 9 5 -3 7 -1
3 5 -3 6 -3 13 2 16 4 2 8 17 7 33 0 15 4 31 10 35 6 5 5 8 -3 8 -10 0 -9 4 3
16 13 14 14 19 3 25 -9 6 -10 9 -1 9 7 0 10 7 7 15 -4 8 -2 15 3 15 9 0 11 6
15 50 1 11 6 20 10 20 4 0 8 5 8 11 0 5 -5 7 -11 3 -6 -3 -4 4 4 17 8 13 13
32 12 41 -2 10 0 20 5 23 4 2 6 16 5 30 -2 14 0 25 4 25 5 0 7 16 6 35 -1 20
5 41 12 47 11 9 12 13 1 20 -10 6 -10 10 -1 16 7 4 13 22 15 40 1 18 5 32 8
32 3 0 6 15 7 33 1 17 4 46 8 62 3 17 8 48 11 69 3 22 9 47 13 55 5 9 7 24 6
34 -2 9 0 17 5 17 5 0 7 8 6 18 -2 9 2 20 8 25 8 5 6 10 -4 17 -8 5 -10 10 -4
10 6 0 11 6 12 13 4 26 10 62 12 62 3 0 10 56 11 78 0 9 5 17 11 17 6 0 8 9 5
20 -3 11 -1 20 5 20 5 0 6 5 3 10 -3 6 -3 16 2 23 4 6 9 19 10 27 2 8 6 29 9
45 3 17 6 40 7 53 1 12 4 22 7 22 3 0 6 9 7 20 1 13 -2 18 -10 14 -7 -4 -2 4
10 17 18 20 20 28 11 37 -8 8 -8 12 -1 12 5 0 9 12 9 28 -1 15 2 32 7 39 5 6
9 26 9 43 1 17 5 33 10 36 5 3 4 12 -3 20 -7 9 -7 14 -1 14 5 0 9 13 8 29 -1
17 1 28 5 25 4 -2 8 4 8 13 -1 32 8 57 19 61 7 2 12 -1 12 -8 0 -6 -6 -8 -12
-5 -7 4 -4 -1 6 -9 11 -9 17 -19 13 -22 -4 -4 -2 -13 4 -21 6 -7 9 -22 6 -33
-3 -11 -2 -20 2 -20 11 0 8 -44 -4 -52 -7 -5 -7 -8 0 -8 6 0 9 -19 8 -42 0
-24 4 -49 10 -57 9 -11 9 -13 1 -8 -9 5 -12 -66 -10 -278 0 -157 -2 -285 -5
-285 -3 0 -4 -42 -4 -92 1 -51 -2 -99 -8 -105 -6 -9 -5 -13 3 -13 10 0 10 -3
0 -15 -7 -8 -8 -15 -3 -15 10 0 10 -71 -1 -88 -3 -6 -1 -12 5 -14 9 -3 9 -10
-1 -27 -7 -15 -8 -21 -1 -17 13 9 14 4 2 -28 -7 -17 -7 -26 1 -28 8 -3 8 -10
1 -23 -6 -11 -7 -30 -3 -47 5 -17 5 -28 -1 -28 -6 0 -6 -6 0 -18 6 -11 6 -24
-1 -37 -8 -14 -8 -20 0 -23 7 -2 12 -8 12 -13 0 -6 -3 -8 -7 -6 -5 3 -8 -10
-8 -29 0 -19 4 -34 9 -34 5 0 3 -7 -5 -16 -10 -13 -10 -17 0 -24 11 -6 11 -9
0 -13 -11 -4 -11 -6 -1 -6 8 -1 10 -6 6 -13 -12 -19 -12 -48 -1 -48 5 0 3 -7
-4 -17 -11 -13 -11 -17 -1 -20 6 -3 12 -9 12 -14 0 -6 -4 -8 -8 -5 -10 6 -7
-68 4 -85 4 -8 3 -9 -4 -5 -7 4 -12 3 -12 -3 0 -5 5 -13 10 -16 7 -4 6 -14 -2
-28 -6 -12 -10 -24 -8 -27 11 -20 18 -50 11 -45 -6 3 -9 -4 -8 -15 1 -11 5
-20 10 -20 5 0 5 -6 -1 -13 -12 -14 -12 -24 -1 -55 6 -15 5 -21 -1 -17 -6 3
-10 2 -10 -4 0 -5 5 -13 10 -16 7 -4 7 -11 2 -18 -13 -17 -13 -117 0 -117 7 0
7 -4 1 -12 -5 -7 -9 -60 -8 -118 0 -58 -3 -111 -8 -117 -6 -8 -6 -13 1 -13 5
0 8 -9 5 -20 -3 -12 0 -20 7 -20 9 0 10 -3 1 -13 -6 -8 -8 -16 -5 -19 3 -3 7
-20 9 -37 3 -21 1 -29 -7 -25 -7 5 -8 2 -2 -7 5 -8 10 -61 11 -119 2 -58 4
-126 4 -152 1 -29 6 -45 12 -41 6 4 7 1 1 -8 -12 -19 -11 -42 1 -51 6 -5 5 -8
-4 -8 -11 0 -11 -3 0 -17 12 -15 12 -16 -1 -8 -13 8 -13 7 -1 -8 7 -9 11 -17
7 -17 -3 0 -1 -11 4 -25 7 -18 6 -25 -2 -25 -9 0 -9 -3 -1 -11 6 -6 9 -18 6
-25 -3 -8 0 -14 6 -14 6 0 8 -7 5 -15 -4 -10 0 -15 14 -15 14 0 24 10 32 35 6
19 16 35 21 35 6 0 8 4 5 9 -4 5 -3 11 1 13 14 6 56 106 49 116 -3 6 -2 12 4
14 5 1 11 14 12 28 2 14 8 31 15 38 6 7 10 21 8 32 -2 11 0 20 4 20 7 0 57
160 52 168 -1 1 6 16 15 33 11 23 12 29 2 23 -8 -5 -6 3 5 19 10 15 15 32 12
37 -3 6 -1 10 5 10 7 0 10 7 6 15 -3 8 0 15 6 15 6 0 5 6 -3 17 -10 11 -10 14
-1 9 7 -4 12 -2 13 6 0 7 3 22 5 33 2 11 5 28 6 38 1 9 5 17 8 17 7 0 8 9 11
55 1 13 4 23 8 21 4 -3 6 11 6 30 -1 19 2 34 6 34 4 0 10 7 13 16 4 9 2 13 -5
8 -8 -4 -7 0 0 15 7 12 9 26 6 31 -3 6 -1 10 5 10 7 0 9 7 6 16 -4 10 1 25 9
34 9 10 12 21 7 24 -6 3 -4 23 6 48 8 24 14 53 14 65 -1 12 3 25 8 28 6 3 10
11 10 16 0 6 -6 7 -12 3 -9 -6 -9 -3 0 9 8 9 11 21 7 27 -3 5 -2 10 4 10 5 0
8 16 7 35 -2 19 0 35 3 35 4 0 8 14 9 32 2 17 8 38 14 45 8 10 7 13 -3 13 -11
0 -11 2 1 10 12 8 12 10 1 10 -10 0 -11 3 -2 14 6 7 11 24 10 37 -1 26 3 48
12 64 3 6 5 27 4 48 0 20 3 37 7 37 4 0 7 8 6 18 0 18 6 49 18 84 4 15 3 18
-6 13 -7 -4 -5 3 4 17 9 13 18 40 20 59 3 18 5 34 6 34 1 0 3 12 4 27 2 15 8
33 14 41 9 10 9 16 0 25 -8 8 -7 13 6 18 14 5 15 9 4 15 -11 7 -11 9 1 9 11 0
11 3 0 17 -10 11 -10 14 -1 9 11 -7 18 26 14 76 -1 9 5 19 14 22 8 3 12 2 9
-3 -3 -5 -1 -12 5 -16 15 -9 12 -28 -2 -19 -7 4 -5 -1 4 -12 10 -11 18 -35 20
-53 1 -18 6 -35 10 -37 4 -3 8 -18 8 -35 0 -16 3 -29 8 -29 4 0 7 -16 8 -36 0
-20 7 -40 15 -45 12 -7 12 -9 -1 -9 -9 0 -11 -3 -5 -8 6 -4 11 -18 13 -32 6
-61 7 -68 14 -64 4 3 7 -4 6 -13 0 -30 11 -66 23 -74 8 -5 7 -8 -2 -12 -11 -4
-11 -6 -1 -6 7 -1 10 -5 7 -11 -3 -6 -1 -10 4 -10 6 0 10 -5 9 -12 -5 -23 27
-13 52 16 14 16 36 40 49 53 13 13 20 23 16 23 -5 0 0 7 11 15 10 8 15 15 10
15 -6 0 -1 7 10 16 10 8 12 13 4 9 -10 -4 -9 -2 2 8 10 8 15 17 11 20 -3 4 0
7 7 7 7 0 10 3 7 6 -4 4 3 15 15 25 11 11 17 19 12 19 -5 0 -4 4 1 8 12 8 41
51 45 67 2 6 10 16 19 23 13 11 13 12 1 7 -12 -5 -12 -4 1 7 9 7 17 18 18 23
2 6 7 9 12 7 5 -1 8 1 8 5 -4 22 2 33 13 27 7 -5 9 -2 5 8 -3 9 2 23 13 33 11
10 17 22 14 26 -3 5 0 9 5 9 6 0 11 7 11 15 0 8 5 15 11 15 5 0 8 4 5 8 -3 5
5 20 17 34 12 14 29 36 37 48 8 12 25 26 38 31 35 14 18 26 -33 24 -25 -1 -48
2 -51 6 -3 5 -10 7 -15 3 -6 -3 -19 2 -29 11 -18 16 -20 16 -26 1 -3 -9 -10
-13 -15 -11 -5 3 -11 -6 -15 -20 -3 -13 -10 -22 -15 -19 -5 3 -9 1 -9 -4 0 -5
-9 -19 -20 -32 -11 -12 -17 -27 -13 -33 3 -5 2 -8 -3 -5 -9 5 -43 -25 -45 -39
-1 -5 -5 -7 -11 -5 -5 1 -7 -2 -3 -8 3 -5 -5 -22 -19 -37 -14 -15 -23 -30 -20
-35 3 -4 0 -8 -5 -8 -6 0 -11 -7 -11 -15 0 -8 -7 -15 -16 -15 -8 0 -13 4 -9 9
3 5 -2 16 -10 24 -10 10 -11 17 -4 19 8 3 7 8 -2 18 -8 8 -15 28 -16 44 -1 16
-6 32 -10 35 -4 3 -10 15 -11 26 -2 11 -8 22 -13 23 -5 2 -9 14 -9 26 0 12 -6
28 -12 35 -11 11 -10 13 2 7 9 -5 9 -2 -2 7 -10 8 -15 17 -11 20 3 4 1 13 -5
20 -7 8 -9 17 -5 20 3 4 1 7 -5 7 -7 0 -12 5 -12 11 0 5 6 7 13 3 6 -4 4 2 -5
13 -10 11 -18 27 -18 36 0 9 -5 17 -11 17 -5 0 -8 4 -5 8 3 5 -2 21 -10 37
-10 20 -11 30 -3 35 7 5 6 9 -5 13 -9 4 -13 14 -11 27 3 13 0 18 -7 14 -7 -5
-9 -1 -5 9 3 10 2 17 -4 17 -6 0 -8 4 -5 9 7 11 -19 63 -27 54 -4 -3 -7 -1 -7
7 0 10 -3 10 -14 1 -10 -9 -16 -9 -21 -1 -5 8 -11 8 -19 1 -9 -7 -16 -7 -23 0
-8 8 -14 5 -23 -10 -6 -12 -16 -19 -22 -15 -7 5 -7 1 0 -12 6 -11 7 -27 1 -41
-5 -13 -6 -23 -3 -23 4 0 2 -6 -5 -13 -8 -10 -7 -17 1 -25 9 -9 9 -12 0 -12
-14 0 -12 -21 3 -32 6 -5 6 -8 -1 -8 -6 0 -11 -10 -10 -22 1 -13 -3 -26 -9
-30 -6 -5 -5 -8 3 -8 7 0 10 -5 7 -10 -4 -6 -11 -7 -17 -4 -7 5 -8 2 -3 -7 11
-17 14 -49 4 -49 -4 0 -6 -16 -5 -35 1 -19 -3 -35 -9 -35 -5 0 -3 -5 5 -10 12
-7 12 -10 1 -10 -7 0 -11 -6 -7 -15 3 -8 1 -15 -4 -15 -5 0 -8 -18 -7 -39 1
-22 0 -38 -4 -35 -4 2 -9 -10 -11 -26 -3 -17 0 -30 6 -30 7 0 7 -3 0 -8 -7 -4
-14 -18 -15 -32 -2 -14 -8 -28 -14 -32 -6 -5 -6 -8 2 -8 11 0 2 -41 -18 -82
-6 -12 -5 -18 1 -18 7 0 8 -6 0 -19 -5 -11 -10 -29 -10 -40 0 -12 -4 -21 -8
-21 -4 0 -8 -9 -8 -20 0 -11 5 -20 11 -20 6 0 5 -3 -1 -8 -7 -4 -14 -18 -15
-32 -2 -14 -8 -28 -14 -32 -6 -5 -5 -8 3 -8 10 0 10 -6 -1 -27 -8 -16 -12 -34
-10 -40 3 -7 0 -13 -6 -13 -5 0 -8 -9 -6 -20 2 -11 1 -20 -3 -20 -4 0 -8 -14
-9 -32 -1 -17 -8 -35 -15 -40 -10 -6 -10 -8 2 -8 11 -1 10 -4 -4 -15 -11 -8
-14 -15 -7 -15 7 0 9 -4 6 -10 -3 -5 -8 -20 -10 -32 -3 -12 -10 -25 -16 -29
-8 -5 -8 -8 0 -14 9 -5 9 -10 0 -21 -6 -8 -8 -14 -4 -14 4 0 2 -7 -5 -15 -7
-8 -9 -15 -5 -15 4 0 3 -6 -2 -12 -6 -7 -9 -23 -8 -35 1 -13 -2 -23 -7 -23 -4
0 -8 -11 -8 -25 0 -14 -4 -25 -9 -25 -6 0 -8 -9 -6 -20 2 -11 0 -22 -5 -25 -5
-3 -7 -11 -4 -18 2 -7 -4 -17 -15 -24 -18 -11 -19 -10 -11 17 5 17 5 30 1 30
-4 0 -7 23 -6 50 1 28 -2 50 -7 50 -5 0 -6 6 -1 13 10 16 12 77 2 77 -4 0 -6
8 -4 18 2 9 4 17 5 17 1 0 3 12 4 28 2 15 -2 27 -8 27 -7 0 -8 3 -1 8 12 8 13
22 2 40 -5 6 -4 12 0 12 5 0 9 9 9 20 0 11 -4 20 -9 20 -4 0 -5 6 0 12 10 17
13 68 4 68 -3 0 -7 36 -7 79 0 49 4 77 9 74 6 -4 7 -1 1 8 -13 20 -13 191 0
208 9 12 8 13 -3 6 -11 -6 -12 -5 -5 6 11 18 13 209 2 231 -4 9 -4 19 0 22 10
6 9 157 -1 173 -4 6 -3 14 1 17 5 3 8 29 7 58 0 29 3 59 8 66 6 7 6 12 -1 12
-12 0 -9 100 3 120 5 8 4 11 -2 7 -7 -4 -10 12 -8 46 2 28 -2 60 -7 71 -6 10
-6 16 -1 13 5 -3 9 56 8 141 0 87 3 153 10 161 7 11 7 13 -3 7 -9 -6 -11 -1
-8 18 3 14 0 28 -5 32 -5 3 -6 11 -2 17 13 20 11 437 -1 430 -6 -4 -5 1 3 10
7 9 9 17 4 17 -6 0 -9 20 -8 45 2 32 0 43 -8 38 -9 -5 -9 -3 -1 8 9 13 11 112
4 240 -2 30 0 61 4 67 4 7 2 12 -3 12 -6 0 -11 5 -11 11 0 5 6 7 13 3 8 -5 8
-2 -2 9 -10 13 -10 17 -1 17 10 0 10 3 0 15 -10 12 -10 15 0 15 9 0 10 3 1 13
-8 10 -7 17 1 25 9 9 9 12 0 12 -7 0 -12 5 -12 11 0 5 5 7 11 3 6 -3 3 8 -6
26 -9 18 -12 29 -5 25 9 -5 10 -2 3 11 -10 22 -10 44 -1 59 3 6 0 16 -8 23
-13 11 -16 8 -13 -14 0 -4 -4 -10 -10 -14 -6 -3 -13 -17 -16 -29 -2 -13 -9
-29 -15 -36 -5 -6 -11 -24 -12 -39 -1 -14 -7 -26 -12 -26 -5 0 -7 -3 -3 -6 3
-4 0 -22 -8 -41 -8 -20 -15 -44 -15 -54 0 -9 -7 -24 -15 -33 -9 -8 -16 -18
-15 -21 0 -3 -1 -7 -1 -10 -1 -3 -3 -9 -4 -15 -1 -5 -3 -22 -4 -36 0 -14 -5
-23 -9 -20 -4 2 -7 -11 -7 -29 1 -19 -2 -32 -7 -29 -7 5 -12 -18 -9 -38 0 -5
-4 -8 -9 -8 -6 0 -10 -6 -9 -12 1 -7 -1 -25 -5 -39 -4 -14 -8 -32 -9 -40 -2
-8 -6 -20 -10 -26 -5 -7 -5 -13 -1 -13 4 0 -1 -10 -12 -22 -12 -13 -13 -18 -4
-13 13 8 13 7 1 -8 -8 -10 -11 -20 -7 -24 3 -3 -2 -15 -11 -26 -11 -12 -12
-17 -4 -12 10 6 12 4 5 -6 -4 -8 -10 -20 -11 -26 -7 -33 -12 -48 -14 -48 -2 0
-9 -40 -12 -67 -1 -10 -5 -18 -9 -18 -4 0 -8 -9 -8 -21 0 -11 -4 -18 -8 -15
-4 3 -7 -8 -6 -25 1 -16 -3 -29 -8 -29 -6 0 -5 -6 2 -15 7 -9 8 -15 2 -15 -5
0 -13 -7 -16 -16 -4 -9 -2 -13 5 -8 8 4 8 1 1 -12 -12 -22 -12 -24 -12 -65 0
-17 -4 -28 -10 -24 -5 3 -10 2 -10 -4 0 -5 4 -11 10 -13 6 -2 5 -13 -4 -29 -7
-14 -12 -33 -10 -42 1 -9 -2 -17 -8 -17 -6 0 -8 -7 -4 -15 3 -8 2 -15 -3 -15
-4 0 -7 -18 -5 -40 1 -22 -2 -43 -7 -46 -6 -3 -6 -11 2 -20 9 -11 8 -15 -2
-19 -9 -3 -14 -21 -14 -48 0 -23 -2 -46 -5 -52 -3 -5 -6 -21 -6 -35 -1 -14 -3
-26 -4 -27 -1 -2 -4 -7 -5 -13 -1 -5 -3 -11 -4 -12 -1 -2 -4 -23 -7 -47 -2
-24 -8 -49 -13 -55 -5 -6 -7 -19 -6 -28 2 -10 0 -18 -5 -18 -4 0 -6 -10 -2
-22 3 -14 1 -19 -6 -14 -7 4 -9 -2 -6 -19 2 -14 0 -25 -6 -25 -6 0 -8 -4 -5
-10 3 -5 1 -10 -6 -10 -8 0 -8 -4 2 -16 10 -13 10 -17 -1 -24 -8 -5 -11 -12
-8 -16 4 -3 1 -19 -7 -34 -11 -22 -12 -29 -2 -33 9 -3 7 -9 -5 -24 -14 -15
-15 -22 -6 -31 8 -8 9 -12 1 -12 -6 0 -9 -9 -6 -20 3 -12 0 -20 -8 -20 -7 0
-10 -3 -7 -6 4 -3 2 -20 -3 -37 -6 -18 -12 -47 -14 -65 -3 -18 -9 -41 -15 -51
-6 -12 -5 -22 1 -28 8 -8 7 -13 0 -17 -6 -4 -11 -16 -11 -27 0 -10 -6 -19 -12
-19 -10 0 -9 -3 1 -9 9 -6 10 -11 3 -15 -6 -4 -9 -13 -5 -21 3 -8 1 -15 -3
-15 -5 0 -10 -10 -11 -23 -1 -12 -4 -31 -7 -42 -2 -11 -5 -28 -5 -38 -1 -15
-3 -16 -15 -5 -7 7 -11 19 -8 27 3 8 1 12 -4 9 -9 -6 -13 18 -15 80 0 17 -4
32 -9 32 -5 0 -8 18 -6 40 2 22 0 43 -5 46 -4 2 -6 11 -3 18 3 8 0 17 -6 21
-8 5 -8 11 1 21 9 11 9 14 -1 14 -9 0 -9 4 1 17 8 9 9 14 3 10 -7 -4 -11 4
-12 21 -2 34 -10 73 -17 80 -2 3 0 11 6 19 8 9 8 13 1 13 -6 0 -9 6 -6 14 3 8
0 17 -6 21 -9 6 -9 10 1 16 11 7 11 9 -1 9 -13 0 -13 1 0 10 11 7 11 10 2 10
-7 0 -10 5 -6 11 3 6 0 15 -7 20 -11 7 -11 9 -1 9 8 0 10 5 5 13 -8 14 -11 28
-15 75 -1 17 -5 32 -8 32 -3 0 -6 9 -7 20 -1 13 2 18 10 13 7 -4 7 -1 -1 10
-8 9 -11 20 -8 25 3 5 -1 20 -9 35 -8 17 -10 29 -4 33 6 4 6 11 -2 20 -9 11
-8 14 2 14 9 0 10 3 4 8 -11 8 -14 27 -17 119 -2 34 -6 59 -10 57 -4 -2 -3 9
2 26 5 19 5 30 -1 30 -6 0 -6 7 0 18 7 13 7 22 0 29 -5 5 -11 26 -12 46 -1 21
-6 37 -11 37 -5 0 -3 6 3 14 9 10 8 15 -4 19 -16 7 -35 -20 -35 -48 0 -10 -5
-13 -12 -9 -8 5 -9 2 -5 -10 4 -10 1 -19 -8 -22 -8 -4 -13 -10 -10 -14 3 -5 1
-11 -5 -15 -6 -4 -8 -10 -5 -15 2 -4 -7 -24 -20 -45 -14 -20 -21 -34 -15 -30
6 3 7 0 4 -9 -3 -9 -9 -16 -13 -16 -4 0 -8 -6 -8 -12 -1 -25 -8 -43 -23 -56
-8 -8 -9 -11 -2 -7 19 10 14 -2 -10 -26 -13 -12 -16 -18 -8 -14 13 8 13 7 0
-10 -8 -10 -14 -20 -12 -22 1 -2 -5 -17 -13 -33 -9 -17 -13 -30 -9 -30 3 0 -4
-9 -17 -21 -13 -11 -17 -17 -9 -13 8 4 5 -4 -7 -18 -13 -13 -23 -29 -23 -36 0
-6 -9 -27 -20 -47 -11 -20 -20 -42 -20 -50 0 -8 -4 -15 -8 -15 -4 0 -8 -9 -9
-19 -1 -11 -10 -37 -21 -58 -10 -22 -18 -47 -16 -56 1 -10 -2 -17 -7 -17 -6 0
-8 -4 -5 -8 2 -4 -4 -13 -15 -20 -11 -7 -19 -8 -19 -2 0 5 -3 9 -7 8 -16 -3
-69 15 -87 31 -15 12 -17 12 -11 2 5 -10 -2 -7 -21 5 -35 25 -110 55 -117 48
-3 -3 -5 8 -3 25 1 17 5 33 9 37 3 4 2 15 -4 25 -5 11 -6 19 -2 19 5 0 8 17 8
38 -2 49 5 73 17 66 7 -5 7 -1 0 11 -5 11 -6 30 -2 47 6 19 5 28 -3 28 -7 0
-3 7 8 16 16 12 17 16 6 23 -11 7 -11 9 0 14 12 5 12 6 0 6 -11 1 -11 4 0 18
11 13 11 17 2 20 -9 3 -10 10 -3 23 7 13 6 20 -3 23 -9 4 -9 6 1 6 8 1 10 6 5
14 -4 6 -8 65 -9 129 -1 64 -5 122 -10 129 -4 7 -3 10 3 6 6 -4 11 4 11 18 0
14 -3 23 -7 21 -3 -3 -5 13 -3 35 3 24 0 39 -7 39 -6 0 -11 6 -11 14 0 9 -7
12 -20 9 -12 -3 -20 0 -20 6 0 7 -4 10 -9 6 -5 -3 -13 0 -16 6 -4 5 -13 8 -21
5 -8 -3 -14 -1 -14 4 0 6 -6 10 -14 10 -8 0 -16 5 -18 10 -2 6 -13 12 -26 13
-12 0 -22 5 -22 9 0 4 -5 8 -11 8 -5 0 -7 -6 -4 -12 4 -7 1 -6 -7 3 -7 9 -19
14 -25 12 -7 -3 -13 1 -13 8 0 7 -3 10 -6 6 -4 -3 -19 0 -34 8 -15 8 -30 11
-34 8 -3 -4 -6 -1 -6 6 0 7 -4 9 -10 6 -5 -3 -10 0 -10 8 0 7 -9 23 -19 34
-11 12 -17 24 -14 27 4 3 1 6 -5 6 -7 0 -12 3 -11 8 2 15 -14 52 -22 52 -5 0
-9 7 -9 15 0 7 -8 18 -17 24 -10 5 -15 13 -11 16 10 10 -41 56 -89 81 -30 16
-44 19 -52 11 -8 -8 -11 -7 -11 4 -1 12 -2 12 -13 -1 -7 -8 -20 -16 -29 -18
-16 -3 -22 12 -17 44 0 4 -5 11 -13 15 -8 6 -9 9 -1 9 6 0 10 6 9 13 -3 18
-24 52 -30 50 -3 -2 -23 -3 -44 -3 -27 0 -41 6 -50 21 -10 15 -10 19 -1 14 8
-6 10 -4 3 6 -5 8 -9 32 -10 54 -1 22 -4 47 -7 55 -3 8 -5 22 -6 30 0 8 -3 47
-7 85 -3 39 -7 79 -8 90 -1 11 -6 26 -10 34 -7 11 -6 12 5 6 12 -8 12 -6 0 8
-7 9 -10 17 -7 17 4 0 2 8 -3 18 -7 13 -6 23 1 30 9 9 9 12 0 12 -6 0 -9 7 -6
15 4 8 1 15 -5 15 -7 0 -7 8 -1 26 6 15 6 23 1 19 -6 -3 -10 3 -10 12 -1 30
-7 62 -13 69 -3 3 -5 -8 -4 -25 1 -17 -3 -33 -8 -35 -7 -3 -7 -5 1 -5 6 -1 9
-10 6 -21 -3 -11 -10 -17 -17 -13 -8 5 -8 3 0 -8 12 -14 13 -47 2 -64 -10 -17
-13 -69 -4 -84 6 -10 5 -12 -2 -7 -16 9 -15 -7 0 -22 7 -7 8 -12 2 -12 -5 0
-9 -22 -8 -50 0 -27 -4 -50 -8 -50 -5 0 -4 -8 1 -19 6 -10 8 -21 5 -24 -11
-11 -11 -42 0 -49 6 -4 -2 -6 -17 -4 -15 1 -30 6 -34 9 -3 4 -16 7 -29 7 -12
0 -25 6 -27 13 -4 9 -6 9 -6 -1 -1 -9 -6 -10 -20 -2 -15 7 -23 6 -34 -5 -8 -8
-17 -11 -21 -8 -3 4 -6 2 -6 -4 0 -6 -9 -13 -21 -16 -12 -3 -18 -10 -15 -15 3
-6 -1 -13 -10 -16 -9 -4 -14 -13 -10 -21 3 -8 1 -15 -5 -15 -5 0 -15 -13 -20
-30 -6 -16 -15 -27 -20 -24 -5 3 -9 2 -10 -3 -3 -30 -11 -58 -19 -63 -5 -3
-11 -18 -14 -34 -3 -16 -10 -32 -16 -36 -7 -4 -11 -10 -11 -14 3 -20 0 -26 -9
-21 -5 3 -10 2 -10 -4 0 -13 -33 -7 -38 7 -2 7 -10 12 -18 12 -8 0 -14 3 -14
8 0 4 -13 14 -28 23 -27 15 -40 49 -19 49 5 0 4 7 -3 15 -10 12 -10 15 1 15
12 0 12 2 0 9 -8 5 -9 10 -3 12 6 2 13 18 16 34 2 17 5 30 6 30 2 0 4 14 5 30
2 17 4 31 5 33 1 1 4 7 5 12 1 6 4 13 5 18 7 24 4 139 -5 151 -7 10 -7 13 1 8
7 -4 10 11 10 43 -1 28 -5 50 -10 50 -5 0 -3 7 5 16 7 9 9 18 3 22 -12 9 -14
42 -3 42 5 0 2 11 -7 25 -12 19 -13 25 -3 25 8 0 5 6 -7 14 -10 8 -16 18 -12
21 4 4 2 17 -4 29 -11 20 -19 61 -19 99 0 9 -4 17 -7 17 -7 0 -11 16 -14 57
-1 7 -8 15 -16 18 -11 4 -12 8 -2 20 10 12 10 15 0 15 -8 0 -11 3 -7 6 3 4 -1
13 -9 21 -8 8 -12 19 -9 24 4 5 1 9 -4 9 -6 0 -11 8 -11 18 0 10 -7 28 -16 40
-8 12 -12 22 -7 22 4 0 -3 7 -15 16 -12 8 -22 22 -22 30 0 8 -4 14 -10 14 -5
0 -10 5 -10 12 0 6 -17 28 -37 48 -21 21 -44 46 -51 56 -7 11 -10 12 -7 4 4
-8 -1 -6 -9 4 -9 11 -16 23 -16 28 0 4 -6 8 -14 8 -13 0 -31 27 -28 42 1 4 -7
10 -18 13 -11 4 -18 11 -15 16 4 5 1 9 -5 9 -14 0 -41 26 -35 34 3 3 2 4 -1 1
-4 -2 -25 11 -47 30 -22 19 -45 35 -49 35 -5 0 -7 4 -4 8 3 5 -10 16 -29 25
-19 9 -35 24 -35 32 0 9 -5 13 -10 10 -6 -3 -13 1 -16 9 -3 9 -11 16 -16 16
-6 0 -19 10 -29 22 -11 11 -19 18 -19 14 0 -4 -10 3 -22 14 -13 12 -38 28 -56
37 -18 9 -30 18 -27 22 3 3 -9 11 -27 17 -18 6 -32 17 -30 23 1 6 -4 10 -10 9
-7 -2 -12 3 -10 10 1 6 -3 12 -8 12 -15 0 -60 47 -53 54 4 3 -1 6 -10 6 -9 0
-17 4 -17 10 0 9 -11 24 -45 64 -23 27 -52 73 -64 104 -8 17 -17 32 -22 32 -5
0 -6 7 -3 15 4 8 1 15 -6 15 -6 0 -8 5 -5 10 3 6 3 10 -2 10 -9 0 -39 61 -35
73 1 5 -2 6 -8 2 -5 -3 -10 -1 -10 5 0 6 -16 32 -35 57 -19 25 -32 50 -28 56
3 5 2 8 -3 5 -10 -6 -38 22 -42 43 -2 8 -10 19 -18 25 -7 6 -14 16 -14 23 0 6
-4 11 -10 11 -5 0 -10 6 -10 14 0 8 -7 17 -16 20 -8 3 -13 9 -11 13 5 9 -18
34 -25 27 -3 -2 -11 7 -18 21 -7 14 -17 25 -22 25 -4 0 -8 6 -8 14 0 7 -12 22
-27 32 -15 9 -53 44 -85 76 -31 32 -64 58 -72 58 -9 0 -16 6 -16 13 0 7 -22
23 -50 36 -27 13 -50 28 -50 32 0 5 -3 8 -7 7 -13 -3 -93 42 -93 52 0 5 -9 7
-20 5 -11 -2 -20 0 -20 6 0 5 -9 9 -19 9 -10 0 -21 6 -24 14 -3 8 -19 17 -36
21 -17 4 -31 11 -31 16 0 5 -7 9 -16 9 -8 0 -35 11 -58 25 -24 14 -46 22 -49
18 -4 -3 -7 -1 -7 5 0 7 -11 12 -25 12 -14 0 -25 4 -25 8 0 4 -8 8 -17 8 -25
1 -47 8 -53 16 -3 4 -22 8 -43 10 -20 1 -37 5 -37 8 0 7 -13 10 -65 13 -19 1
-35 5 -35 8 0 8 -4 8 -150 9 -123 0 -171 -3 -185 -12 -6 -4 -17 -3 -25 2 -10
6 -21 3 -33 -8 -11 -9 -21 -16 -23 -14 -10 6 -45 1 -40 -6 2 -4 -6 -9 -20 -10
-46 -3 -54 -5 -54 -13 0 -5 -7 -6 -15 -3 -8 4 -15 1 -15 -5 0 -6 -3 -10 -7
-10 -25 4 -54 -3 -67 -17 -9 -8 -16 -12 -16 -8 0 3 -6 1 -13 -5 -8 -6 -17 -8
-20 -4 -4 3 -7 0 -7 -7 0 -7 -3 -11 -6 -7 -4 3 -19 0 -35 -9 -16 -8 -31 -13
-34 -12 -2 2 -13 -5 -25 -14 -11 -10 -20 -15 -20 -12 0 3 -7 -2 -16 -10 -8 -9
-24 -16 -35 -16 -11 0 -18 -4 -15 -9 5 -7 -67 -46 -86 -46 -4 0 -9 -4 -10 -10
-1 -5 -19 -18 -40 -27 -21 -9 -38 -22 -38 -28 0 -6 -4 -9 -9 -6 -4 3 -16 -3
-26 -14 -10 -11 -24 -16 -33 -13 -10 4 -13 2 -8 -5 4 -7 2 -12 -4 -12 -6 0 -8
-5 -4 -12 4 -6 3 -8 -3 -5 -11 7 -95 -67 -87 -76 3 -2 -3 -10 -13 -18 -14 -12
-16 -12 -8 0 4 7 -6 3 -23 -9 -17 -13 -29 -27 -26 -32 3 -4 -2 -8 -10 -8 -9 0
-16 -4 -16 -8 0 -10 -67 -82 -72 -77 -2 2 -10 -5 -17 -17 -8 -14 -9 -18 -1
-13 7 4 4 -4 -5 -19 -10 -14 -21 -26 -26 -26 -5 0 -8 -3 -7 -7 3 -15 -14 -43
-23 -37 -5 3 -8 1 -7 -4 2 -5 -9 -24 -24 -41 -16 -17 -28 -33 -28 -37 0 -3 -7
-12 -15 -21 -8 -8 -12 -20 -8 -26 4 -6 0 -8 -10 -4 -9 3 -16 3 -15 -1 2 -11
-14 -46 -29 -60 -7 -8 -11 -17 -8 -22 3 -4 -2 -11 -10 -14 -8 -3 -14 -11 -13
-18 2 -7 -3 -12 -10 -10 -6 1 -11 -1 -11 -5 3 -19 -3 -31 -33 -65 -48 -54 -63
-72 -63 -78 0 -3 -10 -15 -22 -27 -13 -13 -23 -20 -23 -17 0 3 -16 -14 -36
-38 -41 -48 -84 -90 -84 -81 0 3 -10 -5 -23 -18 -13 -13 -29 -25 -37 -27 -7
-2 -20 -11 -28 -20 -9 -11 -11 -12 -6 -2 4 8 -6 3 -22 -11 -16 -14 -37 -29
-46 -32 -10 -4 -18 -11 -18 -17 0 -5 -4 -10 -10 -10 -15 0 -50 -33 -44 -42 3
-4 -1 -8 -8 -8 -11 0 -29 -13 -110 -85 -10 -8 -18 -12 -18 -9 0 8 -31 -24 -31
-33 0 -4 -11 -14 -25 -21 -13 -7 -24 -17 -24 -23 0 -6 -5 -7 -12 -3 -7 4 -8 3
-4 -5 4 -6 0 -14 -8 -17 -9 -3 -14 -9 -12 -13 3 -4 -12 -26 -33 -49 -21 -23
-36 -44 -33 -47 3 -3 -1 -5 -8 -5 -7 0 -10 -3 -7 -7 4 -3 -2 -13 -13 -20 -11
-8 -18 -18 -15 -23 3 -4 -2 -11 -11 -14 -8 -3 -12 -10 -9 -16 3 -6 -1 -13 -9
-16 -9 -3 -16 -12 -16 -20 0 -8 -5 -14 -12 -14 -6 0 -9 -3 -5 -6 3 -4 -4 -15
-16 -26 -12 -11 -16 -17 -9 -13 6 3 12 1 12 -4 0 -6 -4 -11 -10 -11 -5 0 -10
-7 -10 -15 0 -8 -4 -15 -9 -15 -5 0 -12 -14 -16 -30 -4 -17 -10 -28 -13 -26
-4 2 -8 -7 -8 -20 -1 -13 -9 -30 -17 -39 -9 -8 -14 -24 -12 -36 2 -11 -2 -22
-9 -25 -8 -3 -12 -14 -8 -26 3 -12 1 -19 -4 -15 -5 3 -10 -2 -10 -11 -1 -9 -5
-30 -9 -47 -4 -16 -7 -38 -8 -47 -1 -10 -4 -18 -7 -18 -3 0 -6 -18 -5 -40 1
-22 -3 -40 -7 -40 -5 0 -6 -11 -4 -24 2 -13 -2 -36 -9 -50 -10 -19 -11 -24 -2
-19 7 4 7 0 -2 -10 -7 -10 -9 -17 -3 -17 11 0 11 -18 -1 -37 -4 -6 -3 -14 3
-18 5 -3 10 -11 10 -16 0 -6 -6 -7 -12 -3 -10 6 -10 4 -2 -7 6 -8 10 -24 8
-36 -2 -13 0 -23 5 -23 4 0 6 -12 3 -26 -3 -16 1 -30 9 -35 8 -5 9 -9 4 -9 -6
0 -11 -9 -11 -20 0 -11 4 -20 8 -20 4 0 8 -9 8 -20 0 -11 5 -20 10 -20 6 0 10
-6 10 -13 0 -7 9 -19 19 -27 11 -7 18 -17 15 -22 -3 -4 0 -8 6 -8 19 0 40 -28
34 -44 -3 -9 -10 -13 -15 -10 -5 3 -9 0 -9 -7 0 -7 -11 -27 -25 -44 -13 -18
-21 -35 -18 -39 4 -3 1 -6 -5 -6 -7 0 -11 -6 -9 -12 1 -7 -4 -12 -12 -10 -9 2
-11 -3 -7 -15 6 -14 4 -15 -5 -6 -6 6 -12 34 -12 61 0 39 -3 49 -16 49 -34 0
-41 3 -41 18 0 8 -5 14 -12 12 -7 -1 -17 8 -23 21 -5 12 -13 22 -18 22 -4 0
-6 4 -3 9 3 4 -11 21 -31 37 -19 16 -43 37 -52 47 -8 9 -19 17 -24 17 -10 0
-37 26 -37 35 0 4 -10 16 -22 27 -13 11 -16 16 -8 12 10 -5 9 0 -4 14 -20 23
-32 30 -21 12 3 -5 -2 -10 -12 -10 -15 0 -16 -2 -3 -10 10 -6 11 -10 3 -10 -7
0 -13 -8 -13 -17 0 -14 -2 -15 -9 -5 -4 7 -18 14 -29 15 -12 1 -22 7 -22 14 0
7 -4 13 -8 13 -15 0 -52 37 -45 44 3 3 1 6 -6 6 -19 0 -44 29 -37 45 3 8 1 17
-4 20 -5 3 -7 12 -3 20 3 8 0 15 -6 15 -13 0 -10 42 4 52 6 5 6 8 -2 8 -15 0
-5 41 14 57 10 7 11 13 3 18 -5 3 -8 11 -5 16 4 5 -1 9 -10 9 -9 0 -14 4 -10
9 3 5 -2 17 -11 25 -8 9 -11 16 -6 16 5 0 12 9 15 20 3 11 2 18 -3 15 -4 -3
-11 2 -14 11 -3 8 -2 12 4 9 14 -9 12 8 -2 24 -10 11 -10 13 0 7 8 -5 12 1 12
19 0 15 5 36 11 47 8 16 8 19 -1 13 -9 -6 -9 -3 -2 12 7 11 7 25 1 35 -6 11
-5 19 2 24 8 5 8 9 -1 14 -8 5 -1 11 19 18 22 8 30 8 25 1 -4 -8 1 -9 17 -4
31 10 29 5 33 63 2 35 -1 49 -8 45 -6 -4 -5 0 1 9 7 8 10 18 6 21 -3 4 -1 7 6
7 8 0 9 5 1 19 -7 15 -6 23 5 35 18 17 20 30 3 20 -8 -5 -9 -2 -4 12 9 21 12
35 20 90 4 21 12 42 19 46 7 5 8 8 1 8 -9 0 -12 38 -4 48 2 1 3 6 4 11 0 5 4
13 8 17 4 4 3 13 -3 20 -9 10 -7 15 5 20 9 3 14 10 11 15 -3 4 1 24 9 43 8 19
12 37 8 40 -3 3 -1 6 5 6 9 0 13 13 14 53 0 9 4 17 9 17 4 0 7 8 5 18 -1 9 2
23 8 30 5 6 6 12 2 12 -5 0 0 10 11 22 10 12 13 18 5 13 -11 -6 -11 -3 2 14 8
13 13 29 11 36 -3 7 2 15 10 18 9 4 13 13 10 22 -4 8 0 17 9 21 9 3 13 12 10
20 -3 8 0 14 7 14 6 0 9 4 6 9 -4 5 0 12 6 14 10 4 10 6 0 6 -10 1 -10 5 2 17
9 8 14 20 11 25 -4 5 -1 9 6 9 7 0 9 3 6 6 -9 9 12 46 23 39 4 -3 6 4 3 15 -4
13 1 26 13 35 11 8 16 15 11 15 -4 0 -1 13 7 29 9 16 12 31 9 35 -4 3 -1 6 6
6 7 0 9 5 6 10 -3 6 1 13 9 16 9 3 13 10 10 15 -7 11 21 51 29 42 4 -3 7 3 7
15 0 12 4 22 9 22 5 0 11 9 14 21 3 12 10 18 16 14 6 -3 9 0 6 7 -3 8 4 24 16
36 11 13 22 29 23 36 1 7 9 21 19 30 9 10 17 23 17 30 0 7 10 23 23 36 12 14
21 28 19 32 -1 5 2 8 8 8 5 0 10 6 10 14 0 7 12 22 26 32 14 10 36 36 48 57
13 21 26 38 30 38 3 -1 6 1 7 3 2 13 69 76 81 76 10 0 9 3 -2 10 -12 8 -12 10
-1 10 7 0 24 11 37 25 13 14 20 25 17 25 -3 0 13 18 36 40 22 22 46 40 53 40
6 0 9 3 5 6 -3 3 7 18 23 32 15 15 46 44 68 65 21 20 44 37 51 37 6 0 11 5 11
12 0 6 3 9 6 6 3 -3 18 6 33 20 37 36 74 66 86 72 6 3 9 9 7 13 -1 5 2 6 7 3
5 -4 16 0 24 8 8 8 17 13 20 10 3 -3 8 4 12 15 3 11 15 23 26 26 10 4 19 11
19 16 0 6 4 8 8 5 4 -2 27 9 51 25 25 16 46 27 49 25 2 -3 11 2 19 10 8 8 19
12 24 9 5 -4 9 1 9 10 0 9 5 13 10 10 6 -3 10 -1 10 5 0 6 5 8 10 5 6 -3 10
-1 10 4 0 6 5 11 11 11 6 0 27 12 47 28 20 15 32 20 28 12 -5 -8 1 -5 13 8 12
12 26 20 32 17 5 -4 9 -1 9 6 0 7 3 10 6 6 4 -3 13 1 21 9 8 8 19 12 24 9 5
-4 9 -1 9 5 0 6 4 9 9 5 5 -3 12 -1 16 5 4 6 11 8 16 5 5 -4 9 -2 9 2 0 5 14
17 31 27 18 11 29 14 25 8 -3 -6 11 -2 31 8 21 10 41 16 45 13 5 -2 8 1 8 6 0
6 9 11 19 11 10 0 22 8 25 17 6 15 8 15 17 3 8 -11 12 -12 16 -2 2 6 13 12 23
12 10 0 22 5 26 11 3 6 15 9 25 6 11 -3 19 -2 19 3 0 4 7 11 16 14 8 3 13 2
10 -3 -3 -5 11 0 32 10 20 11 42 17 49 14 7 -2 13 0 13 5 0 5 9 9 20 9 11 1
29 1 40 2 11 0 20 3 20 7 0 4 8 8 18 9 15 1 59 9 152 29 14 3 31 6 38 6 6 1
12 6 12 12 0 7 3 7 8 1 9 -13 32 -18 32 -7 0 5 14 8 30 7 17 -1 33 1 35 4 2 4
25 6 52 5 26 0 54 3 61 9 7 6 12 6 12 0 0 -5 7 -10 15 -10 8 0 12 4 9 8 -2 5
11 7 31 5 20 -1 35 2 35 8 0 7 3 8 8 1 4 -5 21 -10 37 -10 17 0 33 5 37 10 5
6 8 6 8 -2 0 -8 9 -9 30 -3 21 6 30 5 30 -3 0 -8 3 -7 9 2 7 11 9 11 14 0 3
-8 6 -9 6 -4 1 6 29 9 68 8 164 -4 243 -8 243 -15 0 -8 21 -5 39 6 7 5 16 5
20 0 3 -5 26 -10 50 -11 24 -1 48 -8 52 -15 7 -11 9 -11 9 0 0 8 5 10 12 6 7
-5 26 -9 43 -11 44 -4 59 -8 73 -16 6 -5 12 -5 12 -1 0 3 7 1 15 -6 12 -10 15
-10 15 1 0 11 2 11 10 -1 8 -12 10 -12 10 -1 0 11 5 10 25 -3 13 -9 35 -16 48
-16 13 0 27 -3 31 -7 3 -4 23 -8 42 -9 20 -1 39 -5 43 -10 5 -8 23 -13 59 -16
6 -1 12 -5 12 -10 0 -5 4 -7 9 -3 5 3 12 1 16 -4 3 -6 12 -8 20 -4 8 3 15 0
15 -6 0 -6 3 -10 8 -10 26 4 62 -3 57 -11 -3 -6 5 -10 19 -10 13 0 26 -5 28
-11 2 -6 18 -12 36 -12 17 -1 34 -7 36 -14 3 -7 12 -10 21 -7 8 3 15 1 15 -5
0 -6 3 -10 8 -9 12 3 82 -25 82 -34 0 -4 3 -7 8 -7 22 4 42 -2 37 -11 -3 -5 1
-10 10 -10 9 0 29 -9 45 -20 15 -11 30 -17 34 -13 3 3 6 1 6 -6 0 -7 5 -9 10
-6 6 3 10 1 10 -4 0 -6 7 -11 15 -11 8 0 15 -5 15 -11 0 -5 5 -7 10 -4 6 3 10
1 10 -5 0 -6 5 -8 10 -5 6 3 10 1 10 -6 0 -7 3 -10 6 -6 3 3 13 0 20 -6 32
-26 41 -33 72 -49 21 -11 31 -13 27 -5 -4 6 0 4 8 -5 8 -10 17 -15 20 -11 4 3
7 1 7 -5 0 -7 6 -12 14 -12 8 0 16 -7 20 -15 3 -8 14 -15 25 -15 11 0 22 -9
26 -20 4 -11 11 -18 16 -15 5 4 12 -1 15 -9 3 -9 10 -13 15 -10 5 3 12 -2 15
-10 3 -9 12 -16 20 -16 8 0 14 -7 14 -16 0 -10 5 -14 16 -10 8 3 12 2 9 -4 -3
-6 -2 -10 3 -10 5 0 24 -14 43 -30 80 -71 72 -66 100 -69 5 0 8 -4 6 -8 -2 -5
8 -19 21 -33 14 -14 21 -19 17 -11 -6 10 -4 12 4 7 7 -5 10 -14 7 -22 -3 -8
-2 -13 2 -11 4 1 18 -6 32 -16 13 -9 21 -17 17 -17 -4 0 9 -17 30 -37 21 -21
37 -42 35 -46 -1 -5 2 -6 7 -3 12 8 43 -22 36 -34 -3 -5 4 -11 15 -15 11 -3
20 -13 20 -21 0 -8 6 -14 14 -14 8 0 18 -9 21 -20 3 -11 11 -20 16 -20 5 0 9
-7 9 -15 0 -8 4 -15 9 -15 5 0 11 -9 14 -21 4 -13 10 -18 18 -13 8 4 10 3 5
-4 -4 -7 -2 -12 5 -12 7 0 10 -3 6 -6 -3 -3 3 -15 13 -27 11 -11 17 -25 13
-30 -3 -6 -1 -7 5 -3 7 4 12 3 12 -3 0 -5 9 -12 20 -16 11 -3 19 -12 17 -18
-1 -7 4 -11 11 -9 10 2 14 -9 11 -34 0 -3 9 -14 21 -24 13 -11 19 -24 14 -31
-4 -7 -3 -9 3 -6 6 4 14 0 17 -9 4 -10 1 -13 -7 -9 -6 3 -2 -2 11 -11 12 -9
22 -25 22 -35 0 -11 5 -19 10 -19 6 0 10 -7 10 -16 0 -9 5 -12 12 -8 8 5 9 2
5 -9 -4 -12 -1 -17 9 -17 10 0 14 -6 10 -15 -3 -8 -1 -15 4 -15 5 0 12 -10 16
-22 4 -13 9 -25 13 -28 11 -9 31 -50 31 -64 0 -8 7 -16 15 -20 8 -3 15 -12 15
-21 0 -8 5 -15 11 -15 5 0 7 -4 4 -10 -3 -5 -1 -10 6 -10 7 0 9 -3 6 -7 -4 -3
-2 -12 5 -20 6 -7 8 -16 5 -19 -3 -4 3 -16 14 -27 11 -12 17 -27 15 -34 -3 -7
-1 -13 4 -13 5 0 7 -9 5 -20 -2 -11 1 -20 6 -20 6 0 7 -4 4 -10 -3 -5 -2 -10
4 -10 5 0 8 -9 6 -20 -2 -11 0 -20 6 -20 5 0 9 -7 9 -16 0 -9 11 -38 25 -66
13 -27 20 -46 15 -43 -6 3 -10 1 -10 -4 0 -6 5 -11 11 -11 5 0 7 -5 3 -11 -3
-6 -1 -15 5 -19 7 -4 13 -17 14 -28 1 -12 5 -22 10 -22 4 0 7 -8 6 -17 -2 -10
3 -29 10 -42 8 -14 8 -21 2 -17 -7 5 -9 1 -5 -8 3 -9 11 -16 16 -16 7 0 6 -5
-1 -13 -6 -8 -7 -17 -3 -21 4 -4 7 -11 8 -14 0 -4 4 -25 9 -47 5 -22 8 -43 7
-47 -1 -5 2 -8 6 -8 5 0 8 -10 7 -22 -2 -13 4 -34 12 -47 8 -13 10 -20 4 -17
-14 9 -14 0 0 -26 8 -16 8 -19 -1 -13 -9 6 -9 3 -1 -12 6 -11 7 -23 4 -27 -3
-3 0 -6 8 -6 11 0 11 -2 -1 -10 -8 -5 -10 -10 -4 -10 6 0 10 -16 9 -36 0 -19
3 -37 7 -40 3 -2 5 -13 3 -23 -2 -11 3 -27 10 -38 8 -10 15 -26 15 -35 0 -10
5 -18 10 -18 6 0 10 -5 10 -11 0 -14 25 -39 39 -39 6 0 11 -4 11 -9 0 -5 8 -8
18 -6 9 2 23 4 29 4 7 1 12 4 12 9 -3 19 2 33 11 27 6 -3 10 -1 10 4 0 6 6 11
14 11 7 0 21 11 30 25 9 14 21 23 26 20 6 -4 10 1 10 9 0 9 3 15 8 14 4 -1 20
4 35 10 16 7 35 12 43 12 8 0 14 5 14 12 0 6 3 8 6 5 4 -3 15 -2 26 4 15 8 19
18 16 40 -3 16 -1 29 2 29 4 0 4 18 0 40 -5 27 -4 40 4 40 6 0 4 5 -4 10 -8 5
-10 10 -4 10 6 0 9 13 6 30 -2 17 -9 30 -14 30 -6 0 -5 7 3 16 10 13 10 17 -1
24 -11 7 -11 11 -1 24 8 9 9 16 4 16 -5 0 -9 14 -8 30 1 17 -2 33 -7 36 -4 3
-6 10 -2 15 3 5 0 17 -8 26 -11 14 -11 16 2 8 13 -8 13 -7 1 8 -7 9 -10 17 -6
17 4 0 2 6 -4 14 -9 11 -9 15 1 19 11 4 10 6 0 6 -7 1 -10 6 -7 11 3 6 1 10
-5 10 -6 0 -8 5 -5 10 3 6 1 10 -6 10 -10 0 -10 3 -2 11 8 8 7 20 -3 44 -7 18
-10 35 -7 39 4 3 2 6 -3 6 -5 0 -10 8 -11 18 -1 15 -9 49 -13 62 -1 3 -2 8 -1
13 0 4 -3 7 -7 7 -9 0 -10 7 -13 55 -1 14 -5 25 -10 25 -4 0 -6 9 -4 20 2 11
0 20 -5 20 -4 0 -6 10 -2 22 3 14 2 19 -6 14 -12 -7 -16 5 -13 32 1 6 -3 12
-8 12 -6 0 -8 7 -5 15 4 8 1 15 -5 15 -6 0 -10 3 -10 8 3 19 -2 33 -10 28 -5
-4 -7 3 -4 14 3 11 0 20 -6 20 -6 0 -11 9 -11 19 0 11 -7 27 -16 35 -8 9 -13
16 -10 16 4 0 -2 17 -13 39 -11 21 -17 41 -14 45 4 3 -2 6 -12 6 -13 0 -15 3
-7 13 8 9 6 16 -8 25 -12 7 -17 18 -13 27 3 10 0 15 -8 13 -9 -2 -14 5 -13 20
1 12 -3 22 -8 22 -5 0 -7 4 -4 9 3 5 -1 12 -10 15 -8 3 -12 10 -9 16 3 5 2 10
-4 10 -5 0 -12 13 -16 30 -4 16 -13 34 -21 38 -8 5 -16 18 -17 30 0 12 -3 19
-6 17 -6 -6 -37 38 -33 48 1 4 -2 7 -8 7 -5 0 -10 6 -10 13 0 7 -9 23 -20 35
-12 12 -18 22 -15 22 3 0 1 6 -5 13 -41 49 -49 61 -43 71 3 6 3 8 -2 4 -7 -7
-35 14 -35 26 0 6 -24 37 -48 62 -7 8 -11 18 -8 23 3 5 -1 12 -10 15 -9 4 -14
13 -10 22 3 8 2 13 -3 9 -13 -7 -52 45 -44 58 3 6 1 7 -5 3 -7 -4 -12 -2 -12
5 0 7 -3 10 -6 6 -7 -7 -34 17 -34 30 0 5 -14 21 -30 35 -17 15 -30 28 -28 30
5 7 -46 57 -53 52 -5 -3 -14 6 -21 20 -6 14 -18 26 -25 26 -8 0 -12 4 -9 8 5
9 -38 52 -52 52 -4 0 -23 18 -42 40 -19 22 -40 40 -47 40 -6 0 -15 10 -18 21
-6 17 -9 19 -16 8 -7 -12 -9 -12 -9 -1 0 15 -56 72 -71 72 -4 0 -13 8 -18 18
-6 9 -11 14 -11 9 0 -4 -14 6 -31 23 -18 16 -36 30 -41 30 -5 0 -20 11 -34 25
-14 14 -30 22 -36 19 -7 -4 -8 -2 -4 4 4 7 -3 17 -18 24 -14 6 -26 15 -26 20
0 5 -4 7 -9 4 -5 -3 -11 1 -15 9 -3 8 -12 15 -20 15 -8 0 -16 3 -18 8 -6 13
-67 52 -83 52 -8 0 -14 6 -13 13 2 6 -3 11 -9 9 -7 -1 -13 2 -13 8 0 5 -5 10
-11 10 -6 0 -22 9 -36 20 -14 11 -29 17 -34 14 -5 -3 -12 2 -15 10 -3 9 -10
13 -15 10 -5 -3 -9 -1 -9 5 0 6 -7 8 -15 5 -8 -4 -15 -1 -15 5 0 6 -3 10 -7 9
-5 -1 -22 5 -39 15 -17 9 -34 13 -38 10 -3 -4 -6 -1 -6 5 0 7 -7 12 -15 12 -8
0 -15 5 -15 11 0 5 -5 7 -11 4 -6 -4 -17 1 -24 11 -8 11 -15 15 -15 10 0 -5
-6 -3 -14 3 -8 7 -24 14 -37 16 -12 3 -25 8 -28 13 -7 10 -43 26 -53 24 -5 -1
-8 3 -8 8 0 6 -5 10 -11 10 -5 0 -7 -6 -3 -12 4 -8 0 -7 -12 2 -33 26 -81 50
-88 43 -3 -3 -6 -2 -6 3 0 5 -12 11 -27 12 -15 1 -29 5 -32 10 -3 4 -15 8 -26
10 -11 2 -32 10 -47 17 -19 9 -28 10 -28 3 0 -6 -8 -4 -17 4 -10 9 -26 14 -36
13 -10 -2 -14 1 -10 8 4 6 0 8 -10 4 -10 -3 -17 -2 -17 3 0 6 -11 10 -25 10
-14 0 -25 5 -25 10 0 7 -7 7 -21 -1 -12 -6 -19 -7 -16 -2 4 6 -8 11 -26 12
-54 3 -57 4 -57 11 0 4 -19 11 -42 15 -24 4 -50 10 -58 12 -8 2 -30 4 -47 4
-22 1 -31 5 -26 13 4 6 0 6 -9 -2 -9 -7 -19 -9 -22 -4 -8 14 -56 21 -56 9 0
-8 -4 -7 -11 0 -6 6 -18 9 -25 6 -8 -3 -21 0 -29 7 -9 7 -18 10 -22 7 -3 -4
-13 -1 -21 6 -13 10 -15 9 -8 -8 6 -16 5 -18 -5 -7 -7 6 -28 12 -46 12 -18 0
-33 5 -33 10 0 7 -6 7 -20 0 -15 -8 -20 -8 -20 1 0 8 -4 8 -15 -1 -8 -7 -15
-8 -15 -3 0 5 -7 10 -15 10 -8 0 -15 -5 -15 -11 0 -8 -3 -7 -8 0 -9 14 -112
24 -112 11 0 -6 -5 -6 -12 0 -7 6 -34 9 -60 8 -30 -1 -48 2 -48 9 0 8 -2 8 -8
0 -8 -12 -86 -13 -98 -1 -4 4 -14 2 -21 -5 -11 -9 -17 -9 -24 3 -5 8 -9 9 -9
3z m-2955 -3564 c3 -6 -1 -7 -9 -4 -18 7 -21 14 -7 14 6 0 13 -4 16 -10z m2
-64 c-3 -7 -1 -19 3 -26 5 -7 5 -23 0 -35 -4 -11 -4 -28 1 -37 6 -11 5 -19 -2
-24 -8 -5 -9 -3 -4 6 6 10 4 12 -8 7 -12 -4 -17 -1 -17 9 0 9 -6 14 -12 11 -9
-3 -13 7 -13 33 0 35 2 37 20 27 19 -9 19 -9 5 8 -9 11 -10 16 -2 11 11 -7 17
5 13 27 -1 5 3 5 9 2 6 -4 9 -13 7 -19z m5528 -2544 c-3 -3 -11 0 -18 7 -9 10
-8 11 6 5 10 -3 15 -9 12 -12z"/>
<path d="M1665 9502 c-5 -4 -11 -14 -13 -22 -2 -8 -7 -16 -12 -18 -5 -2 -6
-10 -3 -18 3 -8 -1 -14 -8 -14 -12 0 -12 -2 -1 -9 11 -6 10 -10 -4 -15 -15 -6
-16 -9 -5 -15 9 -6 10 -14 5 -22 -10 -17 -15 -38 -15 -61 0 -10 -6 -18 -12
-18 -7 0 -6 -4 3 -10 8 -5 10 -10 3 -10 -6 0 -10 -13 -9 -30 1 -16 -2 -30 -6
-30 -5 0 -6 -11 -4 -25 3 -14 1 -23 -3 -21 -4 3 -8 -14 -9 -36 -1 -23 -8 -45
-15 -50 -9 -6 -8 -8 3 -8 13 0 13 -1 0 -10 -8 -5 -11 -10 -6 -10 5 0 4 -6 -1
-12 -5 -7 -8 -28 -8 -45 1 -18 -4 -33 -9 -33 -6 0 -5 -4 2 -9 11 -7 11 -9 -1
-14 -10 -4 -13 -13 -10 -27 4 -13 0 -26 -8 -31 -10 -6 -10 -9 -2 -9 7 0 12
-11 11 -25 -1 -14 -6 -25 -11 -25 -5 0 -6 -12 -3 -26 4 -14 3 -23 -1 -21 -5 3
-8 -15 -7 -39 1 -24 -2 -44 -7 -44 -4 0 -6 -16 -5 -35 2 -21 -1 -35 -8 -35 -6
0 -4 -5 4 -10 10 -7 11 -13 5 -17 -6 -5 -10 -15 -10 -23 1 -8 -4 -21 -9 -29
-9 -12 -8 -13 4 -6 13 8 13 7 1 -8 -11 -14 -11 -17 0 -17 12 0 12 -2 0 -9 -8
-5 -11 -16 -8 -25 3 -8 1 -18 -5 -22 -7 -4 -6 -9 3 -15 11 -7 11 -9 1 -9 -9 0
-11 -7 -7 -21 6 -16 4 -20 -6 -14 -11 6 -11 5 -2 -5 9 -9 9 -18 1 -33 -7 -14
-7 -22 3 -28 10 -6 10 -11 1 -22 -7 -7 -9 -17 -5 -20 3 -4 1 -7 -7 -7 -10 0
-10 -3 0 -15 7 -8 8 -15 3 -15 -5 0 -9 -20 -8 -45 1 -25 -2 -45 -6 -45 -5 0
-7 -16 -5 -35 1 -19 -2 -35 -7 -35 -5 0 -7 -7 -4 -15 4 -8 2 -17 -3 -20 -6 -4
-6 -14 1 -27 8 -15 8 -19 0 -14 -7 5 -11 -4 -12 -23 -2 -43 -3 -48 -11 -57 -4
-4 -3 -13 3 -21 7 -8 7 -13 2 -13 -6 0 -9 -13 -7 -30 2 -16 0 -30 -5 -30 -5 0
-7 -8 -4 -19 3 -10 0 -22 -7 -26 -8 -5 -8 -10 1 -21 8 -10 8 -14 1 -14 -7 0
-9 -7 -5 -17 5 -12 3 -14 -8 -8 -12 8 -12 6 0 -8 7 -9 10 -17 5 -17 -5 0 -10
-12 -11 -27 -2 -51 -16 -108 -27 -115 -7 -5 -7 -8 2 -8 7 0 10 -5 7 -11 -4 -5
-9 -29 -12 -52 -2 -23 -8 -46 -11 -52 -4 -5 -7 -25 -7 -42 0 -18 -3 -33 -8
-33 -5 0 -6 -9 -2 -19 3 -11 2 -22 -4 -25 -5 -3 -8 -19 -7 -36 1 -16 -2 -30
-8 -30 -5 0 -6 -3 -3 -6 3 -4 2 -16 -4 -27 -8 -15 -8 -18 1 -12 9 6 9 2 1 -14
-7 -11 -8 -21 -4 -21 4 0 -2 -7 -13 -16 -10 -8 -13 -13 -6 -9 14 7 14 8 3 -33
-7 -23 -6 -32 2 -32 8 0 7 -4 -2 -9 -8 -5 -11 -16 -8 -26 4 -9 3 -14 -3 -10
-6 3 -10 -3 -10 -14 0 -12 -7 -21 -16 -21 -8 0 -12 5 -9 10 3 6 1 10 -5 10 -6
0 -8 4 -5 10 3 5 2 18 -4 28 -6 11 -6 24 0 35 6 9 6 17 2 17 -8 0 -10 20 -15
130 -2 30 -6 57 -10 60 -4 3 -9 34 -11 68 -2 34 -7 65 -10 69 -4 3 -1 13 6 21
9 13 9 14 0 8 -10 -5 -13 5 -13 39 0 26 -5 56 -11 67 -6 11 -7 18 -2 15 6 -4
9 9 7 31 -2 20 -4 37 -5 37 -1 0 -3 27 -5 60 -7 112 -9 130 -17 142 -4 6 -3
15 3 18 8 5 7 12 -2 23 -11 13 -11 15 2 7 12 -6 13 -5 3 5 -8 9 -9 19 -2 32 5
10 6 18 1 18 -5 0 -9 7 -9 15 0 8 5 15 11 15 7 0 7 3 1 8 -14 10 -17 32 -4 32
8 0 8 4 -1 15 -6 8 -9 18 -6 24 3 5 0 12 -6 14 -10 4 -10 8 1 15 7 5 9 12 4
15 -5 3 -8 24 -8 46 0 23 -2 41 -5 41 -3 0 -5 16 -5 35 2 41 -7 51 -24 31 -10
-11 -8 -17 6 -25 16 -9 17 -10 1 -11 -12 0 -15 -5 -11 -17 4 -10 2 -14 -4 -10
-6 4 -9 -3 -7 -18 1 -14 -2 -25 -7 -25 -6 0 -8 -4 -5 -9 4 -5 0 -12 -6 -14
-10 -4 -10 -6 -1 -6 15 -1 5 -32 -12 -43 -7 -4 -11 -21 -9 -37 2 -18 -2 -31
-11 -35 -8 -3 -12 -14 -10 -25 2 -11 -3 -22 -11 -25 -8 -3 -14 -13 -14 -21 0
-10 -5 -13 -12 -9 -8 5 -9 2 -5 -9 3 -10 2 -17 -4 -17 -6 0 -8 -4 -4 -9 3 -6
-3 -14 -12 -20 -13 -8 -14 -10 -4 -11 11 0 9 -4 -5 -15 -12 -9 -14 -14 -6 -15
10 0 10 -4 -2 -16 -15 -14 -20 -28 -17 -46 0 -5 -4 -8 -10 -8 -5 0 -7 -4 -4
-10 3 -5 1 -10 -4 -10 -6 0 -11 -8 -11 -17 -1 -23 -25 -55 -34 -45 -4 4 -6 0
-4 -8 1 -8 8 -18 13 -22 6 -5 3 -8 -7 -8 -12 0 -16 -6 -13 -20 3 -13 0 -18 -7
-14 -7 5 -9 0 -6 -14 4 -12 2 -22 -4 -22 -6 0 -8 -7 -4 -15 3 -8 1 -15 -5 -15
-6 0 -9 -7 -5 -15 3 -8 1 -15 -4 -15 -6 0 -9 -3 -8 -7 1 -5 -3 -18 -10 -31 -7
-12 -10 -27 -7 -32 3 -6 1 -10 -5 -10 -6 0 -8 -4 -5 -10 3 -5 2 -10 -3 -10 -7
0 -40 -69 -43 -90 0 -3 -6 -11 -12 -19 -10 -12 -9 -13 3 -7 13 7 13 6 0 -6 -8
-7 -21 -21 -29 -31 -12 -16 -12 -17 5 -11 15 5 14 3 -4 -10 -12 -10 -27 -14
-32 -11 -6 3 -10 1 -10 -6 0 -9 -3 -9 -14 0 -10 9 -16 9 -21 1 -5 -8 -11 -8
-21 1 -10 8 -18 9 -27 0 -8 -6 -17 -7 -21 -3 -11 10 -30 9 -38 -3 -5 -6 -11
-5 -17 4 -8 12 -12 12 -24 2 -12 -9 -16 -9 -20 1 -3 10 -7 10 -17 1 -9 -8 -19
-9 -32 -2 -13 7 -18 6 -18 -3 0 -9 -2 -10 -8 -2 -8 14 -54 13 -64 -1 -5 -6 -8
-6 -8 1 0 6 -7 11 -15 11 -8 0 -15 -5 -15 -10 0 -5 -8 -3 -17 4 -15 12 -16 12
-8 -1 7 -13 6 -13 -7 -2 -12 9 -18 10 -23 2 -5 -8 -11 -8 -21 1 -11 9 -14 8
-14 -2 0 -12 -2 -12 -9 -1 -11 17 -21 17 -32 0 -5 -7 -9 -8 -9 -3 0 14 -38 17
-45 4 -4 -5 -12 -6 -18 -2 -39 25 -47 5 -47 -120 0 -106 0 -108 21 -102 15 5
19 4 14 -5 -6 -9 -3 -9 13 -1 26 14 35 14 26 0 -5 -8 -1 -8 14 0 26 14 35 14
26 0 -5 -8 -1 -8 14 0 11 6 23 11 27 11 3 0 3 -5 -1 -11 -5 -8 -1 -8 14 0 11
6 23 11 27 11 3 0 3 -5 -1 -11 -5 -8 -1 -8 14 0 11 6 23 11 27 11 3 0 3 -5 -1
-11 -5 -8 -1 -8 14 0 27 14 35 14 26 -1 -4 -7 -3 -8 5 -4 6 4 25 9 42 11 21 3
28 1 22 -8 -4 -7 0 -7 10 2 14 11 17 11 17 0 0 -10 3 -10 12 -1 16 16 31 15
22 0 -5 -9 -2 -9 9 1 14 11 17 11 17 0 0 -10 3 -10 12 -1 16 16 31 15 22 0 -5
-9 -2 -9 9 1 13 10 17 10 17 1 0 -10 3 -10 15 0 12 10 15 10 15 -1 0 -11 3
-11 11 1 8 12 12 12 16 2 4 -10 8 -10 19 -1 11 9 14 8 14 -2 0 -11 3 -11 11 1
8 11 12 12 16 2 2 -6 10 -9 16 -5 12 7 119 9 133 1 21 -11 43 32 47 90 1 12 5
22 9 22 4 0 5 7 2 15 -4 8 -1 15 5 15 6 0 10 3 9 8 -2 13 29 76 51 101 11 13
18 28 15 32 -3 5 0 9 6 9 6 0 8 5 5 10 -3 6 -1 10 5 10 6 0 8 5 4 12 -4 6 1
17 11 25 14 9 15 13 4 13 -10 1 -9 3 4 11 9 6 15 14 12 20 -4 5 -1 9 5 9 6 0
8 5 5 10 -3 6 -1 10 4 10 6 0 10 3 10 8 -3 19 2 30 17 36 9 4 13 2 8 -5 -4 -6
0 -16 7 -21 11 -8 11 -11 1 -15 -10 -4 -10 -8 -1 -19 6 -8 8 -14 5 -14 -4 0
-2 -9 4 -20 8 -14 8 -20 0 -20 -7 0 -8 -6 -2 -17 5 -10 8 -26 7 -35 -2 -10 1
-18 7 -18 6 0 7 -13 3 -31 -5 -22 -4 -29 4 -25 7 5 8 0 2 -16 -5 -15 -4 -30 6
-45 9 -14 11 -23 4 -28 -8 -4 -8 -12 -1 -26 8 -14 7 -19 -2 -19 -10 0 -10 -2
0 -8 7 -5 14 -29 16 -55 2 -25 7 -51 12 -58 5 -8 3 -9 -6 -4 -9 6 -11 4 -5 -5
13 -21 23 -80 14 -80 -5 0 -5 -10 0 -22 4 -13 7 -31 6 -40 -2 -10 0 -18 5 -18
9 0 7 -41 -4 -58 -3 -6 -1 -14 5 -18 8 -5 9 -3 4 6 -5 9 -4 11 3 6 9 -5 9 -13
2 -26 -6 -12 -6 -21 -1 -25 6 -3 8 -14 6 -25 -2 -11 1 -22 6 -26 6 -4 6 -11
-2 -20 -6 -8 -7 -14 -2 -14 6 0 9 -12 9 -27 -1 -16 3 -34 8 -40 5 -8 4 -13 -3
-13 -7 0 -8 -8 -1 -25 5 -14 6 -25 2 -25 -4 0 0 -5 8 -10 12 -8 12 -10 1 -10
-11 0 -11 -3 0 -17 12 -15 12 -16 -1 -8 -12 7 -13 6 -3 -6 10 -12 10 -18 0
-29 -10 -10 -9 -11 2 -5 11 6 13 4 8 -8 -3 -10 -3 -17 1 -17 5 0 7 -13 6 -30
-1 -17 3 -30 9 -30 7 0 5 -5 -3 -10 -12 -8 -12 -10 -1 -10 8 0 11 -3 8 -6 -3
-4 -2 -16 4 -27 9 -15 8 -18 -2 -12 -9 6 -10 3 -4 -11 4 -10 8 -28 9 -39 1
-11 5 -26 9 -32 5 -8 3 -13 -5 -13 -9 0 -9 -3 -2 -8 11 -7 12 -14 16 -67 1
-17 8 -25 21 -25 13 0 17 5 13 15 -3 8 -1 15 5 15 6 0 9 7 5 15 -3 8 0 20 7
27 7 7 13 20 13 28 1 21 16 54 28 62 7 5 6 8 -3 8 -11 0 -11 3 0 17 12 15 12
16 -1 8 -13 -8 -13 -7 0 10 8 10 15 25 15 34 0 9 4 22 9 30 7 11 6 12 -5 6
-11 -7 -12 -6 -2 7 7 8 10 18 6 21 -3 4 -2 7 4 7 6 0 9 11 8 25 -2 14 1 25 7
25 6 0 8 11 6 25 -3 13 -1 26 4 27 6 2 10 17 11 33 1 17 6 33 12 37 6 5 5 8
-3 8 -10 0 -10 3 1 15 9 8 13 24 10 36 -5 17 -3 20 8 14 12 -8 12 -6 0 8 -7 9
-9 17 -4 17 9 0 11 12 16 87 1 22 5 39 10 36 4 -2 8 10 8 26 1 30 4 48 8 54 1
1 4 22 7 47 2 25 5 51 6 58 1 6 6 12 11 12 5 0 7 7 3 15 -3 8 0 15 7 15 8 0 8
3 -2 9 -8 5 -9 11 -3 15 6 3 9 17 7 31 -1 14 3 25 9 25 6 0 4 5 -4 10 -9 6
-10 10 -3 10 6 0 10 9 8 20 -2 11 0 20 4 20 4 0 7 16 6 35 -1 19 3 35 8 35 5
0 7 7 4 15 -4 8 -3 17 2 19 4 3 7 21 6 41 0 19 4 35 9 35 5 0 6 3 3 6 -3 4 -2
16 4 27 8 14 8 18 0 13 -7 -5 -9 -1 -5 8 3 9 9 16 13 16 4 0 7 14 6 30 -1 17
2 33 6 35 4 3 6 18 5 35 -1 16 3 30 8 30 6 0 4 5 -4 10 -11 7 -11 10 -2 10 7
0 10 5 7 10 -3 6 -3 16 2 23 4 6 8 21 9 32 6 62 9 75 19 75 5 0 3 5 -5 10 -12
8 -12 10 -1 10 10 0 11 3 2 13 -6 8 -8 17 -4 21 4 3 9 14 11 24 2 9 6 28 9 42
3 14 6 46 7 71 0 30 5 45 12 42 7 -2 12 7 13 24 2 61 5 83 13 83 4 0 5 7 2 15
-4 8 -2 15 3 15 6 0 9 16 8 35 -1 19 3 35 9 35 6 0 4 5 -4 10 -9 6 -11 10 -3
10 7 0 10 7 7 15 -4 8 -2 15 4 15 5 0 7 12 4 26 -3 16 1 30 9 35 12 7 12 9 0
9 -11 0 -11 3 -1 15 10 12 10 15 0 15 -9 0 -10 3 -1 13 6 8 8 16 5 19 -2 3 2
8 10 11 10 4 20 -2 27 -15 9 -16 8 -19 -3 -12 -11 6 -11 5 1 -9 11 -14 11 -17
0 -17 -12 0 -12 -2 0 -9 9 -6 15 -34 18 -77 6 -100 7 -104 15 -104 5 0 4 -8
-1 -18 -7 -13 -6 -23 1 -30 9 -9 9 -12 0 -12 -9 0 -10 -6 -4 -17 5 -10 8 -33
7 -50 -1 -18 1 -33 6 -33 4 0 6 -11 4 -25 -1 -14 3 -25 9 -25 7 0 7 -3 1 -8
-5 -4 -10 -14 -10 -22 0 -8 5 -18 10 -22 6 -5 5 -8 -4 -8 -11 0 -11 -3 -1 -15
10 -12 10 -15 0 -15 -10 0 -10 -3 0 -15 7 -8 9 -15 4 -15 -5 0 -2 -5 6 -10 13
-9 13 -10 0 -10 -13 0 -13 -1 0 -11 11 -8 12 -12 3 -16 -9 -3 -10 -10 -4 -21
4 -9 7 -27 6 -40 -1 -13 3 -25 8 -29 5 -3 3 -9 -4 -14 -9 -6 -10 -12 -4 -16 6
-5 10 -27 10 -50 0 -24 4 -43 9 -43 5 0 4 -6 -2 -13 -7 -8 -7 -18 -2 -27 6 -9
5 -17 -3 -22 -9 -6 -9 -8 1 -8 7 0 10 -4 7 -10 -3 -5 -3 -10 2 -10 10 0 10
-121 0 -138 -5 -7 -5 -12 0 -11 20 3 25 -2 13 -16 -9 -11 -9 -15 -1 -15 7 0
10 -4 6 -9 -3 -5 -1 -13 5 -16 6 -4 7 -12 3 -18 -11 -14 -10 -68 1 -85 4 -7 2
-12 -5 -12 -8 0 -8 -4 -2 -12 6 -7 9 -24 8 -38 -1 -14 2 -33 7 -44 8 -14 7
-17 -3 -11 -8 6 -10 4 -4 -5 12 -20 12 -60 0 -60 -6 0 -7 -3 0 -8 16 -11 19
-46 3 -36 -10 6 -11 5 -1 -7 9 -11 9 -19 2 -26 -7 -7 -5 -14 5 -22 10 -9 12
-20 6 -41 -6 -20 -5 -30 3 -34 8 -3 8 -5 -1 -5 -7 -1 -10 -6 -6 -12 3 -6 7
-31 8 -54 1 -24 5 -47 8 -51 4 -4 3 -15 -3 -25 -5 -11 -6 -19 -2 -19 4 0 9
-11 9 -25 1 -14 -2 -22 -8 -19 -6 4 -5 -2 1 -14 15 -27 14 -45 -1 -37 -7 4 -6
1 2 -7 8 -7 15 -26 14 -41 -1 -15 3 -30 8 -33 4 -3 5 -11 1 -17 -12 -19 -12
-37 -1 -37 7 0 6 -5 -1 -14 -11 -13 -5 -50 8 -42 3 2 6 -7 6 -20 0 -13 -4 -24
-9 -24 -5 0 -3 -6 3 -14 9 -11 9 -15 -1 -19 -10 -4 -10 -6 1 -6 11 -1 11 -4 0
-18 -12 -14 -12 -16 0 -8 11 6 13 3 8 -17 -4 -14 -4 -28 0 -32 11 -11 12 -40
2 -52 -7 -9 -6 -15 3 -21 15 -9 17 -45 3 -55 -5 -4 -2 -10 8 -14 9 -3 14 -11
10 -18 -11 -17 -12 -35 -2 -42 5 -3 4 -14 -2 -26 -9 -16 -8 -19 1 -13 10 6 12
1 8 -18 -3 -15 0 -28 6 -31 7 -3 7 -5 -1 -5 -9 -1 -10 -8 -4 -24 5 -13 8 -38
7 -55 -1 -18 1 -32 5 -32 12 0 17 -39 5 -44 -7 -3 -7 -5 2 -5 7 -1 10 -5 7
-11 -3 -5 0 -10 7 -10 9 0 9 -3 -2 -10 -12 -7 -12 -10 -1 -10 7 0 11 -6 8 -13
-3 -8 1 -14 10 -14 9 0 13 7 10 19 -3 10 0 18 6 18 6 0 7 3 4 6 -3 4 -2 15 4
26 6 11 12 29 15 41 2 11 10 25 18 29 9 5 13 15 10 22 -3 8 -1 17 4 20 6 3 8
15 5 26 -3 13 0 20 8 20 11 0 11 2 -1 10 -8 5 -10 10 -5 10 6 0 12 11 13 26 1
14 6 33 12 43 5 10 6 21 3 25 -3 3 -2 6 3 6 8 0 13 25 14 78 0 12 5 22 10 22
5 0 7 6 4 14 -3 8 -1 17 5 21 6 3 11 19 11 35 0 16 4 32 10 35 5 3 10 11 10
16 0 6 -4 7 -10 4 -6 -3 -7 1 -4 9 3 9 9 16 13 16 4 0 8 6 9 13 7 51 10 61 21
65 9 3 9 7 1 17 -8 9 -8 15 0 20 6 3 8 11 5 16 -4 5 -2 9 4 9 6 0 8 7 5 15 -4
8 -2 15 4 15 5 0 10 6 9 13 -1 34 4 58 12 53 4 -3 6 6 3 19 -2 14 0 25 6 25 6
0 9 9 7 20 -2 11 -1 20 3 20 4 0 9 8 10 18 4 34 8 52 15 58 4 4 7 16 7 26 0
10 5 18 11 18 8 0 8 5 -1 15 -7 8 -8 15 -3 15 5 0 10 12 11 26 1 14 5 31 9 37
4 6 9 30 11 52 2 22 7 42 11 45 4 3 7 15 6 28 -1 12 1 22 5 22 4 0 7 6 8 13 2
28 9 46 22 63 13 16 13 17 0 9 -11 -6 -10 -3 3 12 9 11 14 23 10 26 -3 4 -1 7
6 7 7 0 9 5 6 10 -3 6 -3 10 2 10 4 0 27 18 51 40 24 23 47 38 52 35 6 -4 10
-1 10 6 0 7 3 10 6 7 3 -4 19 -2 35 2 16 5 27 5 24 0 -3 -4 2 -11 11 -14 8 -3
12 -2 9 4 -3 6 1 7 9 4 9 -3 16 -10 16 -14 0 -5 9 -7 20 -5 11 2 18 1 16 -4
-3 -4 4 -13 14 -21 10 -8 16 -18 13 -23 -3 -6 -1 -7 5 -3 6 3 19 -4 29 -17 10
-13 21 -24 26 -25 4 -1 7 -4 7 -7 0 -3 9 -14 20 -25 12 -12 18 -25 15 -30 -4
-6 -1 -10 5 -10 7 0 10 -7 6 -15 -3 -10 1 -15 12 -15 15 0 15 -2 2 -10 -8 -5
-10 -10 -4 -10 6 0 16 -10 23 -23 12 -23 44 -29 71 -12 9 5 11 4 6 -3 -4 -7
-3 -12 3 -12 5 0 13 5 16 10 4 6 11 8 16 5 5 -4 9 1 9 10 0 9 5 13 10 10 6 -3
10 -1 10 5 0 6 5 8 12 4 7 -4 8 -3 4 4 -4 6 4 32 18 58 13 25 22 52 20 59 -3
7 0 16 5 20 6 3 9 11 6 16 -4 5 -2 9 3 9 6 0 8 10 4 22 -3 11 -1 19 4 16 5 -4
10 17 11 45 2 28 7 53 11 56 13 8 11 41 -2 41 -7 0 -7 3 1 8 6 4 13 16 15 27
2 14 -3 20 -17 20 -11 0 -19 -6 -17 -13 1 -8 -7 -16 -18 -19 -11 -3 -18 -8
-16 -12 3 -4 -3 -7 -12 -8 -43 -3 -62 -8 -62 -15 0 -5 -11 -6 -25 -4 -14 3
-25 2 -25 -2 0 -4 -20 -7 -45 -7 -25 0 -45 3 -45 8 0 4 -3 6 -7 5 -16 -3 -69
15 -85 29 -9 8 -22 12 -27 8 -6 -3 -11 1 -11 10 0 9 -9 19 -20 22 -11 3 -18 9
-15 13 3 4 -3 7 -13 6 -9 0 -16 5 -14 12 1 6 -5 12 -13 12 -8 0 -15 5 -15 10
0 6 -4 9 -8 8 -4 -2 -31 21 -59 50 -27 28 -55 52 -60 52 -6 0 -14 7 -17 16 -3
8 -10 13 -15 10 -5 -3 -12 1 -15 10 -4 10 -13 13 -25 9 -12 -3 -21 0 -25 10
-3 9 -10 13 -16 10 -5 -3 -10 -1 -10 5 0 7 -7 10 -15 7 -8 -4 -17 -2 -21 4 -4
6 -11 6 -20 -2 -10 -8 -14 -8 -14 0 0 18 -14 13 -29 -10 -7 -12 -9 -24 -4 -28
11 -7 11 -27 0 -37 -4 -4 0 -16 10 -26 10 -12 12 -18 4 -18 -7 0 -9 -5 -5 -11
10 -17 7 -68 -5 -83 -6 -7 -6 -17 -1 -26 5 -8 6 -19 2 -24 -3 -6 -7 -26 -9
-45 -2 -19 -9 -42 -16 -50 -10 -12 -9 -13 3 -6 13 8 13 6 1 -8 -7 -9 -11 -24
-7 -32 3 -8 2 -15 -2 -15 -5 0 -9 -11 -10 -25 -3 -46 -5 -55 -13 -55 -4 0 -5
-9 -2 -20 3 -11 1 -26 -5 -33 -6 -7 -9 -25 -8 -40 2 -15 -1 -27 -6 -27 -6 0
-8 -7 -4 -15 3 -8 2 -15 -2 -15 -7 0 -13 -32 -15 -82 -1 -10 -5 -18 -10 -18
-4 0 -5 -4 -2 -10 3 -5 0 -10 -7 -10 -9 0 -9 -3 2 -10 12 -8 12 -10 1 -10 -8
0 -11 -3 -8 -6 3 -4 2 -15 -4 -25 -7 -13 -6 -19 1 -19 7 0 8 -5 3 -12 -4 -7
-8 -16 -9 -20 -1 -5 -3 -9 -4 -10 -1 -2 -4 -21 -6 -43 -4 -42 -11 -87 -14 -95
-1 -3 -1 -9 0 -15 1 -5 -2 -7 -6 -2 -4 4 -9 37 -11 75 -1 37 -5 72 -7 79 -3 7
-1 15 5 18 5 4 6 12 2 18 -4 7 -8 21 -8 32 0 11 -4 25 -8 32 -4 6 -3 15 3 18
8 5 7 11 -1 21 -6 7 -9 20 -6 28 3 8 1 17 -6 20 -8 3 -8 5 2 5 11 1 11 4 1 16
-10 12 -10 15 0 15 9 0 8 5 -3 18 -10 10 -14 22 -10 25 11 11 10 57 -2 57 -5
0 -3 5 5 10 8 5 10 10 4 10 -6 0 -10 15 -9 36 1 19 -2 37 -6 40 -4 2 -6 16 -3
30 3 14 0 32 -7 40 -9 11 -9 14 1 14 9 0 10 3 1 13 -6 8 -8 16 -6 19 3 3 2 24
-4 47 -6 27 -5 41 1 41 7 0 7 4 0 13 -6 7 -9 22 -8 32 2 11 1 25 -3 30 -3 6
-7 34 -7 63 -1 29 -4 55 -7 58 -3 3 -3 12 -1 19 3 7 0 16 -6 20 -8 5 -8 11 1
21 6 8 7 14 2 14 -6 0 -11 17 -12 38 -1 32 -8 120 -13 160 -1 6 -4 12 -8 12
-3 0 -6 9 -6 20 0 11 5 20 10 20 5 0 1 10 -10 22 -12 13 -13 18 -4 13 13 -8
13 -7 1 8 -7 9 -9 17 -4 17 5 0 9 9 9 20 0 11 -3 20 -7 20 -4 0 -9 9 -12 20
-3 11 -1 20 5 20 5 0 6 5 2 12 -4 6 -8 29 -8 49 -1 21 -4 41 -8 45 -4 3 -3 16
3 27 8 14 8 18 -1 12 -8 -5 -11 -1 -9 11 2 11 0 25 -4 32 -5 6 -4 12 0 12 5 0
9 9 9 20 0 11 -4 20 -8 20 -4 0 -5 7 -2 15 4 9 0 15 -7 15 -9 0 -10 3 -4 8 16
11 17 34 3 43 -10 7 -10 9 1 9 11 0 11 3 1 15 -10 12 -10 15 0 15 9 0 9 4 3
13 -10 11 -12 32 -15 115 -1 17 -6 32 -12 32 -6 0 -4 5 4 10 8 5 10 10 3 10
-12 0 -12 17 0 38 5 6 4 12 0 12 -8 0 -11 18 -17 100 -1 14 -6 31 -10 38 -4 7
-2 12 5 12 8 0 7 5 -2 17 -8 9 -13 18 -11 20 1 1 2 6 1 11 0 4 -1 26 -1 50 0
23 -4 45 -8 47 -5 3 -4 20 1 38 11 40 11 46 0 28 -6 -10 -9 -4 -11 20 -3 71
-6 94 -14 108 -7 10 -6 12 4 6 10 -6 11 -4 4 6 -10 16 -13 32 -16 77 0 17 -6
32 -12 32 -6 0 -6 4 2 12 7 7 8 17 2 28 -5 9 -8 30 -8 47 1 16 -3 36 -8 44
-11 19 -13 58 -3 65 5 3 3 15 -5 27 -8 12 -13 34 -12 50 1 15 -2 27 -7 27 -5
0 -4 7 3 16 11 12 11 15 -1 12 -9 -2 -13 4 -11 20 2 13 -2 22 -10 22 -9 0 -9
3 2 10 10 6 11 10 3 10 -7 0 -13 5 -13 11 0 5 5 7 12 3 7 -4 8 -3 4 4 -8 14
-8 14 -21 4z"/>
<path d="M14580 7729 c0 -5 -3 -8 -7 -6 -5 3 -8 -16 -7 -41 0 -26 -3 -52 -7
-57 -19 -25 16 -40 81 -34 8 1 23 -2 33 -6 9 -4 17 -3 17 2 0 11 29 11 47 0 6
-4 14 -3 18 3 3 6 12 7 20 3 7 -5 60 -7 117 -5 l104 3 2 35 c2 19 -2 34 -8 34
-6 0 -8 6 -4 13 4 6 -2 4 -13 -5 -23 -21 -37 -23 -28 -5 4 6 0 4 -8 -5 -13
-16 -15 -16 -32 0 -10 9 -15 12 -12 6 9 -16 -35 -26 -45 -11 -5 8 -8 7 -8 -5
0 -19 -21 -18 -44 1 -11 10 -20 10 -29 3 -8 -7 -18 -7 -27 -2 -8 6 -19 10 -25
10 -5 0 -3 -5 5 -10 12 -8 10 -10 -8 -10 -13 0 -21 4 -18 8 3 5 -9 6 -26 4
-22 -3 -29 -1 -23 7 4 8 2 12 -6 10 -31 -4 -49 2 -49 15 0 8 6 17 13 19 7 3 5
6 -5 6 -11 1 -15 6 -12 16 4 8 3 15 0 15 -3 0 -6 -5 -6 -11z m210 -83 c0 -3
-4 -8 -10 -11 -5 -3 -10 -1 -10 4 0 6 5 11 10 11 6 0 10 -2 10 -4z"/>
<path d="M14600 7685 c0 -7 30 -13 34 -7 3 4 -4 9 -15 9 -10 1 -19 0 -19 -2z"/>
<path d="M14810 7649 c0 -5 5 -7 10 -4 6 3 10 8 10 11 0 2 -4 4 -10 4 -5 0
-10 -5 -10 -11z"/>
<path d="M1 7581 c-1 -24 2 -41 5 -38 4 3 14 2 24 -3 10 -5 20 -6 24 -3 11 11
51 11 57 0 4 -5 13 -6 20 -1 19 11 49 13 49 2 0 -5 6 -6 13 -1 19 12 37 12 37
1 0 -6 7 -4 17 3 13 11 17 11 21 1 3 -10 7 -10 19 -1 9 8 17 9 21 3 8 -11 42
-15 42 -4 0 4 12 5 27 2 21 -4 25 -2 20 10 -3 9 -1 20 4 25 6 6 4 15 -6 23
-13 11 -22 10 -51 -4 -20 -9 -33 -13 -30 -8 2 4 -4 8 -14 8 -10 0 -17 -3 -14
-7 2 -4 -3 -10 -12 -13 -12 -4 -15 -2 -10 9 4 13 2 14 -14 5 -13 -7 -21 -7
-26 1 -5 8 -9 8 -14 -1 -6 -9 -13 -9 -29 -1 -16 9 -21 9 -21 -1 0 -6 -7 -3
-16 8 -8 10 -13 13 -9 7 4 -9 -1 -13 -15 -13 -13 0 -19 4 -14 12 5 7 3 8 -7 2
-24 -15 -41 -14 -35 3 5 13 4 14 -8 4 -8 -7 -20 -10 -26 -6 -5 3 -10 0 -11 -7
0 -7 -4 -4 -9 7 -7 15 -9 10 -9 -24z"/>
<path d="M3075 7351 c-3 -5 -2 -12 3 -15 5 -3 9 1 9 9 0 17 -3 19 -12 6z"/>
<path d="M3052 7293 c-6 -10 -14 -17 -19 -15 -12 3 -10 -21 2 -25 6 -1 16 9
22 24 15 30 10 44 -5 16z"/>
<path d="M14155 7292 c2 -2 -3 -11 -11 -20 -12 -11 -12 -17 -4 -22 9 -6 9 -9
-1 -13 -11 -4 -11 -6 -1 -6 7 -1 10 -5 7 -11 -11 -17 -13 -90 -2 -90 5 0 4 -7
-4 -16 -10 -12 -10 -17 -1 -23 7 -4 10 -14 7 -22 -7 -20 10 -43 26 -33 19 11
59 11 59 0 0 -6 5 -5 11 1 8 8 20 8 35 3 15 -6 24 -5 28 3 3 8 5 7 5 -3 1 -13
2 -13 11 0 7 11 10 11 10 2 0 -10 5 -10 20 -2 14 8 20 8 20 0 0 -8 6 -8 20 0
15 8 20 8 20 -1 0 -9 3 -9 14 0 8 7 17 8 20 3 4 -7 51 -9 51 -2 0 1 10 3 23 4
12 2 22 -2 22 -7 0 -5 7 -4 15 3 8 7 15 8 15 3 0 -10 36 -11 46 -1 3 4 17 3
30 -2 16 -6 24 -6 24 1 0 6 5 7 12 3 17 -10 68 -11 68 0 0 5 7 3 15 -4 12 -10
15 -10 15 1 0 12 2 12 9 0 6 -10 13 -10 28 -3 15 8 24 8 33 -1 10 -9 11 -9 6
0 -5 10 -1 11 16 4 14 -5 31 -5 40 0 11 6 19 5 23 -1 5 -8 11 -7 21 1 8 6 14
7 14 2 0 -5 7 -10 15 -10 13 0 15 19 13 126 l-3 126 -52 -1 c-33 -1 -50 3 -46
9 4 6 1 7 -7 2 -20 -12 -81 -15 -74 -3 3 5 -4 4 -15 -4 -18 -11 -23 -11 -31 2
-5 8 -10 11 -10 5 0 -5 -25 -10 -54 -11 -34 0 -53 3 -49 9 4 6 1 7 -7 2 -22
-13 -80 -14 -80 -1 0 7 -3 7 -8 1 -4 -5 -14 -10 -22 -10 -8 0 -18 5 -22 10 -5
7 -8 6 -8 -1 0 -13 -70 -13 -70 1 0 7 -3 7 -8 0 -7 -11 -263 -15 -257 -4 2 3
-2 6 -10 6 -8 0 -13 -2 -10 -5z"/>
</g>
</svg>
