<?xml version="1.0" standalone="no"?>
<!DOCTYPE svg PUBLIC "-//W3C//DTD SVG 20010904//EN"
 "http://www.w3.org/TR/2001/REC-SVG-20010904/DTD/svg10.dtd">
<svg version="1.0" xmlns="http://www.w3.org/2000/svg"
 width="1500.000000pt" height="1500.000000pt" viewBox="0 0 1500.000000 1500.000000"
 preserveAspectRatio="xMidYMid meet">
<metadata>
Created by potrace 1.14, written by Peter Selinger 2001-2017
</metadata>
<g transform="translate(0.000000,1500.000000) scale(0.100000,-0.100000)"
fill="#000000" stroke="none">
<path d="M7230 12643 c-162 -16 -395 -48 -440 -60 -30 -8 -82 -21 -115 -28
-138 -30 -171 -38 -195 -50 -14 -6 -47 -18 -75 -25 -75 -19 -371 -137 -445
-178 -36 -19 -114 -60 -175 -91 -144 -74 -200 -108 -249 -152 -23 -20 -59 -46
-81 -58 -43 -22 -121 -82 -257 -196 -162 -137 -368 -362 -528 -579 -60 -82
-110 -152 -110 -156 0 -4 -39 -72 -86 -150 -47 -78 -96 -166 -109 -194 -53
-113 -75 -165 -75 -175 0 -5 -6 -22 -14 -38 -23 -44 -84 -212 -102 -278 -9
-33 -23 -82 -31 -110 -20 -72 -41 -191 -58 -341 -15 -129 -15 -133 5 -187 24
-65 60 -99 131 -124 36 -13 48 -22 43 -33 -22 -57 -11 -394 17 -535 10 -46 38
-117 74 -188 8 -16 15 -34 15 -41 0 -29 -116 -111 -242 -173 -54 -26 -77 -45
-110 -90 -24 -31 -56 -70 -71 -86 -26 -27 -27 -33 -21 -88 6 -56 5 -59 -15
-59 -12 0 -35 10 -51 21 -27 20 -34 21 -85 11 -116 -24 -188 -103 -229 -254
-12 -41 -16 -103 -16 -235 1 -161 7 -230 35 -360 7 -29 3 -37 -33 -74 -69 -68
-102 -45 -141 103 -45 169 -91 254 -157 295 -79 47 -168 22 -215 -63 -37 -65
-54 -131 -90 -359 -34 -213 -57 -322 -69 -330 -4 -3 -13 16 -19 43 -34 148
-52 351 -101 1167 -34 553 -59 767 -102 868 -26 59 -50 77 -104 77 -128 0
-152 -163 -224 -1545 -43 -834 -71 -1239 -85 -1253 -3 -3 -5 -1 -5 4 0 5 -7
77 -15 159 -8 83 -26 339 -40 570 -76 1250 -110 1455 -245 1455 -118 0 -159
-161 -205 -800 -33 -461 -67 -764 -97 -875 -9 -37 -11 -38 -19 -17 -14 38 -37
187 -64 422 -49 429 -80 541 -165 585 -40 21 -109 19 -147 -4 -69 -43 -96
-123 -138 -405 -32 -222 -50 -280 -86 -284 -41 -5 -58 35 -95 219 -37 189 -62
256 -110 298 -63 56 -159 53 -225 -6 -50 -45 -59 -63 -116 -221 -35 -98 -47
-145 -50 -206 l-5 -79 33 7 c37 7 93 55 116 101 9 16 33 81 54 144 40 119 60
151 90 151 22 0 40 -55 69 -219 23 -127 49 -209 81 -256 64 -92 186 -112 265
-43 64 57 93 142 125 373 29 212 49 295 69 295 10 0 37 -79 50 -148 5 -29 23
-173 40 -320 34 -303 43 -358 71 -448 56 -181 207 -206 275 -45 42 98 71 306
109 771 45 558 64 736 76 723 15 -16 57 -521 99 -1183 51 -818 80 -1014 154
-1065 21 -15 72 -20 101 -9 77 30 117 357 165 1379 45 946 82 1468 101 1433
10 -19 36 -334 64 -798 49 -789 71 -982 126 -1109 28 -66 59 -91 114 -91 58 0
103 33 137 100 37 74 52 137 93 390 63 394 83 410 170 135 49 -155 87 -225
137 -251 41 -22 126 -21 170 0 17 9 32 15 34 14 1 -2 8 -50 14 -108 32 -298
72 -510 111 -597 10 -23 19 -47 19 -52 0 -6 19 -46 42 -88 23 -43 62 -116 86
-163 24 -47 51 -97 60 -111 9 -15 40 -64 67 -109 82 -135 137 -187 160 -150
14 23 112 10 201 -26 149 -60 257 -74 401 -51 213 35 348 152 361 313 5 69
-17 219 -54 362 -13 51 -24 106 -24 122 0 27 3 30 29 30 24 0 46 -16 106 -77
42 -42 89 -95 105 -117 32 -46 64 -76 83 -76 6 0 21 -7 31 -15 11 -8 30 -15
42 -15 13 0 26 -5 29 -11 4 -6 13 -8 21 -5 8 3 14 2 14 -2 0 -5 26 -16 58 -26
31 -9 66 -21 77 -26 45 -21 109 -39 119 -33 6 3 7 2 3 -2 -9 -11 101 -47 116
-38 5 3 7 1 4 -4 -7 -12 87 -39 188 -55 104 -16 275 -21 337 -9 32 6 85 16
118 22 33 7 57 15 54 20 -3 5 2 6 11 3 19 -8 77 15 69 27 -3 5 2 6 10 3 8 -3
29 3 48 12 18 10 35 18 38 19 19 2 70 29 70 38 0 6 3 8 6 4 9 -8 64 21 64 33
0 6 3 9 8 8 13 -4 116 69 155 109 21 22 37 46 35 53 -2 8 2 14 7 15 28 1 150
149 138 168 -3 5 -2 7 4 4 24 -15 135 286 116 316 -3 6 -1 7 5 3 8 -5 12 1 12
14 0 11 11 31 25 44 14 13 26 36 28 52 2 16 13 49 25 74 11 25 27 65 35 90
l15 45 7 -37 c4 -21 10 -38 14 -38 4 0 20 -40 36 -90 16 -50 33 -86 38 -83 6
3 7 2 4 -4 -7 -12 22 -115 31 -109 4 2 7 -8 8 -23 1 -34 63 -163 75 -155 5 3
6 -3 2 -12 -4 -11 1 -22 12 -30 10 -8 16 -14 12 -14 -4 0 4 -23 18 -50 17 -33
30 -48 38 -44 7 4 9 4 5 -1 -7 -7 7 -26 77 -107 8 -10 12 -18 7 -18 -4 0 -2
-4 3 -8 6 -4 23 -24 38 -44 15 -21 35 -38 43 -38 8 0 13 -4 10 -9 -8 -13 31
-44 45 -35 8 4 10 3 5 -4 -4 -7 -3 -12 3 -12 6 0 25 -12 43 -27 45 -38 96 -65
108 -58 6 3 10 0 10 -8 0 -19 153 -85 240 -105 76 -18 475 -29 493 -14 7 5 51
12 100 16 48 4 99 11 115 15 15 5 53 14 85 21 36 7 55 15 51 22 -4 6 -2 8 4 4
14 -9 63 14 55 27 -4 6 -1 7 6 2 16 -9 92 25 84 38 -3 6 -2 7 4 4 14 -9 105
38 139 71 16 16 45 39 64 52 39 26 74 61 169 168 45 51 71 72 87 72 l24 0 0
-172 c-1 -131 -4 -179 -15 -198 -24 -42 -20 -174 8 -228 45 -92 193 -203 292
-219 20 -3 38 -10 41 -14 3 -5 35 -9 72 -9 63 0 93 5 302 45 47 9 112 20 145
26 151 24 222 86 316 270 16 32 33 60 38 64 6 3 19 25 30 48 20 41 66 126 86
157 15 24 86 228 105 305 22 90 54 338 47 366 -5 18 23 182 48 281 9 36 26 29
101 -43 70 -67 98 -80 169 -82 107 -2 152 53 220 268 87 275 107 259 170 -135
41 -253 56 -316 93 -390 34 -67 79 -100 137 -100 55 0 86 25 114 91 55 127 77
320 126 1109 28 464 54 779 64 798 17 31 50 -408 86 -1128 61 -1249 85 -1522
146 -1641 20 -41 35 -49 86 -49 115 0 146 162 203 1080 43 687 84 1175 100
1185 10 6 27 -142 55 -492 64 -789 92 -969 162 -1061 47 -62 115 -66 178 -11
61 54 91 166 125 474 11 105 27 242 36 305 15 119 48 250 63 250 21 0 41 -82
71 -298 43 -316 112 -426 256 -409 115 13 172 104 214 344 26 149 47 213 68
213 31 0 52 -35 94 -159 l43 -126 3 185 3 185 -30 27 c-33 30 -100 44 -151 33
-45 -10 -94 -57 -119 -116 -12 -28 -37 -126 -55 -218 -37 -184 -54 -224 -95
-219 -36 4 -54 62 -86 284 -42 282 -69 362 -138 405 -38 23 -107 25 -147 4
-85 -44 -116 -156 -165 -585 -27 -235 -50 -384 -64 -422 -8 -21 -10 -20 -19
17 -30 110 -65 427 -97 875 -45 638 -87 800 -205 800 -135 0 -169 -203 -245
-1455 -14 -231 -32 -487 -40 -570 -8 -82 -15 -154 -15 -159 0 -5 -2 -7 -5 -4
-14 14 -42 419 -85 1253 -42 803 -58 1039 -86 1245 -31 236 -61 300 -138 300
-54 0 -78 -18 -104 -77 -43 -101 -67 -305 -102 -868 -34 -558 -40 -654 -56
-825 -22 -245 -47 -395 -64 -385 -12 8 -35 117 -69 330 -36 228 -53 294 -90
359 -47 85 -136 110 -215 63 -66 -41 -112 -126 -157 -295 -42 -157 -70 -173
-157 -86 -55 55 -118 93 -154 94 -22 0 -22 16 -4 129 17 103 10 531 -8 557
-13 17 -81 47 -222 99 -118 43 -125 48 -159 109 -73 132 -98 166 -147 196 -40
25 -53 28 -69 20 -11 -6 -32 -10 -47 -8 -24 3 -27 7 -30 48 -4 49 -24 80 -54
80 -21 0 -21 3 -8 50 5 19 11 55 14 80 2 25 12 92 22 150 13 80 18 164 18 357
l1 251 32 5 c17 3 44 14 59 23 l27 18 -7 121 c-6 120 -25 255 -46 337 -6 24
-18 70 -27 103 -8 33 -19 69 -24 80 -4 11 -17 56 -28 100 -25 100 -39 139
-102 278 -58 128 -59 129 -124 257 -63 124 -172 294 -259 407 -23 29 -57 76
-76 104 -19 28 -51 68 -70 88 -19 20 -73 77 -120 127 -91 98 -339 320 -411
369 -24 16 -47 34 -50 38 -7 9 -89 67 -214 151 -71 47 -502 266 -524 266 -5 0
-31 11 -58 24 -26 12 -88 35 -138 51 -49 15 -106 34 -125 41 -30 12 -100 30
-290 73 -19 5 -75 14 -125 21 -49 6 -112 16 -140 21 -131 23 -541 37 -685 22z
m690 -451 c25 -6 74 -16 110 -22 36 -7 83 -16 105 -20 22 -5 69 -15 105 -23
36 -8 101 -26 145 -41 44 -14 84 -26 90 -26 6 0 29 -9 51 -19 22 -11 69 -29
104 -41 84 -28 257 -113 387 -190 56 -33 104 -60 107 -60 13 0 103 -64 231
-165 162 -127 402 -365 481 -477 30 -42 70 -92 90 -110 19 -18 65 -84 102
-146 180 -303 216 -372 256 -495 13 -39 33 -94 45 -120 12 -27 21 -59 21 -71
0 -12 6 -30 14 -41 7 -11 16 -31 19 -45 3 -14 13 -59 22 -100 47 -206 48 -212
71 -365 21 -142 17 -135 75 -135 37 0 49 -4 49 -15 0 -8 5 -15 11 -15 10 0 8
-157 -4 -325 -4 -44 -9 -122 -13 -173 -6 -88 -18 -122 -45 -122 -5 0 -9 -13
-9 -30 0 -25 -4 -30 -25 -30 -13 0 -45 7 -70 15 -44 15 -47 15 -85 -6 -26 -15
-49 -40 -70 -78 -17 -31 -35 -63 -40 -71 -10 -16 -43 -92 -60 -135 -8 -21 -16
-25 -49 -25 -48 0 -117 42 -126 77 -6 25 7 110 31 203 9 34 14 106 14 197 0
135 -2 153 -40 296 -58 226 -79 280 -143 375 -42 62 -261 293 -332 349 -33 27
-87 71 -120 98 -80 66 -108 86 -204 146 -77 48 -211 217 -266 335 -41 86 -176
289 -271 404 -85 104 -252 260 -304 283 -8 3 -37 20 -65 36 -111 66 -375 192
-450 214 -207 63 -201 62 -375 61 -158 -2 -170 -3 -280 -36 -191 -58 -285 -99
-430 -187 -47 -28 -96 -57 -110 -64 -27 -13 -104 -63 -134 -87 -43 -35 -266
-254 -266 -263 0 -5 -31 -50 -68 -100 -72 -97 -152 -214 -152 -221 0 -8 -41
-65 -88 -126 -67 -84 -199 -216 -251 -250 -71 -46 -153 -103 -170 -120 -9 -8
-53 -45 -98 -82 -136 -113 -180 -161 -295 -328 -112 -162 -207 -394 -223 -545
-3 -33 -11 -76 -17 -96 -7 -26 -7 -70 1 -149 12 -125 33 -183 82 -224 37 -32
40 -82 5 -123 -13 -15 -31 -43 -40 -61 -14 -27 -22 -33 -44 -30 -24 3 -27 8
-30 46 -3 37 -7 43 -30 48 -17 4 -40 23 -63 54 -20 26 -68 76 -107 110 -40 34
-76 69 -81 78 -8 14 -12 15 -22 5 -20 -20 -59 -15 -94 11 -27 21 -33 34 -38
78 -4 29 -13 96 -22 148 -17 111 -20 296 -4 372 6 29 19 60 30 70 12 11 19 29
19 55 0 87 39 328 72 448 11 39 30 109 43 157 13 48 28 95 33 105 5 10 14 32
20 48 16 47 70 174 101 240 16 33 43 89 60 125 40 84 173 294 248 390 156 201
459 497 599 586 16 10 48 34 70 54 23 19 64 46 90 60 27 14 98 55 159 91 107
64 215 119 232 119 5 0 14 5 21 12 14 14 106 48 297 112 183 62 441 114 635
130 97 8 727 -2 770 -12z m-337 -703 c52 -7 80 -18 119 -44 45 -32 67 -40 91
-36 5 1 6 -3 2 -9 -4 -6 -2 -17 5 -25 8 -10 8 -15 0 -20 -6 -4 -9 -14 -6 -22
3 -8 2 -12 -3 -9 -8 5 -32 -20 -113 -118 -9 -12 -30 -37 -46 -56 -36 -44 -102
-147 -102 -160 0 -10 -1 -11 -47 -15 -16 -1 -51 -6 -79 -10 -60 -9 -83 8 -46
33 12 8 22 24 22 36 0 33 -55 115 -116 172 -58 54 -65 75 -38 126 9 17 14 39
11 49 -3 11 -2 17 3 14 11 -7 31 20 22 30 -4 5 -2 6 3 2 6 -3 29 8 53 24 23
16 52 29 63 29 11 0 18 4 15 8 -2 4 10 6 29 4 18 -2 36 1 40 8 4 7 16 9 29 5
11 -4 52 -11 89 -16z m621 -273 c21 -10 46 -14 54 -11 9 3 13 3 9 -1 -9 -10
12 -34 30 -34 8 0 21 -7 30 -16 9 -8 22 -13 30 -10 8 3 11 2 8 -4 -5 -9 49
-44 70 -45 6 0 10 -5 10 -12 0 -16 91 -84 100 -75 5 4 5 2 2 -4 -8 -15 62 -85
77 -77 6 3 8 3 4 -2 -11 -12 21 -67 34 -59 7 5 8 3 4 -5 -5 -7 -1 -20 7 -29 9
-9 25 -37 37 -62 45 -97 66 -131 74 -123 5 4 6 3 2 -4 -8 -14 17 -56 27 -48 4
3 5 2 3 -1 -11 -15 61 -144 129 -231 46 -59 172 -156 192 -148 8 2 11 0 8 -5
-8 -12 43 -33 57 -24 6 4 8 2 5 -3 -9 -14 40 -46 55 -37 6 4 8 3 5 -4 -9 -13
82 -94 96 -85 6 3 7 1 3 -5 -4 -7 -3 -12 3 -12 6 0 28 -19 50 -41 25 -26 44
-38 52 -34 8 6 10 4 4 -4 -9 -15 33 -63 48 -54 6 3 7 1 3 -6 -10 -15 42 -84
56 -75 7 4 8 2 4 -5 -4 -6 7 -33 25 -59 36 -52 139 -255 139 -273 0 -6 11 -33
24 -59 26 -52 66 -194 66 -235 0 -15 5 -35 11 -46 18 -35 14 -296 -7 -360 -30
-91 -45 -110 -119 -148 -37 -20 -75 -46 -83 -58 -14 -22 -13 -23 15 -23 16 0
34 5 40 11 11 11 164 19 157 7 -2 -4 5 -9 16 -13 30 -10 75 -62 103 -119 55
-114 76 -162 82 -191 4 -16 11 -39 15 -50 30 -67 53 -384 31 -430 -5 -11 -12
-39 -15 -61 -3 -23 -19 -74 -35 -114 -17 -40 -28 -77 -25 -82 3 -5 1 -7 -4 -6
-13 4 -84 -101 -76 -113 3 -5 1 -8 -4 -7 -13 4 -144 -121 -137 -131 3 -5 -3
-7 -13 -5 -10 3 -34 -9 -57 -28 -22 -18 -57 -42 -77 -52 -21 -10 -35 -23 -31
-29 3 -6 1 -7 -4 -4 -15 9 -166 -66 -156 -77 4 -5 2 -6 -5 -2 -12 7 -153 -45
-176 -66 -6 -4 -17 -8 -25 -8 -23 -1 -123 -65 -114 -74 4 -4 0 -4 -8 -1 -25
10 -113 -76 -143 -141 -45 -94 -57 -264 -21 -294 18 -15 35 -4 35 23 0 35 74
157 133 220 29 31 51 60 48 64 -3 3 0 3 7 -1 13 -8 50 30 45 46 -2 4 4 5 12 2
8 -3 38 7 67 23 29 17 76 38 103 48 28 11 70 29 94 42 24 13 53 23 63 23 12 0
16 4 12 12 -4 7 -3 8 5 4 12 -8 76 17 86 34 3 6 13 10 21 10 8 0 32 11 54 25
22 14 44 25 50 25 10 0 67 37 80 51 3 3 20 11 37 18 19 8 30 18 26 25 -4 8 -2
8 7 -1 9 -8 10 -20 2 -45 -6 -18 -13 -53 -16 -77 -7 -48 -88 -241 -118 -281
-62 -83 -118 -162 -118 -166 0 -3 6 -2 13 2 7 4 9 3 4 -2 -5 -5 -12 -9 -16 -9
-4 0 -36 -25 -72 -56 -54 -47 -132 -100 -277 -190 -89 -56 -251 -129 -283
-129 -19 0 -39 -4 -45 -9 -5 -5 -51 -12 -103 -16 -75 -5 -92 -4 -89 7 3 7 17
15 33 18 16 3 30 10 32 16 5 14 -32 38 -69 48 -18 4 -28 13 -28 25 0 22 -23
44 -35 33 -5 -4 -5 -2 -2 4 4 6 -2 19 -13 29 -16 15 -43 18 -187 20 -193 2
-306 18 -380 52 -29 13 -66 26 -83 29 -16 4 -35 13 -41 20 -6 8 -19 14 -28 14
-16 0 -119 97 -164 155 -69 87 -116 169 -152 265 -10 25 -21 54 -25 65 -5 11
-15 50 -24 87 -19 78 -22 346 -6 443 10 57 13 280 6 375 -10 146 -44 303 -87
413 -21 53 -68 107 -93 107 -19 0 -17 16 30 250 8 41 17 87 20 101 7 30 -13
50 -27 28 -5 -8 -9 -31 -9 -51 0 -20 -4 -40 -10 -43 -5 -3 -10 -14 -10 -24 0
-10 -7 -32 -15 -47 -8 -16 -15 -40 -15 -53 0 -28 -17 -86 -85 -281 -47 -137
-59 -260 -52 -542 3 -130 10 -248 17 -268 8 -25 8 -61 0 -130 -5 -52 -14 -135
-19 -185 -9 -84 -42 -209 -61 -228 -7 -8 -91 39 -98 55 -2 4 -17 24 -34 45
-17 21 -41 61 -53 88 -13 28 -33 60 -44 72 -12 12 -26 33 -31 45 -17 38 -46
83 -74 113 -62 67 -148 212 -192 325 -27 68 -37 95 -59 145 -24 57 -47 150
-43 180 2 20 14 37 38 53 19 13 65 51 103 84 37 34 78 69 91 77 19 13 102 83
160 137 6 5 18 13 27 16 9 4 34 28 55 55 21 26 50 59 64 73 69 68 146 184 212
319 39 80 91 172 114 203 24 31 48 66 52 77 12 33 -4 185 -33 316 -15 66 -28
127 -30 136 -2 9 -8 33 -13 55 -18 70 -31 137 -48 251 -21 141 -15 502 10 598
17 68 45 188 52 225 3 14 18 58 35 98 16 41 29 79 29 86 0 7 22 51 50 97 48
82 188 229 217 229 19 0 63 22 58 29 -2 4 62 6 143 5 114 -1 156 -5 186 -18z
m-1111 -17 c113 -39 137 -55 166 -113 13 -25 31 -53 40 -63 19 -22 37 -59 45
-93 3 -14 19 -33 37 -43 22 -12 28 -21 21 -30 -26 -33 -66 -184 -81 -307 -6
-41 -14 -95 -20 -120 -13 -57 -13 -646 0 -720 30 -169 52 -410 45 -505 -9
-128 -44 -286 -73 -330 -7 -11 -13 -27 -13 -35 0 -9 -11 -27 -25 -40 -14 -13
-25 -32 -25 -43 0 -35 -56 -121 -123 -191 -37 -38 -77 -85 -90 -105 -13 -20
-68 -70 -123 -111 -54 -41 -110 -86 -124 -99 -14 -13 -47 -40 -75 -61 -68 -51
-162 -145 -208 -209 -21 -28 -50 -57 -65 -62 -31 -13 -171 -4 -186 11 -6 6
-16 10 -24 10 -7 0 -31 14 -53 32 -38 31 -76 96 -114 198 -9 25 -21 53 -26 62
-5 10 -9 22 -9 27 0 18 -51 86 -83 111 -28 22 -41 25 -109 24 -43 0 -78 3 -78
8 0 4 29 8 64 8 43 0 67 5 76 15 23 28 1 38 -69 32 -51 -5 -69 -11 -80 -27 -7
-11 -23 -20 -36 -20 -12 0 -30 -9 -40 -20 -10 -11 -24 -20 -31 -20 -6 0 -25
-15 -41 -33 -37 -42 -60 -134 -46 -180 10 -35 6 -97 -7 -97 -4 0 -25 14 -46
31 -61 49 -91 61 -114 49 -16 -8 -19 -17 -14 -38 13 -53 39 -83 112 -125 43
-24 78 -51 83 -64 5 -13 15 -23 24 -23 11 0 15 12 15 53 0 53 23 123 83 244
35 71 55 85 128 87 49 1 54 -1 76 -33 13 -19 28 -51 33 -73 14 -51 96 -214
129 -255 41 -53 107 -88 193 -103 104 -17 185 -3 281 50 14 8 17 6 17 -9 0
-11 4 -22 9 -25 5 -3 12 -18 15 -33 4 -16 13 -41 20 -58 8 -16 18 -41 24 -55
53 -131 70 -168 93 -205 15 -23 30 -52 34 -64 4 -12 24 -53 46 -91 21 -38 39
-73 39 -77 0 -4 10 -19 21 -33 11 -14 44 -61 73 -105 80 -118 202 -230 240
-219 12 4 18 3 14 -1 -4 -4 -3 -16 3 -26 12 -23 61 -25 79 -4 7 9 15 14 17 11
17 -17 -172 -352 -220 -389 -60 -48 -138 -127 -133 -136 3 -5 -2 -8 -12 -7 -9
0 -16 -4 -15 -10 1 -6 -4 -11 -12 -11 -12 0 -99 -38 -169 -75 -36 -19 -139
-48 -170 -48 -18 0 -37 -5 -43 -11 -15 -15 -273 -23 -358 -11 -71 10 -143 27
-180 42 -11 4 -47 15 -80 25 -56 16 -177 69 -200 88 -5 4 -53 35 -105 69 -52
34 -97 64 -100 68 -3 4 -12 11 -21 16 -54 30 -180 148 -232 217 -16 21 -33 34
-39 31 -6 -4 -8 -3 -5 3 4 6 -13 49 -37 96 -50 98 -66 180 -66 332 0 76 3 95
14 95 8 0 18 -9 21 -20 8 -25 44 -60 62 -60 7 0 15 11 19 24 6 25 12 24 94
-11 57 -25 108 -43 160 -58 170 -51 293 -141 397 -295 21 -30 40 -57 43 -60 9
-9 30 -45 41 -70 5 -14 18 -43 29 -65 10 -22 21 -51 25 -65 7 -27 19 -59 39
-100 14 -29 57 -38 75 -16 10 12 10 20 0 38 -14 26 -25 68 -39 158 -6 35 -15
69 -19 75 -5 5 -12 21 -16 35 -17 57 -155 230 -183 230 -4 0 -22 14 -40 30
-18 17 -66 45 -105 64 -142 68 -209 96 -226 96 -10 0 -24 6 -30 14 -6 8 -24
16 -39 19 -41 7 -129 41 -194 74 -14 7 -33 13 -41 13 -8 0 -34 21 -58 47 -24
27 -48 46 -54 45 -5 -2 -7 0 -3 4 4 4 -10 39 -31 78 -40 75 -48 94 -76 191
-10 33 -20 67 -23 75 -10 29 -12 57 -14 185 -1 97 3 148 16 200 20 78 63 204
95 279 12 27 20 55 17 63 -3 7 -1 12 5 10 6 -1 16 7 22 18 7 11 23 35 36 53
21 30 27 33 56 28 19 -4 64 -22 102 -42 78 -40 143 -55 143 -32 0 7 -12 21
-27 30 -16 9 -39 26 -53 37 -85 71 -101 82 -112 79 -6 -2 -20 4 -31 15 -10 10
-25 16 -33 13 -8 -3 -13 0 -11 7 1 7 -3 11 -8 10 -6 -1 -12 6 -13 15 0 9 -6
42 -11 72 -12 70 -13 258 -1 380 12 132 67 297 139 418 17 29 28 58 25 64 -4
7 -2 8 4 4 13 -8 36 30 27 44 -4 6 -2 9 3 8 5 -2 47 42 93 97 46 55 88 102 94
104 26 11 86 81 79 92 -4 8 -3 10 4 5 7 -4 32 8 57 26 24 18 56 41 70 51 14
10 22 23 19 30 -4 7 -4 9 0 5 11 -10 70 24 109 61 18 18 43 38 57 45 14 7 24
18 23 24 -2 6 4 9 13 5 16 -6 22 -2 107 84 69 69 120 140 111 155 -4 7 -2 8 4
4 17 -10 56 29 48 49 -3 9 -2 13 4 10 14 -9 116 164 105 179 -3 3 -2 4 2 1 10
-8 35 34 27 47 -4 6 -3 8 3 5 17 -10 81 73 75 96 -1 5 2 6 8 2 5 -3 10 -2 10
3 0 5 18 27 41 50 22 23 37 46 34 52 -4 6 -3 9 2 8 14 -5 123 93 116 105 -3 5
-1 7 4 4 13 -8 36 17 25 28 -4 5 -2 5 5 2 11 -7 94 31 143 66 13 9 40 17 60
17 19 0 42 5 50 10 32 21 139 11 233 -21z"/>
<path d="M7935 10881 c-56 -14 -94 -41 -95 -66 0 -6 15 -34 34 -63 35 -52 35
-52 11 -52 -70 0 -139 -125 -190 -341 -10 -46 -15 -119 -15 -248 0 -168 1
-182 18 -179 13 2 18 17 23 63 4 33 11 72 17 86 6 15 10 60 10 100 -1 77 14
136 60 249 21 49 37 71 67 92 43 30 74 35 93 16 18 -18 15 -55 -7 -75 -22 -21
-28 -45 -51 -188 -9 -60 -2 -156 19 -265 16 -78 33 -143 41 -155 4 -5 17 -39
30 -75 21 -57 52 -115 70 -130 4 -3 21 -26 38 -51 35 -52 114 -125 152 -142
14 -7 27 -14 30 -18 10 -11 137 -69 152 -69 22 0 87 -28 120 -52 16 -10 32
-16 38 -13 21 13 12 77 -22 151 -29 63 30 102 185 121 42 5 58 1 120 -30 40
-19 86 -41 104 -47 40 -15 66 -44 86 -98 34 -87 11 -253 -50 -361 -21 -36 -40
-70 -42 -76 -2 -5 -19 -36 -38 -68 -28 -47 -33 -60 -23 -72 7 -8 20 -15 29
-15 22 0 126 83 148 117 9 16 27 39 39 53 27 31 68 127 84 200 16 72 0 213
-32 278 -58 120 -144 202 -283 271 -57 28 -109 51 -117 51 -8 0 -19 5 -25 11
-7 7 -49 10 -117 7 l-106 -3 -53 -55 c-29 -30 -80 -78 -113 -107 l-61 -51 -49
47 c-108 106 -175 211 -216 336 -24 73 -66 330 -67 407 -1 48 3 61 24 82 14
14 25 34 25 44 0 35 58 69 74 43 3 -4 19 -11 35 -14 19 -4 42 -23 67 -54 43
-55 104 -113 120 -113 5 0 25 -27 44 -60 33 -59 60 -83 60 -54 0 23 -40 137
-54 154 -17 20 -76 143 -76 158 0 7 -11 30 -25 52 -14 22 -25 42 -25 46 0 16
-70 78 -112 100 -27 14 -62 44 -83 71 -47 62 -61 68 -120 54z"/>
<path d="M7591 9521 c-23 -18 -24 -21 -17 -107 3 -49 11 -102 16 -119 35 -117
45 -198 27 -226 -8 -13 -17 -51 -20 -84 -6 -56 -4 -62 26 -100 18 -22 46 -60
62 -85 16 -25 37 -54 46 -65 10 -11 31 -51 48 -90 34 -81 54 -92 75 -41 18 42
27 43 81 11 22 -13 61 -34 86 -45 l47 -21 7 -117 c8 -140 16 -174 63 -272 47
-98 114 -164 217 -213 169 -82 256 -54 323 103 11 25 22 64 26 88 8 56 -7 55
-75 -3 -52 -44 -54 -45 -127 -45 -57 0 -85 5 -126 25 -65 31 -85 53 -121 135
-32 73 -40 177 -16 227 8 15 21 44 30 63 9 19 22 39 29 43 6 4 12 14 12 21 0
8 7 19 15 26 27 22 13 42 -30 46 -22 2 -64 7 -92 12 -29 5 -53 5 -53 1 0 -5
-12 -9 -26 -9 -22 0 -25 2 -14 15 11 13 7 17 -21 27 -130 45 -252 128 -309
208 -75 106 -125 307 -143 569 -2 41 -14 47 -46 22z"/>
<path d="M8944 8386 c-53 -35 -59 -46 -124 -221 -12 -33 -33 -86 -46 -118 -13
-32 -24 -65 -24 -72 0 -46 -77 -193 -102 -195 -4 0 -30 -25 -59 -55 -48 -51
-239 -195 -259 -195 -4 0 -10 -6 -13 -14 -7 -18 -142 -90 -229 -121 -71 -25
-62 -75 12 -75 35 1 116 20 135 32 6 3 27 9 47 13 20 4 54 21 75 39 21 17 51
37 67 44 32 14 64 41 105 86 47 53 129 131 241 230 50 44 130 151 130 175 0 9
12 48 26 86 15 39 33 97 41 130 22 86 25 90 73 93 72 5 150 -59 333 -276 37
-44 67 -84 67 -90 0 -5 7 -12 15 -16 8 -3 15 -12 15 -19 0 -8 7 -20 16 -27 12
-11 18 -10 31 3 14 14 15 23 4 74 -27 120 -52 217 -65 247 -15 34 -142 186
-156 186 -5 0 -25 14 -44 30 -38 34 -97 50 -196 56 -60 4 -69 1 -116 -30z"/>
<path d="M6835 10915 c-42 -18 -83 -59 -91 -89 -4 -16 1 -41 14 -68 26 -55 35
-98 22 -98 -17 0 -11 -27 13 -57 22 -28 31 -44 61 -113 21 -49 40 -154 33
-187 -3 -15 -1 -36 4 -45 11 -21 49 -24 67 -6 15 15 16 130 1 145 -8 8 -8 13
0 17 19 12 12 84 -15 159 -35 97 -39 120 -24 173 9 29 9 49 3 55 -16 16 -41
-1 -48 -32 l-7 -29 -24 35 c-28 41 -23 61 15 68 43 9 66 -1 85 -36 36 -69 68
-117 76 -117 16 0 20 35 10 92 -7 46 -16 63 -42 88 -18 16 -44 32 -58 36 -14
3 -33 9 -42 15 -10 5 -19 9 -20 8 -2 0 -16 -7 -33 -14z"/>
<path d="M6939 9898 c-38 -50 -59 -86 -59 -98 0 -11 -52 -129 -72 -165 -25
-43 -73 -122 -97 -160 -38 -58 -121 -137 -169 -160 -55 -27 -57 -55 -4 -55 78
0 158 60 271 204 65 83 73 99 116 230 25 78 51 150 56 162 13 25 8 66 -7 71
-6 2 -22 -11 -35 -29z"/>
<path d="M5980 9580 c-94 -5 -111 -9 -165 -39 -33 -18 -68 -40 -78 -48 -28
-26 -67 -119 -67 -160 0 -64 58 -197 118 -268 38 -45 181 -164 238 -198 65
-39 92 -45 112 -25 22 22 13 35 -60 90 -87 66 -207 184 -228 224 -8 16 -25 46
-37 66 -30 49 -31 128 -3 168 25 35 105 85 151 95 89 18 212 71 206 89 -4 13
-44 14 -187 6z"/>
<path d="M7460 6943 c0 -25 15 -38 25 -22 4 6 0 18 -9 27 -15 15 -16 15 -16
-5z"/>
<path d="M5470 6055 c0 -57 -3 -66 -24 -81 -16 -10 -41 -14 -68 -13 -39 3 -44
1 -63 -31 -18 -31 -20 -51 -19 -190 1 -155 11 -226 52 -380 10 -41 23 -92 26
-114 4 -21 25 -75 46 -120 21 -44 57 -123 79 -173 54 -123 197 -350 276 -437
11 -12 36 -42 55 -66 28 -35 238 -232 275 -258 6 -4 44 -34 85 -66 41 -32 84
-62 95 -67 11 -5 40 -23 65 -39 25 -16 72 -43 105 -60 33 -17 76 -39 95 -49
141 -77 253 -114 505 -171 50 -11 111 -27 136 -35 26 -8 56 -15 67 -15 28 0
32 -37 31 -305 -1 -393 -15 -467 -94 -491 -22 -6 -67 -17 -100 -24 -33 -6 -82
-20 -110 -30 -27 -10 -77 -27 -110 -38 -92 -31 -199 -85 -320 -162 -60 -39
-134 -81 -163 -95 -61 -29 -202 -152 -202 -176 0 -5 541 -9 1297 -9 l1297 0
-43 40 c-24 22 -62 56 -84 74 -42 35 -223 156 -233 156 -2 0 -26 15 -52 33
-68 46 -244 131 -337 163 -44 14 -131 39 -194 55 -70 18 -119 36 -127 47 -17
23 -22 104 -29 458 l-5 301 42 6 c51 7 149 29 233 52 33 9 89 23 125 30 118
25 204 60 350 141 47 26 126 67 175 92 50 25 110 62 135 81 25 20 49 39 55 44
69 52 111 89 234 205 179 170 189 181 206 213 8 14 38 61 67 104 90 133 153
239 178 301 13 32 33 79 46 104 40 82 101 276 128 413 31 148 38 266 22 349
-19 97 -37 132 -93 186 -51 47 -61 50 -90 23 -12 -11 -24 -17 -27 -14 -3 4 -6
-1 -6 -11 0 -9 -4 -15 -8 -12 -13 8 -74 -52 -66 -66 4 -6 3 -8 -3 -5 -18 11
-44 -61 -54 -147 -14 -132 -28 -217 -40 -254 -6 -18 -9 -42 -6 -53 3 -10 2
-17 -3 -14 -10 6 -22 -54 -13 -68 3 -6 1 -7 -5 -3 -11 7 -16 -17 -15 -61 1 -7
-4 -10 -10 -6 -6 4 -8 0 -4 -11 4 -9 3 -15 -2 -12 -11 7 -34 -47 -35 -84 -1
-15 -4 -26 -9 -23 -4 2 -12 -6 -17 -19 -5 -13 -14 -30 -19 -38 -49 -79 -70
-123 -65 -132 4 -6 3 -8 -3 -5 -14 9 -56 -61 -49 -80 3 -8 2 -12 -3 -9 -11 7
-53 -69 -43 -79 4 -5 2 -5 -4 -2 -12 7 -99 -87 -99 -107 0 -6 -5 -11 -10 -11
-14 0 -43 -29 -98 -98 -26 -32 -47 -54 -47 -50 -1 4 -7 -3 -15 -17 -8 -14 -14
-21 -15 -17 0 5 -14 -1 -30 -13 -17 -12 -27 -27 -24 -33 4 -7 4 -9 -1 -5 -4 4
-21 -3 -37 -15 -17 -12 -42 -29 -57 -38 -14 -9 -25 -22 -24 -28 2 -6 0 -10 -5
-9 -14 5 -91 -45 -85 -55 3 -6 1 -7 -5 -3 -14 8 -74 -28 -64 -39 4 -5 2 -5 -5
-1 -14 8 -105 -39 -95 -50 4 -4 2 -4 -5 0 -15 8 -64 -14 -57 -26 3 -5 2 -8 -3
-7 -15 3 -93 -14 -93 -20 0 -4 -12 -8 -27 -9 -15 -1 -29 -5 -32 -10 -3 -4 -13
-8 -21 -9 -8 -1 -42 -9 -75 -18 -33 -10 -82 -23 -108 -29 -26 -6 -45 -14 -42
-18 3 -3 -130 -6 -297 -6 -206 0 -305 3 -310 11 -3 6 -28 11 -55 11 -26 1 -50
4 -53 8 -8 10 -133 37 -144 31 -5 -4 -6 -2 -3 4 3 5 -26 20 -66 33 -40 12
-105 38 -144 56 -40 18 -73 31 -73 28 0 -3 -9 4 -20 14 -23 21 -108 65 -126
65 -7 0 -11 4 -8 9 3 4 -3 11 -13 15 -10 4 -43 28 -74 55 -30 26 -61 48 -67
48 -7 0 -12 6 -12 14 0 8 -10 18 -22 22 -23 7 -30 12 -82 62 -19 17 -32 32
-28 32 3 0 -11 18 -33 40 -21 21 -43 36 -48 33 -6 -3 -7 -1 -3 5 3 6 -2 17
-12 24 -11 7 -20 18 -22 23 -1 6 -24 34 -51 63 -26 28 -46 52 -43 52 2 0 -3
11 -12 25 -9 14 -20 22 -25 19 -5 -3 -8 -2 -7 3 4 14 -13 53 -23 53 -5 0 -8 3
-8 8 3 20 -2 32 -13 26 -7 -4 -8 -3 -4 4 4 6 -2 20 -14 32 -11 11 -18 20 -15
20 10 0 -17 45 -32 53 -7 5 -11 12 -8 17 7 11 -36 100 -48 100 -4 0 -5 4 -2
10 5 9 -20 68 -34 80 -3 3 -6 10 -6 15 -1 26 -29 124 -34 120 -4 -2 -7 4 -8
13 -5 62 -58 318 -67 324 -6 4 -7 8 -2 8 5 0 -1 12 -15 26 -16 18 -20 28 -11
31 16 6 16 106 -1 153 -6 20 -20 48 -30 63 -9 14 -17 30 -17 36 0 7 -69 41
-85 41 -3 0 -5 -29 -5 -65z"/>
</g>
</svg>
