<?xml version="1.0" standalone="no"?>
<!DOCTYPE svg PUBLIC "-//W3C//DTD SVG 20010904//EN"
 "http://www.w3.org/TR/2001/REC-SVG-20010904/DTD/svg10.dtd">
<svg version="1.0" xmlns="http://www.w3.org/2000/svg"
 width="500.000000pt" height="500.000000pt" viewBox="0 0 500.000000 500.000000"
 preserveAspectRatio="xMidYMid meet">
<metadata>
Created by potrace 1.14, written by Peter Selinger 2001-2017
</metadata>
<g transform="translate(0.000000,500.000000) scale(0.100000,-0.100000)"
fill="#000000" stroke="none">
<path d="M1475 4005 c-79 -13 -140 -32 -196 -61 -16 -8 -29 -11 -29 -7 0 5 -5
0 -11 -10 -6 -9 -14 -15 -20 -12 -5 4 -9 1 -9 -4 0 -6 -6 -11 -12 -11 -15 -1
-128 -107 -171 -160 -27 -32 -42 -62 -95 -180 -23 -53 -46 -208 -37 -259 3
-20 7 -57 10 -83 5 -63 79 -240 117 -282 10 -11 18 -26 18 -33 0 -8 3 -12 8
-10 4 3 21 -13 37 -34 17 -21 34 -38 38 -39 5 0 22 -12 37 -27 47 -46 69 -63
80 -63 6 0 20 -9 32 -20 12 -11 27 -20 33 -20 6 0 29 -9 50 -20 43 -22 156
-47 270 -60 151 -17 263 -29 330 -36 39 -4 86 -14 105 -22 34 -14 160 -135
160 -154 0 -5 7 -16 15 -25 14 -14 9 -21 -51 -77 -37 -33 -87 -75 -111 -93
-24 -17 -55 -42 -67 -55 -31 -31 -103 -88 -111 -88 -4 0 -16 -11 -27 -25 -11
-14 -25 -25 -31 -25 -7 0 -22 -11 -34 -23 -12 -13 -40 -36 -63 -52 -23 -16
-62 -48 -87 -72 -25 -24 -68 -59 -97 -77 -28 -19 -69 -52 -91 -76 -22 -23 -56
-50 -75 -60 -42 -22 -79 -60 -84 -86 -2 -10 -9 -39 -16 -64 -14 -51 -7 -126
16 -173 9 -18 34 -45 55 -62 22 -16 56 -45 77 -62 20 -18 41 -33 45 -33 5 0
20 -14 34 -30 13 -17 29 -30 35 -30 5 0 24 -12 43 -26 34 -25 67 -34 140 -36
73 -2 150 54 194 141 11 20 28 45 40 55 12 11 21 25 21 32 0 7 11 26 25 42 32
38 95 132 95 142 0 4 11 19 25 34 14 15 25 29 25 32 0 3 9 18 20 32 12 15 50
72 87 127 36 55 84 126 107 159 23 32 48 70 56 85 8 15 28 44 43 64 l29 37 31
-39 c56 -68 92 -116 92 -121 0 -7 113 -148 125 -155 6 -4 8 -10 5 -14 -2 -5
10 -26 28 -47 46 -55 87 -112 87 -119 0 -4 23 -32 50 -62 28 -31 60 -73 70
-94 11 -21 45 -67 76 -101 31 -35 63 -79 72 -98 20 -46 70 -87 134 -111 44
-17 67 -19 136 -14 45 4 82 11 82 16 0 5 6 9 14 9 13 0 54 41 130 133 21 26
50 60 65 76 60 66 93 113 107 153 43 121 -7 252 -117 309 -21 10 -39 22 -41
27 -1 5 -30 27 -63 49 -33 23 -71 52 -85 65 -14 13 -56 43 -95 67 -38 24 -83
57 -100 73 -16 16 -51 43 -77 60 -27 16 -48 34 -48 40 0 5 -4 7 -9 4 -5 -4
-11 -3 -13 2 -1 4 -25 22 -53 39 -27 18 -65 46 -83 63 -18 16 -37 30 -42 30
-4 0 -10 4 -12 8 -1 5 -25 23 -53 42 -27 18 -52 36 -55 40 -3 3 -17 15 -32 26
l-26 21 26 21 c15 11 50 39 77 62 28 22 89 72 138 111 48 39 87 74 87 77 0 4
27 24 59 45 33 21 67 49 75 63 9 13 22 24 30 24 7 0 21 10 32 21 10 12 35 32
54 44 19 12 64 50 100 84 36 33 69 61 73 61 12 0 72 47 121 96 25 24 55 46 68
50 84 23 135 223 83 325 -16 31 -85 92 -161 144 -20 14 -33 25 -29 25 5 0 -5
11 -20 24 -16 14 -32 23 -35 21 -4 -2 -19 9 -35 24 -21 23 -40 31 -89 37 -80
10 -103 7 -150 -21 -40 -24 -106 -98 -106 -119 0 -6 -12 -25 -27 -42 -16 -17
-35 -43 -43 -56 -26 -44 -95 -143 -103 -149 -5 -3 -8 -9 -8 -13 1 -3 -36 -61
-82 -129 -46 -67 -96 -140 -111 -162 -35 -53 -71 -105 -93 -134 -10 -13 -27
-38 -38 -56 -11 -18 -39 -61 -63 -94 -23 -34 -39 -61 -35 -61 4 -1 -1 -8 -12
-18 -11 -9 -31 -34 -44 -54 -21 -35 -45 -49 -53 -30 -1 5 -25 23 -53 42 -27
19 -55 41 -62 49 -16 22 -22 77 -28 281 -13 381 -16 423 -43 484 -12 27 -22
56 -22 65 0 9 -11 33 -25 53 -14 20 -25 40 -25 43 0 4 -6 12 -12 20 -7 7 -42
47 -78 88 -76 88 -191 168 -300 209 -64 25 -240 61 -274 57 -6 -1 -47 -7 -91
-14z m183 -301 c69 -19 183 -74 189 -91 3 -7 10 -13 16 -13 14 0 91 -85 109
-119 7 -14 18 -30 25 -36 27 -23 51 -133 37 -169 -7 -19 -47 -21 -62 -3 -9 10
-30 76 -38 114 -5 25 -96 133 -113 133 -5 0 -12 7 -15 15 -7 19 -118 73 -166
81 -19 3 -44 9 -55 14 -11 5 -30 12 -42 15 -16 4 -23 14 -23 30 0 29 38 58 65
50 11 -4 44 -13 73 -21z m1852 -306 c19 -15 30 -28 25 -28 -15 0 -115 90 -115
103 0 6 12 -2 28 -18 15 -17 43 -42 62 -57z m-16 -1890 c-3 -4 -11 -8 -19 -8
-7 0 -16 -8 -20 -17 -8 -25 -74 -98 -81 -91 -8 9 23 57 70 105 27 29 42 39 47
31 4 -7 5 -16 3 -20z m-1823 -115 c21 -19 39 -40 39 -45 0 -6 -12 3 -27 19
-16 16 -44 41 -63 57 -20 16 -25 23 -12 16 13 -6 41 -28 63 -47z"/>
</g>
</svg>
