<?xml version="1.0" standalone="no"?>
<!DOCTYPE svg PUBLIC "-//W3C//DTD SVG 20010904//EN"
 "http://www.w3.org/TR/2001/REC-SVG-20010904/DTD/svg10.dtd">
<svg version="1.0" xmlns="http://www.w3.org/2000/svg"
 width="500.000000pt" height="500.000000pt" viewBox="0 0 500.000000 500.000000"
 preserveAspectRatio="xMidYMid meet">
<metadata>
Created by potrace 1.14, written by Peter Selinger 2001-2017
</metadata>
<g transform="translate(0.000000,500.000000) scale(0.100000,-0.100000)"
fill="#000000" stroke="none">
<path d="M1480 4005 c-77 -12 -149 -33 -201 -60 -16 -9 -29 -12 -29 -8 0 5 -5
0 -11 -10 -6 -9 -14 -15 -20 -12 -5 4 -9 1 -9 -4 0 -6 -6 -11 -12 -11 -15 -1
-128 -107 -171 -160 -28 -34 -52 -80 -96 -185 -48 -116 -46 -327 4 -447 41
-98 68 -151 87 -172 10 -11 18 -26 18 -33 0 -8 3 -12 8 -10 4 3 21 -13 37 -34
17 -21 34 -38 38 -39 5 0 22 -12 37 -27 51 -49 70 -63 85 -63 8 0 15 -4 15 -8
0 -5 10 -14 23 -20 19 -10 93 -42 107 -47 3 -1 12 -4 20 -7 20 -7 193 -36 255
-43 28 -3 66 -7 85 -9 19 -3 85 -10 145 -16 61 -6 121 -14 135 -17 14 -3 30
-7 36 -9 7 -1 21 -11 32 -22 11 -11 23 -21 28 -23 12 -5 94 -105 94 -114 0 -4
8 -14 17 -21 16 -11 11 -18 -51 -76 -38 -34 -89 -77 -113 -95 -24 -17 -55 -42
-67 -55 -31 -31 -103 -88 -111 -88 -4 0 -16 -11 -27 -25 -11 -14 -25 -25 -31
-25 -7 0 -22 -11 -34 -23 -12 -13 -40 -36 -62 -51 -22 -16 -64 -51 -93 -78
-29 -28 -65 -56 -80 -64 -16 -8 -28 -20 -28 -26 0 -6 -3 -9 -6 -5 -4 3 -31
-17 -61 -46 -30 -29 -69 -59 -86 -69 -39 -20 -76 -58 -81 -84 -2 -10 -9 -39
-16 -64 -14 -51 -7 -126 16 -173 9 -18 34 -45 55 -62 22 -16 56 -45 77 -62 20
-18 41 -33 45 -33 5 0 20 -14 34 -30 13 -17 29 -30 35 -30 5 0 24 -12 43 -26
55 -42 158 -48 222 -14 49 25 81 60 119 130 15 28 31 50 35 50 5 0 16 15 24
33 8 17 35 59 60 92 25 33 52 75 62 93 9 19 22 36 30 39 7 3 13 10 13 17 0 6
9 22 20 36 23 30 156 226 186 276 11 18 30 44 42 57 12 13 22 28 22 34 0 5 16
31 36 56 l36 46 32 -38 c62 -77 91 -116 91 -124 0 -4 5 -11 10 -15 6 -4 27
-30 47 -57 20 -28 46 -59 57 -69 11 -10 19 -22 16 -26 -2 -4 4 -16 13 -26 26
-28 102 -132 102 -140 0 -3 15 -21 34 -40 19 -19 56 -67 82 -107 26 -40 67
-94 92 -122 24 -27 51 -65 60 -85 20 -46 70 -87 133 -110 41 -15 69 -18 133
-14 44 2 83 9 84 14 2 6 9 10 15 10 13 0 67 55 131 133 21 26 50 60 65 76 94
103 122 160 122 246 1 65 -30 133 -81 179 -22 20 -45 36 -50 36 -6 0 -19 9
-29 19 -11 11 -42 34 -69 53 -28 18 -67 48 -88 66 -22 18 -68 51 -104 74 -36
22 -75 51 -88 64 -13 12 -47 39 -77 60 -30 20 -55 41 -55 46 0 5 -4 6 -10 3
-5 -3 -10 -1 -10 4 0 6 -5 11 -11 11 -14 0 -149 101 -149 112 0 4 -6 8 -14 8
-8 0 -16 4 -18 8 -1 5 -25 23 -53 42 -27 19 -56 40 -63 47 -8 7 -23 18 -34 24
-23 12 -29 5 87 99 28 22 89 72 138 111 48 39 87 74 87 77 0 4 27 24 59 45 33
21 67 49 75 63 9 13 23 24 31 24 8 0 18 6 22 13 4 8 31 30 60 50 28 20 78 61
110 92 32 30 62 55 66 55 12 0 72 47 121 96 25 24 55 46 68 50 81 22 135 223
86 319 -17 32 -95 103 -164 150 -20 14 -33 25 -29 25 5 0 -5 11 -20 24 -16 14
-32 24 -36 23 -3 -1 -20 10 -37 25 -30 26 -114 46 -172 39 -36 -4 -105 -48
-126 -79 -10 -15 -24 -33 -31 -40 -7 -7 -13 -19 -13 -25 0 -7 -12 -26 -27 -43
-16 -17 -35 -43 -43 -56 -26 -44 -95 -143 -103 -149 -5 -3 -8 -9 -8 -13 1 -3
-36 -61 -82 -129 -46 -67 -96 -140 -111 -162 -35 -53 -71 -105 -93 -134 -10
-13 -27 -38 -38 -56 -11 -18 -39 -61 -63 -94 -23 -34 -39 -61 -35 -61 4 -1 -1
-8 -12 -18 -11 -9 -31 -34 -44 -54 -20 -33 -51 -52 -51 -30 0 4 -24 22 -54 41
-85 55 -81 41 -91 311 -14 396 -17 441 -43 502 -11 23 -22 56 -26 72 -4 17
-16 42 -27 57 -10 15 -19 30 -19 34 0 3 -6 12 -12 20 -7 7 -42 47 -78 88 -163
188 -426 288 -660 252z m135 -289 c6 -1 29 -8 53 -15 62 -17 173 -72 179 -88
3 -7 10 -13 16 -13 14 0 91 -85 109 -119 7 -14 18 -30 24 -36 6 -5 16 -23 22
-40 5 -16 13 -39 18 -50 17 -47 2 -95 -30 -95 -13 0 -28 6 -34 13 -9 10 -30
76 -38 114 -5 25 -96 133 -113 133 -5 0 -12 7 -15 15 -7 19 -118 73 -166 81
-19 3 -54 13 -77 21 -34 12 -43 21 -43 39 0 28 38 57 65 49 11 -3 25 -7 30 -9z
m1895 -318 c19 -15 30 -28 25 -28 -15 0 -115 90 -115 103 0 6 12 -2 28 -18 15
-17 43 -42 62 -57z m-36 -1905 c-16 -15 -44 -46 -61 -67 -34 -42 -54 -44 -32
-5 23 43 102 120 112 110 7 -7 0 -20 -19 -38z m-1803 -100 c21 -19 39 -40 39
-45 0 -6 -12 3 -27 19 -16 16 -44 41 -63 57 -20 16 -25 23 -12 16 13 -6 41
-28 63 -47z"/>
</g>
</svg>
