<?xml version="1.0" standalone="no"?>
<!DOCTYPE svg PUBLIC "-//W3C//DTD SVG 20010904//EN"
 "http://www.w3.org/TR/2001/REC-SVG-20010904/DTD/svg10.dtd">
<svg version="1.0" xmlns="http://www.w3.org/2000/svg"
 width="411.000000pt" height="411.000000pt" viewBox="0 0 411.000000 411.000000"
 preserveAspectRatio="xMidYMid meet">
<metadata>
Created by potrace 1.14, written by Peter Selinger 2001-2017
</metadata>
<g transform="translate(0.000000,411.000000) scale(0.100000,-0.100000)"
fill="#000000" stroke="none">
<path d="M290 3727 c-151 -39 -234 -109 -271 -228 -18 -58 -19 -108 -19 -1233
0 -1284 -3 -1223 60 -1351 45 -92 121 -157 360 -311 371 -237 364 -234 434
-234 49 0 69 5 97 24 70 48 68 34 69 609 1 285 3 517 5 517 3 0 76 -89 163
-197 213 -266 310 -356 456 -424 111 -52 169 -59 509 -59 169 0 307 4 307 8 0
4 -173 226 -385 492 -212 267 -385 488 -385 491 0 3 22 11 49 18 227 58 467
277 587 536 56 121 76 211 81 370 6 163 -13 279 -66 406 -95 229 -327 459
-539 536 -143 52 -158 53 -815 52 -597 0 -614 -1 -697 -22z m7 -600 c27 -27
88 -76 138 -110 89 -60 271 -167 285 -167 4 0 28 -22 53 -49 82 -87 77 -16 77
-1209 0 -929 -2 -1053 -15 -1048 -8 3 -126 76 -262 162 -296 188 -351 236
-381 336 -24 77 -23 24 -22 1433 l1 850 39 -74 c22 -41 61 -97 87 -124z m1220
-88 c111 -45 159 -85 194 -163 23 -50 24 -106 4 -172 -23 -78 -67 -129 -143
-166 l-67 -33 -240 0 -240 0 -6 105 c-11 192 -76 300 -232 389 -31 18 -55 37
-52 42 9 14 747 12 782 -2z"/>
<path d="M3989 3307 c-42 -34 -150 -125 -240 -202 -346 -294 -482 -407 -724
-602 -412 -331 -717 -579 -859 -696 -21 -18 -44 -35 -52 -40 -14 -8 -30 -70
-25 -102 4 -26 38 -71 130 -170 41 -44 151 -177 246 -296 215 -268 284 -332
429 -400 111 -52 169 -59 509 -59 169 0 307 4 307 8 0 4 -148 194 -330 422
-181 228 -329 417 -330 420 0 3 91 75 202 160 112 85 210 161 218 170 9 8 99
85 201 170 253 213 316 282 371 410 48 109 50 128 50 449 0 421 0 421 -14 421
-7 0 -47 -28 -89 -63z"/>
</g>
</svg>
