<svg id="svg" xmlns="http://www.w3.org/2000/svg" xmlns:xlink="http://www.w3.org/1999/xlink" width="400" height="400" viewBox="0, 0, 400,400" version="1.1"><g id="svgg"><path id="path0" d="M123.600 78.400 C 123.600 78.629,122.400 78.800,120.800 78.800 C 119.200 78.800,118.000 78.971,118.000 79.200 C 118.000 79.433,116.667 79.600,114.800 79.600 C 112.933 79.600,111.600 79.767,111.600 80.000 C 111.600 80.220,111.240 80.400,110.800 80.400 C 110.360 80.400,110.000 80.580,110.000 80.800 C 110.000 81.020,109.640 81.200,109.200 81.200 C 108.760 81.200,108.400 81.380,108.400 81.600 C 108.400 81.820,107.680 82.000,106.800 82.000 C 105.920 82.000,105.200 82.180,105.200 82.400 C 105.200 82.620,104.840 82.800,104.400 82.800 C 103.960 82.800,103.600 82.980,103.600 83.200 C 103.600 83.420,103.240 83.600,102.800 83.600 C 102.360 83.600,102.000 83.780,102.000 84.000 C 102.000 84.220,101.280 84.400,100.400 84.400 C 99.067 84.400,98.800 84.533,98.800 85.200 C 98.800 85.822,98.533 86.000,97.600 86.000 C 96.667 86.000,96.400 86.178,96.400 86.800 C 96.400 87.390,96.133 87.600,95.383 87.600 C 94.642 87.600,93.506 88.469,91.200 90.800 C 89.459 92.560,87.841 94.000,87.604 94.000 C 87.031 94.000,84.400 96.650,84.400 97.226 C 84.400 97.475,83.860 98.183,83.200 98.800 C 82.540 99.417,82.000 100.209,82.000 100.560 C 82.000 100.933,81.666 101.200,81.200 101.200 C 80.700 101.200,80.400 101.467,80.400 101.912 C 80.400 102.303,80.040 102.883,79.600 103.200 C 79.160 103.517,78.800 104.097,78.800 104.488 C 78.800 104.880,78.620 105.200,78.400 105.200 C 78.180 105.200,78.000 105.700,78.000 106.312 C 78.000 106.965,77.670 107.661,77.200 108.000 C 76.730 108.339,76.400 109.035,76.400 109.688 C 76.400 110.300,76.220 110.800,76.000 110.800 C 75.780 110.800,75.600 111.160,75.600 111.600 C 75.600 112.040,75.420 112.400,75.200 112.400 C 74.980 112.400,74.800 112.900,74.800 113.512 C 74.800 114.165,74.470 114.861,74.000 115.200 C 73.530 115.539,73.200 116.235,73.200 116.888 C 73.200 117.500,73.020 118.000,72.800 118.000 C 72.578 118.000,72.400 119.067,72.400 120.400 C 72.400 121.733,72.222 122.800,72.000 122.800 C 71.767 122.800,71.600 124.133,71.600 126.000 C 71.600 127.867,71.433 129.200,71.200 129.200 C 70.963 129.200,70.800 130.667,70.800 132.800 C 70.800 134.933,70.963 136.400,71.200 136.400 C 71.428 136.400,71.600 137.589,71.600 139.167 C 71.600 140.989,71.771 142.013,72.100 142.167 C 72.500 142.353,72.500 142.447,72.100 142.633 C 71.508 142.909,71.419 145.200,72.000 145.200 C 72.220 145.200,72.400 145.740,72.400 146.400 C 72.400 147.060,72.580 147.600,72.800 147.600 C 73.020 147.600,73.200 148.140,73.200 148.800 C 73.200 149.460,73.380 150.000,73.600 150.000 C 73.820 150.000,74.000 150.360,74.000 150.800 C 74.000 151.240,74.180 151.600,74.400 151.600 C 74.620 151.600,74.800 151.960,74.800 152.400 C 74.800 152.840,74.980 153.200,75.200 153.200 C 75.420 153.200,75.600 153.560,75.600 154.000 C 75.600 154.440,75.780 154.800,76.000 154.800 C 76.220 154.800,76.400 155.520,76.400 156.400 C 76.400 157.280,76.580 158.000,76.800 158.000 C 77.020 158.000,77.200 158.360,77.200 158.800 C 77.200 159.240,77.380 159.600,77.600 159.600 C 77.820 159.600,78.000 159.920,78.000 160.312 C 78.000 160.703,78.360 161.283,78.800 161.600 C 79.270 161.939,79.600 162.635,79.600 163.288 C 79.600 164.133,79.792 164.400,80.400 164.400 C 80.900 164.400,81.200 164.667,81.200 165.112 C 81.200 165.503,81.560 166.083,82.000 166.400 C 82.470 166.739,82.800 167.435,82.800 168.088 C 82.800 168.817,83.010 169.200,83.409 169.200 C 84.201 169.200,88.400 173.399,88.400 174.191 C 88.400 174.578,88.774 174.800,89.429 174.800 C 90.494 174.800,91.600 175.610,91.600 176.390 C 91.600 177.054,93.470 178.800,94.182 178.800 C 94.522 178.800,94.800 178.980,94.800 179.200 C 94.800 179.420,95.083 179.600,95.429 179.600 C 96.237 179.600,97.200 180.563,97.200 181.371 C 97.200 181.838,97.612 182.000,98.800 182.000 C 100.133 182.000,100.400 182.133,100.400 182.800 C 100.400 183.300,100.667 183.600,101.112 183.600 C 101.503 183.600,102.083 183.960,102.400 184.400 C 102.739 184.870,103.435 185.200,104.088 185.200 C 104.700 185.200,105.200 185.380,105.200 185.600 C 105.200 185.820,105.740 186.000,106.400 186.000 C 107.060 186.000,107.600 186.180,107.600 186.400 C 107.600 186.620,107.920 186.800,108.312 186.800 C 108.703 186.800,109.283 187.160,109.600 187.600 C 109.939 188.070,110.635 188.400,111.288 188.400 C 111.900 188.400,112.400 188.580,112.400 188.800 C 112.400 189.029,113.600 189.200,115.200 189.200 C 116.800 189.200,118.000 189.371,118.000 189.600 C 118.000 189.820,118.900 190.000,120.000 190.000 C 121.100 190.000,122.000 190.180,122.000 190.400 C 122.000 190.620,122.540 190.800,123.200 190.800 C 123.860 190.800,124.400 190.980,124.400 191.200 C 124.400 191.446,126.400 191.600,129.600 191.600 C 132.800 191.600,134.800 191.754,134.800 192.000 C 134.800 192.220,135.520 192.400,136.400 192.400 C 137.280 192.400,138.000 192.580,138.000 192.800 C 138.000 193.046,140.000 193.200,143.200 193.200 C 146.400 193.200,148.400 193.354,148.400 193.600 C 148.400 193.829,149.600 194.000,151.200 194.000 C 152.800 194.000,154.000 194.171,154.000 194.400 C 154.000 194.640,155.600 194.800,158.000 194.800 C 160.400 194.800,162.000 194.960,162.000 195.200 C 162.000 195.420,162.360 195.600,162.800 195.600 C 163.240 195.600,163.600 195.780,163.600 196.000 C 163.600 196.220,164.068 196.400,164.640 196.400 C 165.279 196.400,166.111 196.862,166.800 197.600 C 167.417 198.260,168.122 198.800,168.368 198.800 C 168.946 198.800,174.000 203.847,174.000 204.424 C 174.000 204.665,174.720 205.554,175.600 206.400 C 176.655 207.414,177.200 208.288,177.200 208.969 C 177.200 209.733,177.407 210.000,178.000 210.000 C 178.533 210.000,178.800 210.267,178.800 210.800 C 178.800 211.337,179.067 211.600,179.610 211.600 C 180.078 211.600,180.570 211.980,180.776 212.500 C 180.972 212.995,182.318 214.621,183.766 216.114 C 185.215 217.607,186.400 219.020,186.400 219.254 C 186.400 219.488,186.940 220.183,187.600 220.800 C 188.260 221.417,188.800 222.209,188.800 222.560 C 188.800 222.912,188.960 223.200,189.157 223.200 C 189.353 223.200,189.635 223.695,189.784 224.300 C 190.089 225.538,192.281 228.000,193.078 228.000 C 193.365 228.000,193.600 228.288,193.600 228.640 C 193.600 228.991,194.140 229.783,194.800 230.400 C 195.460 231.017,196.000 231.730,196.000 231.986 C 196.000 232.242,196.887 233.316,197.972 234.373 C 199.388 235.752,200.025 236.727,200.232 237.831 C 200.439 238.931,201.074 239.908,202.460 241.259 C 203.527 242.298,204.400 243.390,204.400 243.686 C 204.400 243.981,204.760 244.483,205.200 244.800 C 205.640 245.117,206.000 245.621,206.000 245.920 C 206.000 246.218,206.720 247.154,207.600 248.000 C 208.491 248.856,209.200 249.917,209.200 250.395 C 209.200 250.897,210.028 252.058,211.200 253.200 C 212.300 254.271,213.200 255.358,213.200 255.614 C 213.200 255.870,213.740 256.583,214.400 257.200 C 215.060 257.817,215.600 258.530,215.600 258.786 C 215.600 259.042,216.500 260.129,217.600 261.200 C 218.877 262.444,219.600 263.487,219.600 264.086 C 219.600 264.601,219.960 265.283,220.400 265.600 C 220.840 265.917,221.200 266.419,221.200 266.714 C 221.200 267.010,222.100 268.129,223.200 269.200 C 224.300 270.271,225.200 271.390,225.200 271.686 C 225.200 271.981,225.560 272.483,226.000 272.800 C 226.440 273.117,226.800 273.625,226.800 273.928 C 226.800 274.231,227.340 274.983,228.000 275.600 C 228.660 276.217,229.200 277.106,229.200 277.578 C 229.200 278.118,230.382 279.603,232.400 281.600 C 234.160 283.341,235.600 284.971,235.600 285.222 C 235.600 285.474,236.140 286.183,236.800 286.800 C 237.460 287.417,238.000 288.209,238.000 288.560 C 238.000 288.912,238.180 289.200,238.400 289.200 C 238.620 289.200,238.800 289.560,238.800 290.000 C 238.800 290.440,238.980 290.800,239.200 290.800 C 239.420 290.800,239.600 291.120,239.600 291.512 C 239.600 291.903,239.960 292.483,240.400 292.800 C 240.840 293.117,241.200 293.615,241.200 293.905 C 241.200 294.196,242.640 295.859,244.400 297.600 C 246.160 299.341,247.600 300.971,247.600 301.222 C 247.600 301.474,248.140 302.183,248.800 302.800 C 249.483 303.438,250.000 304.331,250.000 304.872 C 250.000 305.395,250.360 306.083,250.800 306.400 C 251.270 306.739,251.600 307.435,251.600 308.088 C 251.600 308.830,251.808 309.200,252.226 309.200 C 252.570 309.200,253.729 310.100,254.800 311.200 C 255.871 312.300,257.030 313.200,257.374 313.200 C 257.718 313.200,258.000 313.380,258.000 313.600 C 258.000 313.820,258.360 314.000,258.800 314.000 C 259.240 314.000,259.600 314.180,259.600 314.400 C 259.600 314.620,260.320 314.800,261.200 314.800 C 262.080 314.800,262.800 314.980,262.800 315.200 C 262.800 315.420,263.160 315.600,263.600 315.600 C 264.040 315.600,264.400 315.780,264.400 316.000 C 264.400 316.242,266.133 316.400,268.800 316.400 C 271.467 316.400,273.200 316.242,273.200 316.000 C 273.200 315.767,274.533 315.600,276.400 315.600 C 279.333 315.600,279.600 315.533,279.600 314.800 C 279.600 314.212,279.867 314.000,280.606 314.000 C 281.684 314.000,287.600 308.497,287.600 307.495 C 287.600 307.210,287.960 306.717,288.400 306.400 C 288.840 306.083,289.200 305.503,289.200 305.112 C 289.200 304.720,289.483 304.400,289.829 304.400 C 290.562 304.400,291.600 303.461,291.600 302.797 C 291.600 302.544,292.320 301.646,293.200 300.800 C 294.080 299.954,294.800 298.979,294.800 298.631 C 294.800 298.284,295.078 298.000,295.418 298.000 C 296.174 298.000,298.000 296.237,298.000 295.506 C 298.000 295.215,298.360 294.717,298.800 294.400 C 299.240 294.083,299.600 293.581,299.600 293.286 C 299.600 292.990,300.500 291.871,301.600 290.800 C 302.700 289.729,303.600 288.570,303.600 288.226 C 303.600 287.882,303.780 287.600,304.000 287.600 C 304.220 287.600,304.400 287.060,304.400 286.400 C 304.400 285.740,304.580 285.200,304.800 285.200 C 305.020 285.200,305.200 284.660,305.200 284.000 C 305.200 283.340,305.380 282.800,305.600 282.800 C 305.822 282.800,306.000 281.733,306.000 280.400 C 306.000 279.067,306.178 278.000,306.400 278.000 C 306.620 278.000,306.800 277.460,306.800 276.800 C 306.800 276.140,306.620 275.600,306.400 275.600 C 306.180 275.600,306.000 274.700,306.000 273.600 C 306.000 272.500,305.820 271.600,305.600 271.600 C 305.380 271.600,305.200 271.240,305.200 270.800 C 305.200 270.360,305.020 270.000,304.800 270.000 C 304.580 270.000,304.400 269.640,304.400 269.200 C 304.400 268.760,304.220 268.400,304.000 268.400 C 303.780 268.400,303.600 267.932,303.600 267.360 C 303.600 266.721,303.138 265.889,302.400 265.200 C 301.740 264.583,301.200 263.791,301.200 263.440 C 301.200 263.088,300.912 262.800,300.560 262.800 C 300.209 262.800,299.417 262.260,298.800 261.600 C 298.183 260.940,297.391 260.400,297.040 260.400 C 296.688 260.400,296.400 260.220,296.400 260.000 C 296.400 259.780,296.040 259.600,295.600 259.600 C 295.160 259.600,294.800 259.420,294.800 259.200 C 294.800 258.980,294.517 258.800,294.171 258.800 C 293.826 258.800,293.286 258.543,292.971 258.229 C 292.657 257.914,292.400 257.374,292.400 257.029 C 292.400 256.683,292.080 256.400,291.688 256.400 C 291.297 256.400,290.717 256.040,290.400 255.600 C 290.083 255.160,289.543 254.800,289.200 254.800 C 288.857 254.800,288.317 254.440,288.000 254.000 C 287.683 253.560,287.143 253.200,286.800 253.200 C 286.457 253.200,285.917 252.840,285.600 252.400 C 285.283 251.960,284.781 251.600,284.486 251.600 C 284.190 251.600,283.071 250.700,282.000 249.600 C 280.929 248.500,279.770 247.600,279.426 247.600 C 279.067 247.600,278.800 247.259,278.800 246.800 C 278.800 246.267,278.533 246.000,278.000 246.000 C 277.560 246.000,277.200 245.820,277.200 245.600 C 277.200 245.380,276.880 245.200,276.488 245.200 C 276.097 245.200,275.517 244.840,275.200 244.400 C 274.883 243.960,274.343 243.600,274.000 243.600 C 273.657 243.600,273.117 243.240,272.800 242.800 C 272.483 242.360,271.903 242.000,271.512 242.000 C 271.120 242.000,270.800 241.820,270.800 241.600 C 270.800 241.380,270.480 241.200,270.088 241.200 C 269.697 241.200,269.117 240.840,268.800 240.400 C 268.483 239.960,267.980 239.600,267.683 239.600 C 266.951 239.600,266.000 238.600,266.000 237.829 C 266.000 237.483,265.716 237.200,265.369 237.200 C 265.021 237.200,264.046 236.480,263.200 235.600 C 262.354 234.720,261.418 234.000,261.120 234.000 C 260.821 234.000,260.317 233.640,260.000 233.200 C 259.683 232.760,259.143 232.400,258.800 232.400 C 258.457 232.400,257.917 232.040,257.600 231.600 C 257.283 231.160,256.780 230.800,256.483 230.800 C 255.751 230.800,254.800 229.800,254.800 229.029 C 254.800 228.667,254.461 228.400,254.000 228.400 C 253.560 228.400,253.200 228.220,253.200 228.000 C 253.200 227.780,252.840 227.600,252.400 227.600 C 251.960 227.600,251.600 227.420,251.600 227.200 C 251.600 226.980,251.280 226.800,250.888 226.800 C 250.497 226.800,249.917 226.440,249.600 226.000 C 249.283 225.560,248.743 225.200,248.400 225.200 C 248.057 225.200,247.517 224.840,247.200 224.400 C 246.883 223.960,246.379 223.600,246.080 223.600 C 245.782 223.600,244.846 222.880,244.000 222.000 C 243.154 221.120,242.256 220.400,242.003 220.400 C 241.339 220.400,240.400 219.362,240.400 218.629 C 240.400 218.197,240.024 218.000,239.200 218.000 C 238.267 218.000,238.000 217.822,238.000 217.200 C 238.000 216.700,237.733 216.400,237.288 216.400 C 236.897 216.400,236.317 216.040,236.000 215.600 C 235.683 215.160,235.143 214.800,234.800 214.800 C 234.457 214.800,233.917 214.440,233.600 214.000 C 233.283 213.560,232.743 213.200,232.400 213.200 C 232.057 213.200,231.517 212.840,231.200 212.400 C 230.883 211.960,230.303 211.600,229.912 211.600 C 229.467 211.600,229.200 211.300,229.200 210.800 C 229.200 210.334,228.933 210.000,228.560 210.000 C 228.209 210.000,227.417 209.460,226.800 208.800 C 226.183 208.140,225.374 207.600,225.001 207.600 C 224.156 207.600,222.013 206.431,221.153 205.500 C 220.797 205.115,220.252 204.800,219.941 204.800 C 219.631 204.800,219.117 204.440,218.800 204.000 C 218.483 203.560,217.980 203.200,217.683 203.200 C 217.018 203.200,216.000 202.224,216.000 201.586 C 216.000 201.321,215.724 201.220,215.370 201.356 C 214.689 201.617,213.913 201.016,213.490 199.900 C 213.344 199.515,213.032 199.200,212.796 199.200 C 212.560 199.200,211.980 198.840,211.508 198.400 C 211.036 197.960,210.413 197.600,210.125 197.600 C 209.836 197.600,209.600 197.324,209.600 196.987 C 209.600 196.651,209.285 196.255,208.900 196.108 C 208.515 195.961,207.851 195.516,207.425 195.120 C 206.998 194.724,206.453 194.400,206.213 194.400 C 205.973 194.400,205.517 194.040,205.200 193.600 C 204.883 193.160,204.200 192.800,203.683 192.800 C 202.600 192.800,201.826 192.142,201.426 190.881 C 201.265 190.373,200.819 190.000,200.373 190.000 C 199.867 190.000,199.600 189.724,199.600 189.200 C 199.600 188.700,199.333 188.400,198.888 188.400 C 198.497 188.400,197.917 188.040,197.600 187.600 C 197.283 187.160,196.743 186.800,196.400 186.800 C 196.057 186.800,195.517 186.440,195.200 186.000 C 194.883 185.560,194.343 185.200,194.000 185.200 C 193.657 185.200,193.117 184.840,192.800 184.400 C 192.483 183.960,191.903 183.600,191.512 183.600 C 191.096 183.600,190.800 183.304,190.800 182.888 C 190.800 182.497,190.440 181.917,190.000 181.600 C 189.392 181.162,189.200 180.565,189.200 179.112 C 189.200 178.060,189.020 177.200,188.800 177.200 C 188.547 177.200,188.400 174.267,188.400 169.200 C 188.400 164.133,188.253 161.200,188.000 161.200 C 187.780 161.200,187.600 160.300,187.600 159.200 C 187.600 158.100,187.780 157.200,188.000 157.200 C 188.220 157.200,188.400 156.480,188.400 155.600 C 188.400 154.720,188.220 154.000,188.000 154.000 C 187.756 154.000,187.600 152.144,187.600 149.233 C 187.600 145.811,187.459 144.401,187.100 144.233 C 186.700 144.047,186.700 143.953,187.100 143.767 C 187.720 143.478,187.816 136.400,187.200 136.400 C 186.954 136.400,186.800 134.400,186.800 131.200 C 186.800 128.000,186.646 126.000,186.400 126.000 C 186.180 126.000,186.000 125.460,186.000 124.800 C 186.000 124.140,185.820 123.600,185.600 123.600 C 185.380 123.600,185.200 123.060,185.200 122.400 C 185.200 121.740,185.020 121.200,184.800 121.200 C 184.580 121.200,184.400 120.840,184.400 120.400 C 184.400 119.960,184.220 119.600,184.000 119.600 C 183.780 119.600,183.600 119.240,183.600 118.800 C 183.600 118.360,183.420 118.000,183.200 118.000 C 182.980 118.000,182.800 117.100,182.800 116.000 C 182.800 114.900,182.620 114.000,182.400 114.000 C 182.180 114.000,182.000 113.680,182.000 113.288 C 182.000 112.897,181.640 112.317,181.200 112.000 C 180.760 111.683,180.400 111.143,180.400 110.800 C 180.400 110.457,180.040 109.917,179.600 109.600 C 179.130 109.261,178.800 108.565,178.800 107.912 C 178.800 107.067,178.608 106.800,178.000 106.800 C 177.538 106.800,177.200 106.533,177.200 106.169 C 177.200 105.821,176.480 104.846,175.600 104.000 C 174.720 103.154,174.000 102.262,174.000 102.016 C 174.000 101.770,172.380 99.963,170.400 98.000 C 168.420 96.037,166.800 94.154,166.800 93.815 C 166.800 93.477,166.512 93.200,166.160 93.200 C 165.809 93.200,165.017 92.660,164.400 92.000 C 163.783 91.340,163.031 90.800,162.728 90.800 C 162.425 90.800,161.917 90.440,161.600 90.000 C 161.283 89.560,160.703 89.200,160.312 89.200 C 159.920 89.200,159.600 89.020,159.600 88.800 C 159.600 88.580,159.280 88.400,158.888 88.400 C 158.497 88.400,157.917 88.040,157.600 87.600 C 157.283 87.160,156.743 86.800,156.400 86.800 C 156.057 86.800,155.517 86.440,155.200 86.000 C 154.883 85.560,154.303 85.200,153.912 85.200 C 153.520 85.200,153.200 85.020,153.200 84.800 C 153.200 84.580,152.840 84.400,152.400 84.400 C 151.960 84.400,151.600 84.220,151.600 84.000 C 151.600 83.780,151.060 83.600,150.400 83.600 C 149.740 83.600,149.200 83.420,149.200 83.200 C 149.200 82.980,148.660 82.800,148.000 82.800 C 147.340 82.800,146.800 82.620,146.800 82.400 C 146.800 82.180,146.260 82.000,145.600 82.000 C 144.940 82.000,144.400 81.820,144.400 81.600 C 144.400 81.380,144.040 81.200,143.600 81.200 C 143.160 81.200,142.800 81.020,142.800 80.800 C 142.800 80.580,142.260 80.400,141.600 80.400 C 140.940 80.400,140.400 80.220,140.400 80.000 C 140.400 79.767,139.067 79.600,137.200 79.600 C 135.333 79.600,134.000 79.433,134.000 79.200 C 134.000 78.978,132.933 78.800,131.600 78.800 C 130.267 78.800,129.200 78.622,129.200 78.400 C 129.200 78.171,128.000 78.000,126.400 78.000 C 124.800 78.000,123.600 78.171,123.600 78.400 M126.800 102.400 C 126.800 102.620,127.160 102.800,127.600 102.800 C 128.040 102.800,128.400 102.980,128.400 103.200 C 128.400 103.420,129.120 103.600,130.000 103.600 C 130.880 103.600,131.600 103.780,131.600 104.000 C 131.600 104.220,132.320 104.400,133.200 104.400 C 134.080 104.400,134.800 104.580,134.800 104.800 C 134.800 105.020,135.340 105.200,136.000 105.200 C 136.660 105.200,137.200 105.380,137.200 105.600 C 137.200 105.820,137.560 106.000,138.000 106.000 C 138.440 106.000,138.800 106.180,138.800 106.400 C 138.800 106.620,139.160 106.800,139.600 106.800 C 140.040 106.800,140.400 106.980,140.400 107.200 C 140.400 107.420,140.760 107.600,141.200 107.600 C 141.640 107.600,142.000 107.780,142.000 108.000 C 142.000 108.220,142.500 108.400,143.112 108.400 C 143.765 108.400,144.461 108.730,144.800 109.200 C 145.117 109.640,145.620 110.000,145.917 110.000 C 146.649 110.000,147.600 111.000,147.600 111.771 C 147.600 112.203,147.976 112.400,148.800 112.400 C 149.733 112.400,150.000 112.578,150.000 113.200 C 150.000 113.655,150.267 114.000,150.618 114.000 C 151.331 114.000,153.200 115.746,153.200 116.413 C 153.200 116.660,153.920 117.554,154.800 118.400 C 155.680 119.246,156.400 120.182,156.400 120.480 C 156.400 120.779,156.760 121.283,157.200 121.600 C 157.670 121.939,158.000 122.635,158.000 123.288 C 158.000 124.032,158.208 124.400,158.629 124.400 C 159.573 124.400,160.400 125.414,160.400 126.571 C 160.400 127.137,160.580 127.600,160.800 127.600 C 161.020 127.600,161.200 127.960,161.200 128.400 C 161.200 128.840,161.380 129.200,161.600 129.200 C 161.820 129.200,162.000 129.920,162.000 130.800 C 162.000 131.680,162.180 132.400,162.400 132.400 C 162.622 132.400,162.800 133.467,162.800 134.800 C 162.800 136.133,162.622 137.200,162.400 137.200 C 162.180 137.200,162.000 137.560,162.000 138.000 C 162.000 138.650,161.733 138.800,160.582 138.800 C 158.868 138.800,157.200 137.329,157.200 135.818 C 157.200 135.258,157.020 134.800,156.800 134.800 C 156.580 134.800,156.400 134.080,156.400 133.200 C 156.400 132.320,156.220 131.600,156.000 131.600 C 155.780 131.600,155.600 130.880,155.600 130.000 C 155.600 129.120,155.420 128.400,155.200 128.400 C 154.980 128.400,154.800 128.112,154.800 127.760 C 154.800 127.409,154.260 126.617,153.600 126.000 C 152.940 125.383,152.400 124.663,152.400 124.400 C 152.400 124.137,151.860 123.417,151.200 122.800 C 150.540 122.183,150.000 121.391,150.000 121.040 C 150.000 120.688,149.717 120.400,149.371 120.400 C 149.026 120.400,148.486 120.143,148.171 119.829 C 147.857 119.514,147.600 118.974,147.600 118.629 C 147.600 118.197,147.224 118.000,146.400 118.000 C 145.584 118.000,145.200 117.802,145.200 117.382 C 145.200 117.042,144.758 116.322,144.218 115.782 C 143.678 115.242,142.958 114.800,142.618 114.800 C 142.278 114.800,142.000 114.620,142.000 114.400 C 142.000 114.180,141.640 114.000,141.200 114.000 C 140.760 114.000,140.400 113.820,140.400 113.600 C 140.400 113.380,140.040 113.200,139.600 113.200 C 139.160 113.200,138.800 113.020,138.800 112.800 C 138.800 112.580,138.440 112.400,138.000 112.400 C 137.560 112.400,137.200 112.220,137.200 112.000 C 137.200 111.780,136.660 111.600,136.000 111.600 C 135.340 111.600,134.800 111.420,134.800 111.200 C 134.800 110.980,134.260 110.800,133.600 110.800 C 132.940 110.800,132.400 110.620,132.400 110.400 C 132.400 110.179,131.363 110.000,130.088 110.000 C 128.235 110.000,127.662 109.841,127.200 109.200 C 126.798 108.643,126.165 108.400,125.112 108.400 C 124.280 108.400,123.600 108.220,123.600 108.000 C 123.600 107.780,123.240 107.600,122.800 107.600 C 122.150 107.600,122.000 107.333,122.000 106.182 C 122.000 104.666,123.424 102.800,124.582 102.800 C 124.922 102.800,125.200 102.620,125.200 102.400 C 125.200 102.180,125.560 102.000,126.000 102.000 C 126.440 102.000,126.800 102.180,126.800 102.400 M278.800 278.800 C 278.800 279.333,278.533 279.600,278.000 279.600 C 277.072 279.600,277.007 279.385,277.700 278.598 C 278.406 277.796,278.800 277.869,278.800 278.800 M276.400 280.800 C 276.400 281.020,276.220 281.200,276.000 281.200 C 275.780 281.200,275.600 281.475,275.600 281.811 C 275.600 282.579,272.040 286.181,271.672 285.784 C 271.522 285.622,271.625 285.410,271.900 285.312 C 272.175 285.214,272.400 284.874,272.400 284.557 C 272.400 283.981,275.534 280.484,276.100 280.429 C 276.265 280.413,276.400 280.580,276.400 280.800 M271.600 287.029 C 271.600 287.154,271.321 287.536,270.981 287.876 C 270.200 288.657,269.731 288.266,270.460 287.442 C 271.006 286.824,271.600 286.609,271.600 287.029 " stroke="none" fill="#000000" fill-rule="evenodd"></path><path id="path1" d="M270.800 97.600 C 270.800 97.820,269.900 98.000,268.800 98.000 C 267.700 98.000,266.800 98.180,266.800 98.400 C 266.800 98.620,266.480 98.800,266.088 98.800 C 265.697 98.800,265.117 99.160,264.800 99.600 C 264.483 100.040,263.903 100.400,263.512 100.400 C 263.120 100.400,262.800 100.580,262.800 100.800 C 262.800 101.020,262.522 101.200,262.182 101.200 C 261.469 101.200,259.600 102.946,259.600 103.613 C 259.600 103.860,258.880 104.754,258.000 105.600 C 257.120 106.446,256.400 107.421,256.400 107.769 C 256.400 108.116,256.220 108.400,256.000 108.400 C 255.780 108.400,255.600 108.868,255.600 109.440 C 255.600 110.079,255.138 110.911,254.400 111.600 C 253.740 112.217,253.200 112.932,253.200 113.189 C 253.200 113.860,252.166 114.800,251.429 114.800 C 250.997 114.800,250.800 115.176,250.800 116.000 C 250.800 116.660,250.620 117.200,250.400 117.200 C 250.180 117.200,250.000 117.484,250.000 117.831 C 250.000 118.179,249.280 119.154,248.400 120.000 C 247.520 120.846,246.800 121.782,246.800 122.080 C 246.800 122.379,246.440 122.883,246.000 123.200 C 245.560 123.517,245.200 124.057,245.200 124.400 C 245.200 124.743,244.840 125.283,244.400 125.600 C 243.960 125.917,243.600 126.497,243.600 126.888 C 243.600 127.280,243.420 127.600,243.200 127.600 C 242.980 127.600,242.800 127.960,242.800 128.400 C 242.800 128.933,242.533 129.200,242.000 129.200 C 241.392 129.200,241.200 129.467,241.200 130.312 C 241.200 130.965,240.870 131.661,240.400 132.000 C 239.960 132.317,239.600 132.857,239.600 133.200 C 239.600 133.543,239.240 134.083,238.800 134.400 C 238.360 134.717,238.000 135.257,238.000 135.600 C 238.000 135.943,237.640 136.483,237.200 136.800 C 236.760 137.117,236.400 137.625,236.400 137.928 C 236.400 138.231,235.860 138.983,235.200 139.600 C 234.540 140.217,234.000 140.969,234.000 141.272 C 234.000 141.575,233.640 142.083,233.200 142.400 C 232.760 142.717,232.400 143.257,232.400 143.600 C 232.400 143.943,232.040 144.483,231.600 144.800 C 231.160 145.117,230.800 145.657,230.800 146.000 C 230.800 146.343,230.440 146.883,230.000 147.200 C 229.560 147.517,229.200 148.057,229.200 148.400 C 229.200 148.743,228.840 149.283,228.400 149.600 C 227.960 149.917,227.600 150.457,227.600 150.800 C 227.600 151.143,227.240 151.683,226.800 152.000 C 226.360 152.317,226.000 152.897,226.000 153.288 C 226.000 153.680,225.820 154.000,225.600 154.000 C 225.380 154.000,225.200 154.282,225.200 154.626 C 225.200 154.970,224.300 156.129,223.200 157.200 C 222.100 158.271,221.200 159.430,221.200 159.774 C 221.200 160.118,221.020 160.400,220.800 160.400 C 220.580 160.400,220.400 160.760,220.400 161.200 C 220.400 161.640,220.220 162.000,220.000 162.000 C 219.780 162.000,219.600 162.282,219.600 162.626 C 219.600 162.970,218.700 164.129,217.600 165.200 C 216.226 166.538,215.600 167.469,215.600 168.174 C 215.600 168.738,215.420 169.200,215.200 169.200 C 214.980 169.200,214.800 169.484,214.800 169.831 C 214.800 170.179,214.080 171.154,213.200 172.000 C 212.320 172.846,211.600 173.782,211.600 174.080 C 211.600 174.379,211.240 174.883,210.800 175.200 C 210.360 175.517,210.000 176.057,210.000 176.400 C 210.000 176.743,209.640 177.283,209.200 177.600 C 208.760 177.917,208.400 178.457,208.400 178.800 C 208.400 179.143,208.040 179.683,207.600 180.000 C 207.160 180.317,206.800 181.000,206.800 181.517 C 206.800 182.597,205.947 183.600,205.029 183.600 C 204.667 183.600,204.400 183.939,204.400 184.400 C 204.400 184.840,204.220 185.200,204.000 185.200 C 203.780 185.200,203.600 185.520,203.600 185.912 C 203.600 186.303,203.240 186.883,202.800 187.200 C 202.360 187.517,202.000 188.097,202.000 188.488 C 202.000 188.880,201.798 189.200,201.550 189.200 C 200.947 189.200,201.408 191.466,202.166 192.223 C 202.483 192.540,203.166 192.800,203.683 192.800 C 204.200 192.800,204.883 193.160,205.200 193.600 C 205.517 194.040,205.973 194.400,206.213 194.400 C 206.453 194.400,206.998 194.724,207.425 195.120 C 207.851 195.516,208.515 195.961,208.900 196.108 C 209.285 196.255,209.600 196.651,209.600 196.987 C 209.600 197.324,209.836 197.600,210.125 197.600 C 210.413 197.600,210.998 197.924,211.425 198.320 C 211.851 198.716,212.515 199.161,212.900 199.308 C 213.285 199.455,213.600 199.773,213.600 200.016 C 213.600 200.770,214.709 201.610,215.370 201.356 C 215.724 201.220,216.000 201.321,216.000 201.586 C 216.000 202.224,217.018 203.200,217.683 203.200 C 217.980 203.200,218.483 203.560,218.800 204.000 C 219.117 204.440,219.631 204.800,219.941 204.800 C 220.252 204.800,220.797 205.115,221.153 205.500 C 222.789 207.270,226.000 208.245,226.000 206.971 C 226.000 206.200,226.951 205.200,227.683 205.200 C 227.980 205.200,228.483 204.840,228.800 204.400 C 229.117 203.960,229.625 203.600,229.928 203.600 C 230.231 203.600,230.983 203.060,231.600 202.400 C 232.217 201.740,232.926 201.200,233.178 201.200 C 233.429 201.200,235.059 199.760,236.800 198.000 C 238.541 196.240,240.171 194.800,240.422 194.800 C 240.674 194.800,241.383 194.260,242.000 193.600 C 242.617 192.940,243.333 192.400,243.592 192.400 C 243.851 192.400,244.754 191.680,245.600 190.800 C 246.446 189.920,247.337 189.200,247.582 189.200 C 248.250 189.200,250.800 186.517,250.800 185.813 C 250.800 185.476,251.120 185.200,251.512 185.200 C 251.903 185.200,252.483 184.840,252.800 184.400 C 253.117 183.960,253.657 183.600,254.000 183.600 C 254.343 183.600,254.883 183.240,255.200 182.800 C 255.517 182.360,256.057 182.000,256.400 182.000 C 256.743 182.000,257.283 181.640,257.600 181.200 C 257.917 180.760,258.415 180.400,258.706 180.400 C 259.344 180.400,261.200 178.614,261.200 178.000 C 261.200 177.247,263.125 175.600,264.004 175.600 C 264.503 175.600,265.802 174.624,267.200 173.200 C 268.496 171.880,269.836 170.800,270.178 170.800 C 270.520 170.800,270.800 170.620,270.800 170.400 C 270.800 170.180,271.088 170.000,271.440 170.000 C 271.791 170.000,272.583 169.460,273.200 168.800 C 273.817 168.140,274.532 167.600,274.789 167.600 C 275.384 167.600,276.400 166.597,276.400 166.010 C 276.400 165.434,278.229 163.600,278.804 163.600 C 279.046 163.600,280.304 162.520,281.600 161.200 C 283.035 159.738,284.293 158.800,284.817 158.800 C 285.291 158.800,286.183 158.260,286.800 157.600 C 287.417 156.940,288.169 156.400,288.472 156.400 C 288.775 156.400,289.283 156.040,289.600 155.600 C 289.917 155.160,290.497 154.800,290.888 154.800 C 291.280 154.800,291.600 154.525,291.600 154.189 C 291.600 153.494,294.951 150.000,295.618 150.000 C 296.264 150.000,297.200 148.952,297.200 148.229 C 297.200 147.797,297.576 147.600,298.400 147.600 C 299.060 147.600,299.600 147.420,299.600 147.200 C 299.600 146.980,300.140 146.800,300.800 146.800 C 301.622 146.800,302.000 146.603,302.000 146.174 C 302.000 145.830,302.900 144.671,304.000 143.600 C 305.100 142.529,306.000 141.370,306.000 141.026 C 306.000 140.682,306.180 140.400,306.400 140.400 C 306.620 140.400,306.800 139.500,306.800 138.400 C 306.800 137.300,306.980 136.400,307.200 136.400 C 307.420 136.400,307.600 135.500,307.600 134.400 C 307.600 133.300,307.780 132.400,308.000 132.400 C 308.233 132.400,308.400 131.067,308.400 129.200 C 308.400 127.333,308.233 126.000,308.000 126.000 C 307.780 126.000,307.600 125.100,307.600 124.000 C 307.600 122.900,307.420 122.000,307.200 122.000 C 306.980 122.000,306.800 121.640,306.800 121.200 C 306.800 120.760,306.620 120.400,306.400 120.400 C 306.180 120.400,306.000 120.127,306.000 119.794 C 306.000 119.003,300.197 113.200,299.406 113.200 C 299.073 113.200,298.800 113.020,298.800 112.800 C 298.800 112.580,298.440 112.400,298.000 112.400 C 297.467 112.400,297.200 112.133,297.200 111.600 C 297.200 111.134,296.933 110.800,296.560 110.800 C 296.209 110.800,295.417 110.260,294.800 109.600 C 294.183 108.940,293.468 108.400,293.211 108.400 C 292.540 108.400,291.600 107.366,291.600 106.629 C 291.600 106.267,291.261 106.000,290.800 106.000 C 290.267 106.000,290.000 105.733,290.000 105.200 C 290.000 104.700,289.733 104.400,289.288 104.400 C 288.897 104.400,288.317 104.040,288.000 103.600 C 287.683 103.160,287.001 102.800,286.486 102.800 C 285.887 102.800,284.844 102.077,283.600 100.800 C 281.723 98.873,281.571 98.800,279.426 98.800 C 278.202 98.800,277.200 98.620,277.200 98.400 C 277.200 98.178,276.133 98.000,274.800 98.000 C 273.467 98.000,272.400 97.822,272.400 97.600 C 272.400 97.380,272.040 97.200,271.600 97.200 C 271.160 97.200,270.800 97.380,270.800 97.600 M178.400 212.400 C 178.083 212.840,177.587 213.200,177.298 213.200 C 177.009 213.200,174.985 215.000,172.800 217.200 C 170.615 219.400,168.624 221.200,168.374 221.200 C 168.125 221.200,167.417 221.740,166.800 222.400 C 166.183 223.060,165.431 223.600,165.128 223.600 C 164.825 223.600,164.317 223.960,164.000 224.400 C 163.683 224.840,163.185 225.200,162.894 225.200 C 162.250 225.200,160.400 226.988,160.400 227.610 C 160.400 228.228,159.371 229.200,158.717 229.200 C 158.420 229.200,157.917 229.560,157.600 230.000 C 157.283 230.440,156.781 230.800,156.486 230.800 C 156.190 230.800,155.071 231.700,154.000 232.800 C 152.662 234.174,151.731 234.800,151.026 234.800 C 150.371 234.800,150.000 235.022,150.000 235.413 C 150.000 236.323,147.356 238.800,146.385 238.800 C 145.391 238.800,144.400 239.685,144.400 240.571 C 144.400 240.917,144.112 241.200,143.760 241.200 C 143.409 241.200,142.617 241.740,142.000 242.400 C 141.383 243.060,140.663 243.600,140.400 243.600 C 140.137 243.600,139.417 244.140,138.800 244.800 C 138.183 245.460,137.391 246.000,137.040 246.000 C 136.688 246.000,136.400 246.180,136.400 246.400 C 136.400 246.620,136.040 246.800,135.600 246.800 C 135.148 246.800,134.800 247.067,134.800 247.413 C 134.800 248.115,132.251 250.800,131.585 250.800 C 130.936 250.800,130.000 251.846,130.000 252.571 C 130.000 252.917,129.712 253.200,129.360 253.200 C 129.009 253.200,128.217 253.740,127.600 254.400 C 126.983 255.060,126.191 255.600,125.840 255.600 C 125.488 255.600,125.200 255.780,125.200 256.000 C 125.200 256.220,124.880 256.400,124.488 256.400 C 124.097 256.400,123.517 256.760,123.200 257.200 C 122.883 257.640,122.387 258.000,122.099 258.000 C 121.810 258.000,119.606 259.980,117.200 262.400 C 114.794 264.820,112.550 266.800,112.213 266.800 C 111.876 266.800,111.600 266.980,111.600 267.200 C 111.600 267.420,111.240 267.600,110.800 267.600 C 110.360 267.600,110.000 267.780,110.000 268.000 C 110.000 268.220,109.726 268.400,109.391 268.400 C 108.599 268.400,104.400 272.599,104.400 273.391 C 104.400 273.726,104.220 274.000,104.000 274.000 C 103.780 274.000,103.600 274.900,103.600 276.000 C 103.600 277.100,103.420 278.000,103.200 278.000 C 102.980 278.000,102.800 278.720,102.800 279.600 C 102.800 280.480,102.620 281.200,102.400 281.200 C 102.163 281.200,102.000 282.667,102.000 284.800 C 102.000 286.933,102.163 288.400,102.400 288.400 C 102.620 288.400,102.800 289.300,102.800 290.400 C 102.800 291.500,102.980 292.400,103.200 292.400 C 103.420 292.400,103.600 292.760,103.600 293.200 C 103.600 293.640,103.780 294.000,104.000 294.000 C 104.220 294.000,104.400 294.360,104.400 294.800 C 104.400 295.240,104.580 295.600,104.800 295.600 C 105.020 295.600,105.200 295.960,105.200 296.400 C 105.200 296.859,105.467 297.200,105.826 297.200 C 106.170 297.200,107.329 298.100,108.400 299.200 C 109.471 300.300,110.630 301.200,110.974 301.200 C 111.318 301.200,111.600 301.380,111.600 301.600 C 111.600 301.820,111.960 302.000,112.400 302.000 C 112.933 302.000,113.200 302.267,113.200 302.800 C 113.200 303.262,113.467 303.600,113.831 303.600 C 114.179 303.600,115.154 304.320,116.000 305.200 C 117.014 306.255,117.888 306.800,118.569 306.800 C 119.227 306.800,119.600 307.021,119.600 307.411 C 119.600 308.332,123.055 311.600,124.029 311.600 C 124.497 311.600,125.383 312.140,126.000 312.800 C 126.617 313.460,127.369 314.000,127.672 314.000 C 127.975 314.000,128.483 314.360,128.800 314.800 C 129.117 315.240,129.697 315.600,130.088 315.600 C 130.480 315.600,130.800 315.780,130.800 316.000 C 130.800 316.577,132.290 316.493,132.567 315.900 C 132.753 315.500,132.847 315.500,133.033 315.900 C 133.181 316.217,134.131 316.400,135.633 316.400 C 136.944 316.400,138.000 316.578,138.000 316.800 C 138.000 317.020,138.540 317.200,139.200 317.200 C 139.860 317.200,140.400 317.020,140.400 316.800 C 140.400 316.580,141.120 316.400,142.000 316.400 C 142.880 316.400,143.600 316.220,143.600 316.000 C 143.600 315.780,143.920 315.600,144.312 315.600 C 144.703 315.600,145.283 315.240,145.600 314.800 C 145.917 314.360,146.591 314.000,147.097 314.000 C 148.091 314.000,152.400 310.016,152.400 309.097 C 152.400 308.811,152.760 308.317,153.200 308.000 C 153.640 307.683,154.000 307.103,154.000 306.712 C 154.000 306.320,154.180 306.000,154.400 306.000 C 154.620 306.000,154.800 305.640,154.800 305.200 C 154.800 304.760,154.980 304.400,155.200 304.400 C 155.420 304.400,155.600 304.118,155.600 303.774 C 155.600 303.430,156.500 302.271,157.600 301.200 C 158.974 299.862,159.600 298.931,159.600 298.226 C 159.600 297.662,159.780 297.200,160.000 297.200 C 160.220 297.200,160.400 296.918,160.400 296.574 C 160.400 296.230,161.300 295.071,162.400 294.000 C 163.500 292.929,164.400 291.770,164.400 291.426 C 164.400 291.082,164.580 290.800,164.800 290.800 C 165.020 290.800,165.200 290.480,165.200 290.088 C 165.200 289.697,165.560 289.117,166.000 288.800 C 166.440 288.483,166.800 287.975,166.800 287.672 C 166.800 287.369,167.340 286.617,168.000 286.000 C 168.683 285.362,169.200 284.469,169.200 283.928 C 169.200 283.405,169.560 282.717,170.000 282.400 C 170.440 282.083,170.800 281.580,170.800 281.283 C 170.800 280.551,171.800 279.600,172.571 279.600 C 172.980 279.600,173.200 279.240,173.200 278.569 C 173.200 277.888,173.745 277.014,174.800 276.000 C 175.680 275.154,176.400 274.179,176.400 273.831 C 176.400 273.484,176.580 273.200,176.800 273.200 C 177.020 273.200,177.200 272.840,177.200 272.400 C 177.200 271.960,177.380 271.600,177.600 271.600 C 177.820 271.600,178.000 271.280,178.000 270.888 C 178.000 270.497,178.360 269.917,178.800 269.600 C 179.240 269.283,179.600 268.775,179.600 268.472 C 179.600 268.169,180.140 267.417,180.800 266.800 C 181.460 266.183,182.000 265.391,182.000 265.040 C 182.000 264.688,182.180 264.400,182.400 264.400 C 182.620 264.400,182.800 264.080,182.800 263.688 C 182.800 263.297,183.160 262.717,183.600 262.400 C 184.040 262.083,184.400 261.575,184.400 261.272 C 184.400 260.969,184.940 260.217,185.600 259.600 C 186.260 258.983,186.800 258.263,186.800 258.000 C 186.800 257.737,187.340 257.017,188.000 256.400 C 188.660 255.783,189.200 254.991,189.200 254.640 C 189.200 254.288,189.380 254.000,189.600 254.000 C 189.820 254.000,190.000 253.680,190.000 253.288 C 190.000 252.897,190.360 252.317,190.800 252.000 C 191.240 251.683,191.600 251.179,191.600 250.880 C 191.600 250.582,192.320 249.646,193.200 248.800 C 194.255 247.786,194.800 246.912,194.800 246.231 C 194.800 245.664,194.980 245.200,195.200 245.200 C 195.420 245.200,195.600 244.916,195.600 244.569 C 195.600 244.221,196.320 243.246,197.200 242.400 C 198.080 241.554,198.800 240.618,198.800 240.320 C 198.800 240.021,199.165 239.514,199.611 239.192 C 200.838 238.308,200.249 236.591,197.952 234.354 C 196.879 233.308,196.000 232.242,196.000 231.986 C 196.000 231.730,195.460 231.017,194.800 230.400 C 194.140 229.783,193.600 228.991,193.600 228.640 C 193.600 228.288,193.365 228.000,193.078 228.000 C 192.281 228.000,190.089 225.538,189.784 224.300 C 189.635 223.695,189.353 223.200,189.157 223.200 C 188.960 223.200,188.800 222.912,188.800 222.560 C 188.800 222.209,188.260 221.417,187.600 220.800 C 186.940 220.183,186.400 219.488,186.400 219.254 C 186.400 219.020,185.215 217.607,183.766 216.114 C 182.318 214.621,180.972 212.995,180.776 212.500 C 180.335 211.385,179.167 211.336,178.400 212.400 " stroke="none" fill="#acacac" fill-rule="evenodd"></path></g></svg>