<?xml version="1.0" encoding="UTF-8" standalone="no"?>
<svg
   version="1.1"
   width="780"
   height="340"
   style="clip-rule:evenodd;fill-rule:evenodd;image-rendering:optimizeQuality;shape-rendering:geometricPrecision;text-rendering:geometricPrecision"
   id="svg8"
   xmlns="http://www.w3.org/2000/svg"
   xmlns:svg="http://www.w3.org/2000/svg">
  <defs
     id="defs8" />
  <g
     id="g12"
     transform="translate(14.322034,1.4322034)">
    <g
       id="g9">
      <g
         id="g6"
         transform="translate(-4)">
        <path
           style="opacity:1"
           fill="#000000"
           shape-rendering="optimizeQuality"
           d="m 582.5,175.5 c 13.6,0.4 22.4,7.1 26.5,20 1,4.6 1.5,9.3 1.5,14 -14.3,-0.3 -28.7,0 -43,1 3.4,14.5 12,19.3 26,14.5 3,-2.3 5,-5.3 6,-9 3.3,-0.5 6.6,-0.7 10,-0.5 -2.3,13.3 -10.3,20.3 -24,21 -18.7,-1.5 -28.3,-11.7 -29,-30.5 0.7,-17.3 9.3,-27.4 26,-30.5 z m -4,10 c 11.8,-1.5 18.8,3.5 21,15 -10.7,0.2 -21.3,0 -32,-0.5 1.3,-6.7 4.9,-11.6 11,-14.5 z"
           id="path6" />
      </g>
      <g
         id="g8"
         transform="translate(-4)">
        <path
           style="opacity:1"
           fill="#000000"
           shape-rendering="optimizeQuality"
           d="m 690.5,175.5 c 9.1,-0.7 16.9,1.9 23.5,8 1.7,3.1 2.9,6.5 3.5,10 -3.6,1 -7.3,1.3 -11,1 -0.3,-4.5 -2.7,-7.3 -7,-8.5 -4.8,-0.8 -9.4,-0.5 -14,1 -4.1,3.7 -3.7,7 1,10 6.9,2.5 13.9,4.5 21,6 10.2,3.2 14,10 11.5,20.5 -2.6,6 -7.1,9.9 -13.5,11.5 -10.3,2.7 -19.9,1.3 -29,-4 -4,-4 -6,-8.8 -6,-14.5 3.4,-0.2 6.7,0 10,0.5 2.6,7.1 7.8,10.6 15.5,10.5 4.6,-0.3 8.6,-2 12,-5 1.3,-4.1 0.1,-7.2 -3.5,-9.5 -8,-2.3 -16,-4.7 -24,-7 -9.4,-6 -11.3,-13.8 -5.5,-23.5 4.5,-4 9.7,-6.3 15.5,-7 z"
           id="path8" />
      </g>
      <g
         id="g7"
         transform="translate(-4)">
        <path
           style="opacity:1"
           fill="#000000"
           shape-rendering="optimizeQuality"
           d="m 635.5,175.5 c 9.1,-0.7 16.9,1.9 23.5,8 1.7,3.1 2.9,6.5 3.5,10 -3.6,1 -7.3,1.3 -11,1 -0.3,-4.5 -2.7,-7.3 -7,-8.5 -4.8,-0.8 -9.4,-0.5 -14,1 -4.1,3.7 -3.7,7 1,10 6.9,2.5 13.9,4.5 21,6 10.2,3.2 14,10 11.5,20.5 -2.6,6 -7.1,9.9 -13.5,11.5 -10.3,2.7 -19.9,1.3 -29,-4 -4,-4 -6,-8.8 -6,-14.5 3.4,-0.2 6.7,0 10,0.5 2.6,7.1 7.8,10.6 15.5,10.5 4.6,-0.3 8.6,-2 12,-5 1.3,-4.1 0.1,-7.2 -3.5,-9.5 -8,-2.3 -16,-4.7 -24,-7 -9.4,-6 -11.3,-13.8 -5.5,-23.5 4.5,-4 9.7,-6.3 15.5,-7 z"
           id="path7" />
      </g>
    </g>
    <g
       id="g2">
      <path
         style="opacity:1"
         fill="#000000"
         shape-rendering="optimizeQuality"
         d="m 618.1,87.3 c -0.21533,3.033749 -0.6481,6.080366 -1.5,9 -2.74007,9.39076 -5.75806,19.08012 -11.5,27 -3.11979,4.30313 -7.93432,7.07651 -12,10.5 -25.92387,21.82907 -79,64 -79,64 l -1,2.5 65,83.5 c 0,0 -44.42662,3.32439 -66,-1 -7.04017,-1.4112 -13.78045,-4.41213 -20,-8 -7.71118,-4.44834 -14.61527,-10.29636 -21,-16.5 -19.60542,-19.04935 -52.5,-63 -52.5,-63 -1.41139,-9.26164 -0.2509,-11.78937 5.5,-15 30.69995,-20.83211 192.5,-157 192.5,-157 0,0 3.01078,42.714356 1.5,64 z"
         id="path2" />
    </g>
  </g>
  <g
     id="g11">
    <g
       id="g10">
      <g
         id="g3">
        <path
           style="opacity:1"
           fill="#000000"
           shape-rendering="optimizeQuality"
           d="m 382.5,154.5 c 3.3,0 6.7,0 10,0 0,26.3 0,52.7 0,79 -3.3,0 -6.7,0 -10,0 0.2,-2 0,-4 -0.5,-6 -1.2,2.5 -3,4.3 -5.5,5.5 -23.8,5.9 -36.8,-3.5 -39,-28 2,-24 14.7,-33.3 38,-28 2.5,1.5 4.7,3.3 6.5,5.5 0.5,-9.3 0.7,-18.7 0.5,-28 z m -22,30 c 11.3,-1.5 18.5,3.2 21.5,14 2.3,9.4 0.1,17.6 -6.5,24.5 -16.1,5.9 -25.1,0.1 -27,-17.5 -0.3,-9.7 3.7,-16.7 12,-21 z"
           id="path3" />
      </g>
      <g
         id="g5">
        <path
           style="opacity:1"
           fill="#000000"
           shape-rendering="optimizeQuality"
           d="m 302.5,174.5 c 6.6,0.1 12.9,1.3 19,3.5 2.6,1.9 4.4,4.4 5.5,7.5 0.3,13 0.7,26 1,39 1.7,0.9 3.5,1.2 5.5,1 0.2,2.7 0,5.4 -0.5,8 -4.2,2.6 -8.3,2.6 -12.5,0 -1.4,-1.7 -2.3,-3.7 -2.5,-6 -8.3,6.9 -17.8,9.1 -28.5,6.5 -7.1,-2.4 -10.7,-7.4 -11,-15 0,-6.8 3,-11.8 9,-15 8.5,-2.6 17.2,-4.6 26,-6 4.9,-3.3 5.3,-7.1 1,-11.5 -6.7,-2.7 -13.4,-2.6 -20,0.5 -1.7,2.2 -2.7,4.7 -3,7.5 -3.3,0 -6.7,0 -10,0 1.2,-12.8 8.2,-19.5 21,-20 z m 13,31 c 3.6,12.4 -1.4,19.4 -15,21 -5.4,-0.3 -9.1,-3 -11,-8 0.4,-3 1.7,-5.5 4,-7.5 7.4,-2.2 14.7,-4 22,-5.5 z"
           id="path5" />
      </g>
      <g
         id="g4">
        <path
           style="opacity:1"
           fill="#000000"
           shape-rendering="optimizeQuality"
           d="m 245.5,174.5 c 13.6,0.4 22.4,7.1 26.5,20 1,4.6 1.5,9.3 1.5,14 -14.3,-0.3 -28.7,0 -43,1 3.4,14.5 12,19.3 26,14.5 3,-2.3 5,-5.3 6,-9 3.3,-0.5 6.6,-0.7 10,-0.5 -2.3,13.3 -10.3,20.3 -24,21 -18.7,-1.5 -28.3,-11.7 -29,-30.5 0.7,-17.3 9.3,-27.4 26,-30.5 z m -4,10 c 11.8,-1.5 18.8,3.5 21,15 -10.7,0.2 -21.3,0 -32,-0.5 1.3,-6.7 4.9,-11.6 11,-14.5 z"
           id="path4" />
      </g>
    </g>
    <g
       id="g1"
       mask="none"
       clip-path="none">
      <path
         id="path1"
         style="opacity:1"
         d="m 37.300781,0.09960937 c -5.19999,1.49999703 -10.50001,3.00000303 -16,4.50000003 C 9.9008042,9.5995994 2.9007761,18.099633 0.30078125,30.099609 V 267.09961 c 2.39999525,13.59998 9.10002195,24.80002 19.99999975,33.5 19.699962,12.49998 39.40004,25.00002 59,37.5 h 13 c 4.699992,-2.2 7.899999,-5.90002 9.499999,-11 0.4,-34.79994 0.7,-69.50008 1,-104 9.99998,11.69998 19.70002,23.70002 29,36 l 14.5,14.5 c 10.69998,9.19998 23.00004,14.8 37,17 20.99996,0.8 42.00004,0.7 63,-0.5 -25.69994,-32.69994 -51.30004,-65.30006 -77,-98 8.79998,-2.4 17.10002,-5.90002 25,-10.5 39.49992,-28.09994 53.99998,-65.9001 43.5,-113.500001 C 225.0008,31.399683 199.8007,8.799592 162.30078,0.09960937 Z m -19,42.99999963 c 3.399997,10.29999 9.400009,18.800007 18,25.5 11.499989,8.099992 23.500013,15.500007 36,22 7.699993,4.599996 12.100001,11.500011 13,20.500001 0.3,70.19993 -10e-7,140.20007 -1,210 -17.599982,-11.19999 -35.300017,-22.30001 -53,-33.5 -8.999991,-6.89999 -13.7,-16.10001 -14,-27.5 -0.299999,-72.49993 1e-6,-144.80007 1,-217.000001 z M 130.21094,70.988281 c 6.35154,-0.0016 12.71486,0.03633 19.08984,0.111328 2.7,0.7 5.3,1.300002 8,2 16.19998,9.199982 20.09998,22.200033 11.5,39.000001 -4.09998,5.69998 -9.60002,9.6 -16.5,11.5 -16.29996,1.4 -32.40002,1.9 -48.5,1.5 0.3,-12.99998 -2.70002,-25.400023 -8.999999,-37.000001 -5.999988,-6.899986 -13.200016,-12.300006 -21.5,-16 18.899962,-0.749998 37.855509,-1.10664 56.910159,-1.111328 z" />
    </g>
  </g>
  <path
     style="font-size:37.3333px;font-family:'.ThonburiUIWatch';-inkscape-font-specification:'.ThonburiUIWatch'"
     d="m 751.42896,163.11598 h -9.69791 v 23.93488 h -3.60937 v -23.93488 h -9.69791 v -3.20833 h 23.00519 z m 27.81768,23.93488 h -3.60937 v -23.388 l -7.54687,15.91405 h -2.15104 l -7.49218,-15.91405 v 23.388 h -3.37239 v -27.14321 h 4.92187 l 7.23697,15.11197 6.99999,-15.11197 h 5.01302 z"
     id="text12"
     aria-label="TM" />
</svg>
