<svg width="24" height="24" viewBox="0 0 24 24" fill="none" xmlns="http://www.w3.org/2000/svg">
<path fill-rule="evenodd" clip-rule="evenodd" d="M10.5309 7.55376C10.0692 7.28719 9.5718 7 8.5 7C6.5 7 4 9 4 13C4 17 6.6438 22 9 22C9.75 22 10.125 21.75 10.5 21.5C10.875 21.25 11.25 21 12 21C12.75 21 13.125 21.25 13.5 21.5C13.875 21.75 14.25 22 15 22C16.6777 22 18.8562 19.4844 19.9717 16.5777C20.0868 16.2776 19.8745 15.9593 19.5646 15.8736C18.0858 15.4645 17 14.109 17 12.5C17 11.1846 17.7257 10.0386 18.7986 9.44066C19.1026 9.27122 19.2297 8.86526 18.985 8.61778C17.9132 7.5338 16.5433 7 15.5 7C14.75 7 14.25 7.25 13.75 7.5C13.25 7.75 12.75 8 12 8C11.3038 8 10.9308 7.78461 10.5309 7.55376Z" fill="#12131A"/>
<path d="M12 5.55556C12 3.59188 13.5919 2 15.5556 2C15.801 2 16 2.19898 16 2.44444C16 4.40812 14.4081 6 12.4444 6C12.199 6 12 5.80102 12 5.55556Z" fill="#12131A"/>
</svg>
