<svg width="128" height="128" viewBox="0 0 128 128" fill="none" xmlns="http://www.w3.org/2000/svg">
<path d="M36.3336 0H10.4C6.86538 0 4 2.86538 4 6.4V105.6C4 109.135 6.86538 112 10.4 112H117.6C121.135 112 124 109.135 124 105.6V15.9206C124 12.386 121.135 9.52059 117.6 9.52059H50.7075C48.9171 9.52059 47.2086 8.77064 45.9966 7.4528L41.0445 2.0678C39.8325 0.749949 38.124 0 36.3336 0Z" fill="#7556CC"/>
<path d="M85.6434 24H6.4C2.86538 24 0 26.8654 0 30.4V121.6C0 125.135 2.86538 128 6.4 128H121.6C125.135 128 128 125.135 128 121.6V35.7532C128 32.2186 125.135 29.3532 121.6 29.3532H98.3909C97.2742 29.3532 96.177 29.061 95.2082 28.5057L88.8262 24.8475C87.8574 24.2922 86.7601 24 85.6434 24Z" fill="#926BFF"/>
<path d="M38 76C38 67.1634 45.1634 60 54 60C62.8366 60 70 67.1634 70 76C70 84.8366 62.8366 92 54 92C45.1634 92 38 84.8366 38 76Z" fill="#FCFDFE"/>
<g opacity="0.5">
<path d="M58 76C58 67.1634 65.1634 60 74 60C82.8366 60 90 67.1634 90 76C90 84.8366 82.8366 92 74 92C65.1634 92 58 84.8366 58 76Z" fill="#FCFDFE"/>
</g>
</svg>
