<svg width="128" height="128" viewBox="0 0 128 128" fill="none" xmlns="http://www.w3.org/2000/svg">
<path d="M36.3336 0H10.4C6.86538 0 4 2.86538 4 6.4V105.6C4 109.135 6.86538 112 10.4 112H117.6C121.135 112 124 109.135 124 105.6V15.9206C124 12.386 121.135 9.52059 117.6 9.52059H50.7075C48.9171 9.52059 47.2086 8.77064 45.9966 7.4528L41.0445 2.0678C39.8325 0.749949 38.124 0 36.3336 0Z" fill="#37A16C"/>
<path d="M85.6434 24H6.4C2.86538 24 0 26.8654 0 30.4V121.6C0 125.135 2.86538 128 6.4 128H121.6C125.135 128 128 125.135 128 121.6V35.7532C128 32.2186 125.135 29.3532 121.6 29.3532H98.3909C97.2742 29.3532 96.177 29.061 95.2082 28.5057L88.8262 24.8475C87.8574 24.2922 86.7601 24 85.6434 24Z" fill="#36BD79"/>
<path d="M42 74.2002C42 69.7819 45.5817 66.2002 50 66.2002H66C70.4183 66.2002 74 69.7819 74 74.2002V90.2002C74 94.6185 70.4183 98.2002 66 98.2002H50C45.5817 98.2002 42 94.6185 42 90.2002V74.2002Z" fill="#FCFDFE"/>
<g opacity="0.5">
<path d="M54 62C54 57.5817 57.5817 54 62 54H78C82.4183 54 86 57.5817 86 62V78C86 82.4183 82.4183 86 78 86H62C57.5817 86 54 82.4183 54 78V62Z" fill="#FCFDFE"/>
</g>
</svg>
