<svg width="21" height="20" viewBox="0 0 21 20" fill="none" xmlns="http://www.w3.org/2000/svg">
<path d="M10.5003 4.58355C11.773 4.58277 13.005 5.03252 13.9778 5.85313L16.7028 3.25813C15.6568 2.29358 14.4003 1.58613 13.0331 1.19191C11.6659 0.797683 10.2257 0.727548 8.82666 0.987064C7.42765 1.24658 6.10838 1.82861 4.97355 2.68695C3.83873 3.5453 2.91958 4.65633 2.28906 5.93188L5.36115 8.2998C5.71942 7.21942 6.40854 6.27914 7.3309 5.61217C8.25325 4.9452 9.36207 4.58533 10.5003 4.58355Z" fill="#D94F3D"/>
<path d="M5.08398 9.99997C5.08475 9.42196 5.17845 8.84783 5.36148 8.29956L2.2894 5.93164C1.661 7.19577 1.33398 8.58828 1.33398 9.99997C1.33398 11.4117 1.661 12.8042 2.2894 14.0683L5.36148 11.7004C5.17845 11.1521 5.08475 10.578 5.08398 9.99997Z" fill="#F2C042"/>
<path d="M19.293 8.3335H10.543V12.0835H15.5013C15.2063 13.1438 14.5306 14.058 13.6034 14.651L16.6517 17.001C18.5996 15.2527 19.7442 12.4097 19.293 8.3335Z" fill="#5085ED"/>
<path d="M13.6011 14.6511C12.6591 15.1903 11.5851 15.4556 10.5003 15.4169C9.36207 15.4152 8.25325 15.0553 7.3309 14.3883C6.40854 13.7213 5.71942 12.7811 5.36115 11.7007L2.28906 14.0686C3.04787 15.5982 4.21842 16.8858 5.66904 17.7865C7.11966 18.6872 8.79282 19.1652 10.5003 19.1669C12.7471 19.228 14.9372 18.4563 16.6495 17.0003L13.6011 14.6511Z" fill="#57A75C"/>
</svg>
