<svg width="33" height="33" viewBox="0 0 33 33" fill="none" xmlns="http://www.w3.org/2000/svg">
<path fill-rule="evenodd" clip-rule="evenodd" d="M14.668 3.87095C17.6186 0.668238 22.8379 3.81874 21.3787 7.92159L19.8182 12.3092H24.7034C28.1886 12.3092 30.0067 16.4562 27.6452 19.0194L18.3323 29.1284C15.3818 32.3312 10.1624 29.1805 11.6217 25.0777L13.1822 20.6902H8.29696C4.81182 20.6902 2.99369 16.5432 5.35508 13.98L14.668 3.87095ZM18.8662 7.02798C19.3526 5.66035 17.6128 4.61021 16.6294 5.67777L7.31634 15.7868C6.52921 16.6412 7.13524 18.0236 8.29696 18.0236H15.0716C15.505 18.0236 15.9112 18.2341 16.161 18.5881C16.4108 18.9421 16.4731 19.3954 16.3279 19.8037L14.1342 25.9713C13.6478 27.3389 15.3875 28.3892 16.3711 27.3216L25.684 17.2126C26.4711 16.3582 25.8651 14.9758 24.7034 14.9758H17.9288C17.4955 14.9758 17.0892 14.7653 16.8394 14.4113C16.5895 14.0573 16.5274 13.604 16.6726 13.1958L18.8662 7.02798Z" fill="black"/>
</svg>
