<svg width="52" height="52" viewBox="0 0 52 52" fill="none" xmlns="http://www.w3.org/2000/svg">
<path fill-rule="evenodd" clip-rule="evenodd" d="M52 3.25C52 1.45507 50.5449 0 48.75 0H3.25C1.45507 0 0 1.45507 0 3.25V48.75C0 50.5449 1.45507 52 3.25 52H27.8898C28.7517 52 29.5784 51.6576 30.1879 51.0481L51.0481 30.1879C51.6576 29.5784 52 28.7517 52 27.8898V3.25Z" fill="#313336"/>
<path d="M6.5 24.375C6.5 23.4775 7.22754 22.75 8.125 22.75H21.125C22.0225 22.75 22.75 23.4775 22.75 24.375V34.9375V38.3269C22.75 38.7579 22.5788 39.1712 22.2741 39.476L16.726 45.024C16.4212 45.3288 16.0079 45.5 15.5769 45.5H9.75H8.125C7.22754 45.5 6.5 44.7725 6.5 43.875V24.375Z" fill="#F5F6F7"/>
<path d="M43.875 22.75C44.7725 22.75 45.5 22.0225 45.5 21.125L45.5 8.125C45.5 7.22753 44.7725 6.5 43.875 6.5L33.3125 6.5L29.9231 6.5C29.4921 6.5 29.0788 6.6712 28.774 6.97595L23.226 12.524C22.9212 12.8288 22.75 13.2421 22.75 13.6731L22.75 19.5L22.75 21.125C22.75 22.0225 23.4775 22.75 24.375 22.75L43.875 22.75Z" fill="#F5F6F7"/>
</svg>
