<svg width="40" height="40" viewBox="0 0 40 40" fill="none" xmlns="http://www.w3.org/2000/svg">
<path fill-rule="evenodd" clip-rule="evenodd" d="M40 2.5C40 1.11929 38.8807 0 37.5 0H2.5C1.11929 0 0 1.11929 0 2.5V37.5C0 38.8807 1.11929 40 2.5 40H21.4537C22.1167 40 22.7526 39.7366 23.2214 39.2678L39.2678 23.2214C39.7366 22.7526 40 22.1167 40 21.4537V2.5Z" fill="#2377FC"/>
<path d="M5 18.75C5 18.0596 5.55964 17.5 6.25 17.5H16.25C16.9404 17.5 17.5 18.0596 17.5 18.75V26.875V29.4822C17.5 29.8138 17.3683 30.1317 17.1339 30.3661L12.8661 34.6339C12.6317 34.8683 12.3138 35 11.9822 35H7.5H6.25C5.55964 35 5 34.4404 5 33.75V18.75Z" fill="#F5F6F7"/>
<path d="M33.75 17.5C34.4404 17.5 35 16.9404 35 16.25L35 6.25C35 5.55964 34.4404 5 33.75 5L25.625 5L23.0178 5C22.6862 5 22.3683 5.1317 22.1339 5.36612L17.8661 9.63388C17.6317 9.8683 17.5 10.1862 17.5 10.5178L17.5 15L17.5 16.25C17.5 16.9404 18.0596 17.5 18.75 17.5L33.75 17.5Z" fill="#F5F6F7"/>
</svg>
