<?xml version="1.0" encoding="UTF-8"?>
<!DOCTYPE svg PUBLIC "-//W3C//DTD SVG 1.1//EN" "http://www.w3.org/Graphics/SVG/1.1/DTD/svg11.dtd">
<svg xmlns="http://www.w3.org/2000/svg" version="1.1" width="413px" height="338px"
  style="fill-rule: evenodd; shape-rendering: geometricPrecision; text-rendering: geometricPrecision; image-rendering: optimizeQuality; clip-rule: evenodd"
  xmlns:xlink="http://www.w3.org/1999/xlink">
  <g>
    <path style="opacity: 1" fill="currentColor" shape-rendering="optimizeQuality"
      d="M 38.5 -0.5 C 80.2 -0.5 121.8 -0.5 163.5 -0.5 C 201 8.2 226.2 30.8 239 67.5 C 249.5 115.1 235 152.9 195.5 181 C 187.6 185.6 179.3 189.1 170.5 191.5 C 196.2 224.2 221.8 256.8 247.5 289.5 C 226.5 290.7 205.5 290.8 184.5 290 C 170.5 287.8 158.2 282.2 147.5 273 C 142.7 268.2 137.8 263.3 133 258.5 C 123.7 246.2 114 234.2 104 222.5 C 103.7 257 103.4 291.7 103 326.5 C 101.4 331.6 98.2 335.3 93.5 337.5 C 89.2 337.5 84.8 337.5 80.5 337.5 C 60.9 325 41.2 312.5 21.5 300 C 10.6 291.3 3.9 280.1 1.5 266.5 C 1.5 187.5 1.5 108.5 1.5 29.5 C 4.1 17.5 11.1 9 22.5 4 C 28 2.5 33.3 1 38.5 -0.5 Z M 19.5 42.5 C 22.9 52.8 28.9 61.3 37.5 68 C 49.1 76.6 61.4 83.9 74.5 90 C 81.5 95.1 85.5 101.9 86.5 110.5 C 86.8 180.7 86.5 250.7 85.5 320.5 C 67.9 309.3 50.2 298.2 32.5 287 C 24.8 281.4 20.3 273.9 19 264.5 C 18.8 246.8 18.3 229.1 17.5 211.5 C 18.2 155.2 18.8 98.8 19.5 42.5 Z M 75.5 69.5 C 100.8 69.3 126.2 69.5 151.5 70 C 153.3 71.1 155.3 71.6 157.5 71.5 C 157.5 72.2 157.8 72.5 158.5 72.5 C 162.1 74.3 165.4 76.7 168.5 79.5 C 177.1 92.7 176.1 105.2 165.5 117 C 161.8 119.5 157.8 121.5 153.5 123 C 137.2 124.4 121.1 124.9 105 124.5 C 105.3 111.5 102.3 99.1 96 87.5 C 90.3 80.8 83.5 75.6 75.5 72 C 74.4 71.2 74.4 70.4 75.5 69.5 Z" />
  </g>
  <g>
    <path style="opacity: 1" fill="currentColor" shape-rendering="optimizeQuality"
      d="M 410.5 74.5 C 410.5 75.2 410.5 75.8 410.5 76.5 C 409.2 78.8 409.2 81.2 410.5 83.5 C 410.5 85.5 410.5 87.5 410.5 89.5 C 409.2 90.8 409.2 92.2 410.5 93.5 C 410.5 96.5 410.5 99.5 410.5 102.5 C 409.2 103.8 409.2 105.2 410.5 106.5 C 410.5 107.2 410.5 107.8 410.5 108.5 C 409.2 108.8 409.2 109.2 410.5 109.5 C 410.5 112.8 410.5 116.2 410.5 119.5 C 407.2 135.7 399.6 149.4 387.5 160.5 C 386.4 160.4 385.4 160.5 384.5 161 C 359.2 183.7 332.9 205 305.5 225 C 304.9 225.7 304.6 226.6 304.5 227.5 C 325.9 255.5 347.6 283.3 369.5 311 C 347.5 311.9 325.5 311.6 303.5 310 C 296.4 308.4 289.7 305.8 283.5 302 C 275.7 296.7 268.4 290.9 261.5 284.5 C 244.6 263.7 227.4 243.1 210 222.5 C 208.3 219.2 208.3 215.9 210 212.5 C 211.1 209.9 212.9 208.3 215.5 207.5 C 220.3 204.6 224.9 201.4 229.5 198 C 262.5 170.6 295.9 143.6 329.5 117 C 355.7 94.8 381.8 72.7 408 50.5 C 408.6 58.7 409.4 66.7 410.5 74.5 Z" />
  </g>
</svg>