<svg width="33" height="33" viewBox="0 0 33 33" fill="none" xmlns="http://www.w3.org/2000/svg">
<path fill-rule="evenodd" clip-rule="evenodd" d="M23.167 20.5003V12.5003C23.167 8.81843 20.1822 5.83366 16.5003 5.83366C12.8184 5.83366 9.83366 8.81843 9.83366 12.5003V20.5003C9.83366 24.1822 12.8184 27.167 16.5003 27.167C20.1822 27.167 23.167 24.1822 23.167 20.5003ZM16.5003 3.16699C11.3457 3.16699 7.16699 7.34567 7.16699 12.5003V20.5003C7.16699 25.655 11.3457 29.8337 16.5003 29.8337C21.655 29.8337 25.8337 25.655 25.8337 20.5003V12.5003C25.8337 7.34567 21.655 3.16699 16.5003 3.16699Z" fill="#202225"/>
<path fill-rule="evenodd" clip-rule="evenodd" d="M16.5003 8.5C17.2367 8.5 17.8337 9.09696 17.8337 9.83333V13.8333C17.8337 14.5697 17.2367 15.1667 16.5003 15.1667C15.7639 15.1667 15.167 14.5697 15.167 13.8333V9.83333C15.167 9.09695 15.7639 8.5 16.5003 8.5Z" fill="#202225"/>
</svg>
