<svg width="32" height="32" viewBox="0 0 32 32" fill="none" xmlns="http://www.w3.org/2000/svg">
<g clip-path="url(#clip0_101_2152)">
<path d="M13.1663 8H10.4997C10.3229 8 10.1533 8.07024 10.0283 8.19526C9.90325 8.32029 9.83301 8.48986 9.83301 8.66667C9.83301 8.84348 9.90325 9.01305 10.0283 9.13807C10.1533 9.2631 10.3229 9.33333 10.4997 9.33333H11.1663V10.6667H12.4997V9.33333H13.1663C13.3432 9.33333 13.5127 9.2631 13.6377 9.13807C13.7628 9.01305 13.833 8.84348 13.833 8.66667C13.833 8.48986 13.7628 8.32029 13.6377 8.19526C13.5127 8.07024 13.3432 8 13.1663 8V8Z" fill="#202225"/>
<path d="M22.5003 8H19.8337C19.6568 8 19.4873 8.07024 19.3623 8.19526C19.2372 8.32029 19.167 8.48986 19.167 8.66667C19.167 8.84348 19.2372 9.01305 19.3623 9.13807C19.4873 9.2631 19.6568 9.33333 19.8337 9.33333H20.5003V10.6667H21.8337V9.33333H22.5003C22.6771 9.33333 22.8467 9.2631 22.9717 9.13807C23.0968 9.01305 23.167 8.84348 23.167 8.66667C23.167 8.48986 23.0968 8.32029 22.9717 8.19526C22.8467 8.07024 22.6771 8 22.5003 8V8Z" fill="#202225"/>
<path d="M23.8333 12H9.16667C8.98986 12 8.82029 12.0702 8.69526 12.1953C8.57024 12.3203 8.5 12.4899 8.5 12.6667V23.3333C8.5 23.5101 8.57024 23.6797 8.69526 23.8047C8.82029 23.9298 8.98986 24 9.16667 24H23.8333C24.0101 24 24.1797 23.9298 24.3047 23.8047C24.4298 23.6797 24.5 23.5101 24.5 23.3333V12.6667C24.5 12.4899 24.4298 12.3203 24.3047 12.1953C24.1797 12.0702 24.0101 12 23.8333 12ZM11.8333 14.6667H14.5V16H11.8333V14.6667ZM21.1667 20.6667C21.1667 20.8435 21.0964 21.013 20.9714 21.1381C20.8464 21.2631 20.6768 21.3333 20.5 21.3333H12.5C12.3232 21.3333 12.1536 21.2631 12.0286 21.1381C11.9036 21.013 11.8333 20.8435 11.8333 20.6667V18.6667C11.8333 18.4899 11.9036 18.3203 12.0286 18.1953C12.1536 18.0702 12.3232 18 12.5 18H20.5C20.6768 18 20.8464 18.0702 20.9714 18.1953C21.0964 18.3203 21.1667 18.4899 21.1667 18.6667V20.6667ZM21.1667 16H18.5V14.6667H21.1667V16Z" fill="#202225"/>
</g>
<defs>
<clipPath id="clip0_101_2152">
<rect width="16" height="16" fill="white" transform="translate(8.5 8)"/>
</clipPath>
</defs>
</svg>
