<svg width="33" height="33" viewBox="0 0 33 33" fill="none" xmlns="http://www.w3.org/2000/svg">
<path fill-rule="evenodd" clip-rule="evenodd" d="M12.4997 14.4997C11.3951 14.4997 10.4997 15.3951 10.4997 16.4997C10.4997 17.6042 11.3951 18.4997 12.4997 18.4997C13.6042 18.4997 14.4997 17.6042 14.4997 16.4997C14.4997 15.3951 13.6042 14.4997 12.4997 14.4997ZM7.83301 16.4997C7.83301 13.9223 9.92234 11.833 12.4997 11.833C15.077 11.833 17.1663 13.9223 17.1663 16.4997C17.1663 19.077 15.077 21.1663 12.4997 21.1663C9.92234 21.1663 7.83301 19.077 7.83301 16.4997Z" fill="black"/>
<path fill-rule="evenodd" clip-rule="evenodd" d="M3.16699 16.5003C3.16699 11.3457 7.34567 7.16699 12.5003 7.16699H20.5003C25.655 7.16699 29.8337 11.3457 29.8337 16.5003C29.8337 21.655 25.655 25.8337 20.5003 25.8337H12.5003C7.34567 25.8337 3.16699 21.655 3.16699 16.5003ZM12.5003 9.83366C8.81843 9.83366 5.83366 12.8184 5.83366 16.5003C5.83366 20.1822 8.81843 23.167 12.5003 23.167H20.5003C24.1822 23.167 27.167 20.1822 27.167 16.5003C27.167 12.8184 24.1822 9.83366 20.5003 9.83366H12.5003Z" fill="black"/>
</svg>
