<svg width="32" height="32" viewBox="0 0 32 32" fill="none" xmlns="http://www.w3.org/2000/svg">
<path d="M15.4998 5.88867C9.91534 5.88867 5.38867 10.4153 5.38867 15.9998C5.38867 21.5842 9.91534 26.1109 15.4998 26.1109C21.0842 26.1109 25.6109 21.5842 25.6109 15.9998C25.6109 10.4153 21.0842 5.88867 15.4998 5.88867ZM15.4998 7.44423C20.2178 7.44423 24.0553 11.2818 24.0553 15.9998C24.0553 20.7178 20.2178 24.5553 15.4998 24.5553C10.7818 24.5553 6.94423 20.7178 6.94423 15.9998C6.94423 11.2818 10.7818 7.44423 15.4998 7.44423ZM21.3635 12.515C19.8157 12.5165 19.0036 13.5717 18.5836 14.6994C18.5836 14.6994 17.7101 17.4405 17.6447 17.6738C17.6199 17.4405 16.9794 12.518 16.9794 12.518C15.4876 12.518 14.6954 13.5717 14.2754 14.6994C14.2754 14.6994 13.2141 17.4512 13.127 17.6829C13.1223 17.4652 12.9659 14.7298 12.9659 14.7298C12.8757 13.3547 11.621 12.5211 10.6053 12.5211L11.8296 19.9829C13.3914 19.9782 14.2301 18.9215 14.6704 17.7984C14.6704 17.7984 15.6052 15.3735 15.6456 15.2615C15.6565 15.3673 16.3171 19.9829 16.3171 19.9829C17.8788 19.9829 18.7233 18.9935 19.179 17.9108L21.3635 12.515Z" fill="#202225"/>
</svg>
